Nokyung-B.ufo
<glyph name="NumSgn" format="1">
  <advance width="1003"/>
  <unicode hex="0023"/>
  <outline>
    <contour>
      <point x="344" y="1137" type="line"/>
      <point x="43" y="84" type="line"/>
      <point x="227" y="84" type="line"/>
      <point x="528" y="1137" type="line"/>
    </contour>
    <contour>
      <point x="8" y="355" type="line"/>
      <point x="920" y="355" type="line"/>
      <point x="920" y="531" type="line"/>
      <point x="8" y="531" type="line"/>
    </contour>
    <contour>
      <point x="58" y="711" type="line"/>
      <point x="970" y="711" type="line"/>
      <point x="970" y="886" type="line"/>
      <point x="58" y="886" type="line"/>
    </contour>
    <contour>
      <point x="742" y="1137" type="line"/>
      <point x="441" y="84" type="line"/>
      <point x="624" y="84" type="line"/>
      <point x="925" y="1137" type="line"/>
    </contour>
  </outline>
</glyph>
<glyph name="percent" format="1">
  <advance width="1308"/>
  <unicode hex="0025"/>
  <outline>
    <contour>
      <point x="897" y="1237" type="line"/>
      <point x="243" y="-21" type="line"/>
      <point x="417" y="-21" type="line"/>
      <point x="1069" y="1237" type="line"/>
    </contour>
    <contour>
      <point x="427" y="900" type="curve" smooth="yes"/>
      <point x="427" y="746"/>
      <point x="393" y="681"/>
      <point x="329" y="681" type="curve" smooth="yes"/>
      <point x="263" y="681"/>
      <point x="233" y="745"/>
      <point x="233" y="912" type="curve" smooth="yes"/>
      <point x="233" y="1066"/>
      <point x="265" y="1129"/>
      <point x="329" y="1129" type="curve" smooth="yes"/>
      <point x="397" y="1129"/>
      <point x="427" y="1067"/>
    </contour>
    <contour>
      <point x="603" y="910" type="curve" smooth="yes"/>
      <point x="603" y="1139"/>
      <point x="488" y="1237"/>
      <point x="334" y="1237" type="curve" smooth="yes"/>
      <point x="180" y="1237"/>
      <point x="58" y="1137"/>
      <point x="58" y="901" type="curve" smooth="yes"/>
      <point x="58" y="665"/>
      <point x="171" y="573"/>
      <point x="326" y="573" type="curve" smooth="yes"/>
      <point x="481" y="573"/>
      <point x="603" y="664"/>
    </contour>
    <contour>
      <point x="1075" y="306" type="curve" smooth="yes"/>
      <point x="1075" y="152"/>
      <point x="1041" y="88"/>
      <point x="977" y="88" type="curve" smooth="yes"/>
      <point x="911" y="88"/>
      <point x="881" y="151"/>
      <point x="881" y="319" type="curve" smooth="yes"/>
      <point x="881" y="472"/>
      <point x="913" y="535"/>
      <point x="977" y="535" type="curve" smooth="yes"/>
      <point x="1045" y="535"/>
      <point x="1075" y="473"/>
    </contour>
    <contour>
      <point x="1251" y="317" type="curve" smooth="yes"/>
      <point x="1251" y="545"/>
      <point x="1136" y="644"/>
      <point x="981" y="644" type="curve" smooth="yes"/>
      <point x="828" y="644"/>
      <point x="706" y="543"/>
      <point x="706" y="308" type="curve" smooth="yes"/>
      <point x="706" y="72"/>
      <point x="819" y="-21"/>
      <point x="974" y="-21" type="curve" smooth="yes"/>
      <point x="1129" y="-21"/>
      <point x="1251" y="70"/>
    </contour>
  </outline>
</glyph>
<glyph name="quotesingle" format="1">
  <advance width="480"/>
  <unicode hex="0027"/>
  <outline>
    <contour>
      <point x="330" y="1271" type="curve" smooth="yes"/>
      <point x="330" y="1219"/>
      <point x="315" y="1068"/>
      <point x="261" y="708" type="curve" smooth="yes"/>
      <point x="258" y="686"/>
      <point x="218" y="686"/>
      <point x="215" y="708" type="curve" smooth="yes"/>
      <point x="164" y="1068"/>
      <point x="150" y="1219"/>
      <point x="150" y="1271" type="curve" smooth="yes"/>
      <point x="150" y="1309"/>
      <point x="177" y="1340"/>
      <point x="240" y="1340" type="curve" smooth="yes"/>
      <point x="302" y="1340"/>
      <point x="330" y="1306"/>
    </contour>
  </outline>
</glyph>
<glyph name="parenleft" format="1">
  <advance width="712"/>
  <unicode hex="0028"/>
  <outline>
    <contour>
      <point x="602" y="-285" type="curve"/>
      <point x="578" y="-312" type="line"/>
      <point x="362" y="-157"/>
      <point x="200" y="54"/>
      <point x="200" y="425" type="curve"/>
      <point x="200" y="795"/>
      <point x="362" y="1006"/>
      <point x="578" y="1162" type="curve"/>
      <point x="602" y="1135" type="line"/>
      <point x="452" y="996"/>
      <point x="300" y="765"/>
      <point x="300" y="425" type="curve"/>
      <point x="300" y="85"/>
      <point x="452" y="-147"/>
    </contour>
  </outline>
</glyph>
<glyph name="PlusSgn" format="1">
  <advance width="1003"/>
  <unicode hex="002B"/>
  <outline>
    <contour>
      <point x="414" y="986" type="line"/>
      <point x="414" y="238" type="line"/>
      <point x="589" y="238" type="line"/>
      <point x="589" y="986" type="line"/>
    </contour>
    <contour>
      <point x="130" y="527" type="line"/>
      <point x="874" y="527" type="line"/>
      <point x="874" y="702" type="line"/>
      <point x="130" y="702" type="line"/>
    </contour>
  </outline>
</glyph>
<glyph name="hyphen" format="1">
  <advance width="570"/>
  <unicode hex="002D"/>
  <outline>
    <contour>
      <point x="520" y="450" type="curve" smooth="yes"/>
      <point x="520" y="421"/>
      <point x="512" y="410"/>
      <point x="495" y="410" type="curve" smooth="yes"/>
      <point x="75" y="410" type="line" smooth="yes"/>
      <point x="59" y="410"/>
      <point x="50" y="421"/>
      <point x="50" y="450" type="curve" smooth="yes"/>
      <point x="50" y="477"/>
      <point x="60" y="490"/>
      <point x="77" y="490" type="curve" smooth="yes"/>
      <point x="493" y="490" type="line" smooth="yes"/>
      <point x="511" y="490"/>
      <point x="520" y="477"/>
    </contour>
  </outline>
</glyph>
<glyph name="period" format="1">
  <advance width="600"/>
  <unicode hex="002E"/>
  <outline>
    <contour>
      <point x="415" y="110" type="curve" smooth="yes"/>
      <point x="415" y="30"/>
      <point x="366" y="-20"/>
      <point x="300" y="-20" type="curve" smooth="yes"/>
      <point x="236" y="-20"/>
      <point x="185" y="30"/>
      <point x="185" y="110" type="curve" smooth="yes"/>
      <point x="185" y="190"/>
      <point x="236" y="240"/>
      <point x="300" y="240" type="curve" smooth="yes"/>
      <point x="366" y="240"/>
      <point x="415" y="190"/>
    </contour>
  </outline>
</glyph>
<glyph name="one" format="1">
  <advance width="1003"/>
  <unicode hex="0031"/>
  <outline>
    <contour>
      <point x="899" y="0" type="line"/>
      <point x="899" y="196" type="line"/>
      <point x="641" y="196" type="line"/>
      <point x="641" y="1221" type="line"/>
      <point x="411" y="1221" type="line"/>
      <point x="148" y="1068" type="line"/>
      <point x="177" y="851" type="line"/>
      <point x="411" y="978" type="line"/>
      <point x="411" y="196" type="line"/>
      <point x="155" y="196" type="line"/>
      <point x="155" y="0" type="line"/>
    </contour>
    <contour>
      <point x="502" y="-84" type="move" name="L"/>
    </contour>
    <contour>
      <point x="502" y="1279" type="move" name="U"/>
    </contour>
  </outline>
</glyph>
<glyph name="two" format="1">
  <advance width="1003"/>
  <unicode hex="0032"/>
  <outline>
    <contour>
      <point x="911" y="217" type="line"/>
      <point x="844" y="206"/>
      <point x="788" y="205"/>
      <point x="623" y="205" type="curve" smooth="yes"/>
      <point x="401" y="205" type="line"/>
      <point x="584" y="353"/>
      <point x="874" y="618"/>
      <point x="874" y="890" type="curve" smooth="yes"/>
      <point x="874" y="1106"/>
      <point x="711" y="1241"/>
      <point x="468" y="1241" type="curve" smooth="yes"/>
      <point x="327" y="1241"/>
      <point x="164" y="1172"/>
      <point x="88" y="1078" type="curve"/>
      <point x="142" y="878" type="line"/>
      <point x="217" y="968"/>
      <point x="344" y="1032"/>
      <point x="447" y="1032" type="curve" smooth="yes"/>
      <point x="575" y="1032"/>
      <point x="634" y="947"/>
      <point x="634" y="849" type="curve" smooth="yes"/>
      <point x="634" y="634"/>
      <point x="319" y="347"/>
      <point x="92" y="184" type="curve"/>
      <point x="92" y="0" type="line"/>
      <point x="911" y="0" type="line"/>
    </contour>
    <contour>
      <point x="468" y="1279" type="move" name="U"/>
    </contour>
    <contour>
      <point x="502" y="-84" type="move" name="L"/>
    </contour>
  </outline>
</glyph>
<glyph name="DigitFour" format="1">
  <advance width="1003"/>
  <unicode hex="0034"/>
  <outline>
    <contour>
      <point x="966" y="288" type="line"/>
      <point x="966" y="477" type="line"/>
      <point x="832" y="477" type="line"/>
      <point x="832" y="1221" type="line"/>
      <point x="581" y="1221" type="line"/>
      <point x="50" y="477" type="line"/>
      <point x="50" y="288" type="line"/>
      <point x="610" y="288" type="line"/>
      <point x="610" y="0" type="line"/>
      <point x="832" y="0" type="line"/>
      <point x="832" y="288" type="line"/>
    </contour>
    <contour>
      <point x="610" y="957" type="line"/>
      <point x="610" y="477" type="line"/>
      <point x="255" y="477" type="line"/>
    </contour>
    <contour>
      <point x="507.0" y="1279.0" type="move" name="U"/>
    </contour>
    <contour>
      <point x="507.0" y="-84.0" type="move" name="L"/>
    </contour>
  </outline>
</glyph>
<glyph name="four" format="1">
  <advance width="1003"/>
  <unicode hex="0034"/>
  <outline>
    <contour>
      <point x="966" y="288" type="line"/>
      <point x="966" y="477" type="line"/>
      <point x="832" y="477" type="line"/>
      <point x="832" y="1221" type="line"/>
      <point x="581" y="1221" type="line"/>
      <point x="50" y="477" type="line"/>
      <point x="50" y="288" type="line"/>
      <point x="610" y="288" type="line"/>
      <point x="610" y="0" type="line"/>
      <point x="832" y="0" type="line"/>
      <point x="832" y="288" type="line"/>
    </contour>
    <contour>
      <point x="610" y="957" type="line"/>
      <point x="610" y="477" type="line"/>
      <point x="255" y="477" type="line"/>
    </contour>
    <contour>
      <point x="507" y="1279" type="move" name="U"/>
    </contour>
    <contour>
      <point x="507" y="-84" type="move" name="L"/>
    </contour>
  </outline>
</glyph>
<glyph name="five" format="1">
  <advance width="1003"/>
  <unicode hex="0035"/>
  <outline>
    <contour>
      <point x="146" y="539" type="line"/>
      <point x="250" y="579"/>
      <point x="338" y="594"/>
      <point x="426" y="594" type="curve" smooth="yes"/>
      <point x="560" y="594"/>
      <point x="677" y="528"/>
      <point x="677" y="393" type="curve" smooth="yes"/>
      <point x="677" y="266"/>
      <point x="577" y="180"/>
      <point x="443" y="180" type="curve" smooth="yes"/>
      <point x="326" y="180"/>
      <point x="229" y="211"/>
      <point x="117" y="301" type="curve"/>
      <point x="84" y="67" type="line"/>
      <point x="188" y="2"/>
      <point x="305" y="-21"/>
      <point x="435" y="-21" type="curve" smooth="yes"/>
      <point x="696" y="-21"/>
      <point x="911" y="136"/>
      <point x="911" y="397" type="curve" smooth="yes"/>
      <point x="911" y="629"/>
      <point x="737" y="777"/>
      <point x="506" y="777" type="curve" smooth="yes"/>
      <point x="454" y="777"/>
      <point x="391" y="762"/>
      <point x="364" y="748" type="curve"/>
      <point x="364" y="1016" type="line"/>
      <point x="640" y="1016" type="line" smooth="yes"/>
      <point x="710" y="1016"/>
      <point x="798" y="1012"/>
      <point x="861" y="999" type="curve"/>
      <point x="861" y="1221" type="line"/>
      <point x="146" y="1221" type="line"/>
    </contour>
    <contour>
      <point x="502" y="1279" type="move" name="U"/>
    </contour>
    <contour>
      <point x="502" y="-84" type="move" name="L"/>
    </contour>
  </outline>
</glyph>
<glyph name="LTSgn" format="1">
  <advance width="1003"/>
  <unicode hex="003C"/>
  <outline>
    <contour>
      <point x="895" y="397" type="line"/>
      <point x="326" y="610" type="line"/>
      <point x="895" y="823" type="line"/>
      <point x="895" y="1016" type="line"/>
      <point x="92" y="690" type="line"/>
      <point x="92" y="531" type="line"/>
      <point x="895" y="205" type="line"/>
    </contour>
  </outline>
</glyph>
<glyph name="EqSgn" format="1">
  <advance width="1003"/>
  <unicode hex="003D"/>
  <outline>
    <contour>
      <point x="100" y="368" type="line"/>
      <point x="903" y="368" type="line"/>
      <point x="903" y="543" type="line"/>
      <point x="100" y="543" type="line"/>
    </contour>
    <contour>
      <point x="100" y="677" type="line"/>
      <point x="903" y="677" type="line"/>
      <point x="903" y="853" type="line"/>
      <point x="100" y="853" type="line"/>
    </contour>
  </outline>
</glyph>
<glyph name="equal" format="1">
  <advance width="1003"/>
  <unicode hex="003D"/>
  <outline>
    <contour>
      <point x="100" y="368" type="line"/>
      <point x="903" y="368" type="line"/>
      <point x="903" y="543" type="line"/>
      <point x="100" y="543" type="line"/>
    </contour>
    <contour>
      <point x="100" y="677" type="line"/>
      <point x="903" y="677" type="line"/>
      <point x="903" y="853" type="line"/>
      <point x="100" y="853" type="line"/>
    </contour>
  </outline>
</glyph>
<glyph name="GTSgn" format="1">
  <advance width="1003"/>
  <unicode hex="003E"/>
  <outline>
    <contour>
      <point x="109" y="205" type="line"/>
      <point x="911" y="531" type="line"/>
      <point x="911" y="690" type="line"/>
      <point x="109" y="1016" type="line"/>
      <point x="109" y="823" type="line"/>
      <point x="677" y="610" type="line"/>
      <point x="109" y="397" type="line"/>
    </contour>
  </outline>
</glyph>
<glyph name="question" format="1">
  <advance width="720"/>
  <unicode hex="003F"/>
  <outline>
    <contour>
      <point x="624" y="722" type="curve" smooth="yes"/>
      <point x="623" y="655"/>
      <point x="605" y="598"/>
      <point x="570" y="551" type="curve" smooth="yes"/>
      <point x="545" y="518"/>
      <point x="512" y="490"/>
      <point x="471" y="469" type="curve"/>
      <point x="412" y="441" type="line"/>
      <point x="407" y="436"/>
      <point x="405" y="401"/>
      <point x="404" y="337" type="curve" smooth="yes"/>
      <point x="403" y="280"/>
      <point x="404" y="241"/>
      <point x="406" y="221" type="curve" smooth="yes"/>
      <point x="407" y="213"/>
      <point x="402" y="208"/>
      <point x="392" y="205" type="curve" smooth="yes"/>
      <point x="386" y="204"/>
      <point x="378" y="203"/>
      <point x="367" y="203" type="curve" smooth="yes"/>
      <point x="350" y="203"/>
      <point x="341" y="203"/>
      <point x="338" y="204" type="curve" smooth="yes"/>
      <point x="327" y="206"/>
      <point x="320" y="211"/>
      <point x="318" y="220" type="curve" smooth="yes"/>
      <point x="315" y="233"/>
      <point x="316" y="279"/>
      <point x="319" y="357" type="curve" smooth="yes"/>
      <point x="322" y="436"/>
      <point x="327" y="479"/>
      <point x="332" y="486" type="curve"/>
      <point x="365" y="504"/>
      <point x="397" y="522"/>
      <point x="429" y="541" type="curve"/>
      <point x="490" y="586"/>
      <point x="520" y="645"/>
      <point x="520" y="717" type="curve" smooth="yes"/>
      <point x="520" y="771"/>
      <point x="505" y="816"/>
      <point x="474" y="852" type="curve" smooth="yes"/>
      <point x="446" y="885"/>
      <point x="414" y="901"/>
      <point x="379" y="901" type="curve" smooth="yes"/>
      <point x="296" y="901"/>
      <point x="237" y="850"/>
      <point x="203" y="747" type="curve" smooth="yes"/>
      <point x="198" y="731"/>
      <point x="178" y="733"/>
      <point x="143" y="753" type="curve" smooth="yes"/>
      <point x="106" y="775"/>
      <point x="92" y="793"/>
      <point x="101" y="807" type="curve" smooth="yes"/>
      <point x="172" y="914"/>
      <point x="266" y="968"/>
      <point x="382" y="968" type="curve" smooth="yes"/>
      <point x="447" y="968"/>
      <point x="502" y="947"/>
      <point x="549" y="904" type="curve" smooth="yes"/>
      <point x="600" y="857"/>
      <point x="625" y="797"/>
    </contour>
    <contour>
      <point x="434" y="49" type="curve" smooth="yes"/>
      <point x="434" y="12"/>
      <point x="404" y="-20"/>
      <point x="367" y="-20" type="curve" smooth="yes"/>
      <point x="331" y="-20"/>
      <point x="302" y="12"/>
      <point x="302" y="49" type="curve" smooth="yes"/>
      <point x="302" y="88"/>
      <point x="328" y="125"/>
      <point x="363" y="125" type="curve" smooth="yes"/>
      <point x="410" y="125"/>
      <point x="434" y="100"/>
    </contour>
  </outline>
</glyph>
<glyph name="A" format="1">
  <advance width="1241"/>
  <unicode hex="0041"/>
  <outline>
    <contour>
      <point x="932" y="0" type="line"/>
      <point x="1177" y="0" type="line"/>
      <point x="1148" y="67"/>
      <point x="1121" y="140"/>
      <point x="1068" y="297" type="curve" smooth="yes"/>
      <point x="759" y="1221" type="line"/>
      <point x="461" y="1221" type="line"/>
      <point x="152" y="297" type="line" smooth="yes"/>
      <point x="99" y="139"/>
      <point x="74" y="68"/>
      <point x="43" y="0" type="curve"/>
      <point x="293" y="0" type="line"/>
      <point x="385" y="297" type="line"/>
      <point x="839" y="297" type="line"/>
    </contour>
    <contour>
      <point x="610" y="1027" type="line"/>
      <point x="782" y="477" type="line"/>
      <point x="440" y="477" type="line"/>
    </contour>
    <contour>
      <point x="1250" y="0" type="move" name="O"/>
    </contour>
    <contour>
      <point x="1066" y="0" type="move" name="H"/>
    </contour>
    <contour>
      <point x="612" y="1279" type="move" name="U"/>
    </contour>
    <contour>
      <point x="612" y="-84" type="move" name="L"/>
    </contour>
  </outline>
</glyph>
<glyph name="LtnCapA" format="1">
  <advance width="1241"/>
  <unicode hex="0041"/>
  <outline>
    <contour>
      <point x="932" y="0" type="line"/>
      <point x="1177" y="0" type="line"/>
      <point x="1148" y="67"/>
      <point x="1121" y="140"/>
      <point x="1068" y="297" type="curve" smooth="yes"/>
      <point x="759" y="1221" type="line"/>
      <point x="461" y="1221" type="line"/>
      <point x="152" y="297" type="line" smooth="yes"/>
      <point x="99" y="139"/>
      <point x="74" y="68"/>
      <point x="43" y="0" type="curve"/>
      <point x="293" y="0" type="line"/>
      <point x="385" y="297" type="line"/>
      <point x="839" y="297" type="line"/>
    </contour>
    <contour>
      <point x="610" y="1027" type="line"/>
      <point x="782" y="477" type="line"/>
      <point x="440" y="477" type="line"/>
    </contour>
    <contour>
      <point x="612.0" y="1279.0" type="move" name="U"/>
    </contour>
    <contour>
      <point x="612.0" y="-84.0" type="move" name="L"/>
    </contour>
    <contour>
      <point x="1250.0" y="0.0" type="move" name="O"/>
    </contour>
    <contour>
      <point x="1066.0" y="0.0" type="move" name="H"/>
    </contour>
  </outline>
</glyph>
<glyph name="B" format="1">
  <advance width="1158"/>
  <unicode hex="0042"/>
  <outline>
    <contour>
      <point x="376" y="1043" type="line"/>
      <point x="407" y="1045"/>
      <point x="470" y="1048"/>
      <point x="528" y="1048" type="curve" smooth="yes"/>
      <point x="684" y="1048"/>
      <point x="750" y="1000"/>
      <point x="750" y="900" type="curve" smooth="yes"/>
      <point x="750" y="795"/>
      <point x="664" y="732"/>
      <point x="506" y="732" type="curve" smooth="yes"/>
      <point x="376" y="732" type="line"/>
    </contour>
    <contour>
      <point x="1041" y="359" type="curve" smooth="yes"/>
      <point x="1041" y="562"/>
      <point x="906" y="635"/>
      <point x="782" y="669" type="curve"/>
      <point x="890" y="711"/>
      <point x="978" y="792"/>
      <point x="978" y="928" type="curve" smooth="yes"/>
      <point x="978" y="1152"/>
      <point x="783" y="1229"/>
      <point x="514" y="1229" type="curve" smooth="yes"/>
      <point x="353" y="1229"/>
      <point x="207" y="1226"/>
      <point x="125" y="1221" type="curve"/>
      <point x="138" y="1154"/>
      <point x="138" y="1000"/>
      <point x="138" y="836" type="curve" smooth="yes"/>
      <point x="138" y="380" type="line" smooth="yes"/>
      <point x="138" y="215"/>
      <point x="138" y="67"/>
      <point x="125" y="0" type="curve"/>
      <point x="125" y="0"/>
      <point x="335" y="-8"/>
      <point x="528" y="-8" type="curve" smooth="yes"/>
      <point x="882" y="-8"/>
      <point x="1041" y="151"/>
    </contour>
    <contour>
      <point x="376" y="550" type="line"/>
      <point x="538" y="550" type="line" smooth="yes"/>
      <point x="713" y="550"/>
      <point x="813" y="491"/>
      <point x="813" y="376" type="curve" smooth="yes"/>
      <point x="813" y="225"/>
      <point x="691" y="180"/>
      <point x="545" y="180" type="curve" smooth="yes"/>
      <point x="461" y="180"/>
      <point x="404" y="182"/>
      <point x="376" y="184" type="curve"/>
    </contour>
    <contour>
      <point x="560" y="1279" type="move" name="U"/>
    </contour>
    <contour>
      <point x="560" y="-84" type="move" name="L"/>
    </contour>
  </outline>
</glyph>
<glyph name="LtnCapC" format="1">
  <advance width="1158"/>
  <unicode hex="0043"/>
  <outline>
    <contour>
      <point x="1016" y="339" type="line"/>
      <point x="924" y="245"/>
      <point x="786" y="184"/>
      <point x="660" y="184" type="curve" smooth="yes"/>
      <point x="444" y="184"/>
      <point x="314" y="345"/>
      <point x="314" y="614" type="curve" smooth="yes"/>
      <point x="314" y="898"/>
      <point x="466" y="1041"/>
      <point x="669" y="1041" type="curve" smooth="yes"/>
      <point x="778" y="1041"/>
      <point x="880" y="1007"/>
      <point x="986" y="924" type="curve"/>
      <point x="1045" y="1124" type="line"/>
      <point x="925" y="1211"/>
      <point x="810" y="1241"/>
      <point x="656" y="1241" type="curve" smooth="yes"/>
      <point x="345" y="1241"/>
      <point x="75" y="1024"/>
      <point x="75" y="594" type="curve" smooth="yes"/>
      <point x="75" y="217"/>
      <point x="285" y="-21"/>
      <point x="631" y="-21" type="curve" smooth="yes"/>
      <point x="774" y="-21"/>
      <point x="955" y="35"/>
      <point x="1058" y="117" type="curve"/>
    </contour>
    <contour>
      <point x="623.0" y="1279.0" type="move" name="U"/>
    </contour>
    <contour>
      <point x="623.0" y="-84.0" type="move" name="L"/>
    </contour>
    <contour>
      <point x="623.0" y="0.0" type="move" name="H"/>
    </contour>
  </outline>
</glyph>
<glyph name="E" format="1">
  <advance width="1013"/>
  <unicode hex="0045"/>
  <outline>
    <contour>
      <point x="376" y="732" type="line"/>
      <point x="376" y="1028" type="line"/>
      <point x="896" y="1028" type="line"/>
      <point x="896" y="1221" type="line"/>
      <point x="125" y="1221" type="line"/>
      <point x="138" y="1154"/>
      <point x="138" y="1022"/>
      <point x="138" y="857" type="curve" smooth="yes"/>
      <point x="138" y="364" type="line" smooth="yes"/>
      <point x="138" y="199"/>
      <point x="138" y="67"/>
      <point x="125" y="0" type="curve"/>
      <point x="921" y="0" type="line"/>
      <point x="921" y="205" type="line"/>
      <point x="856" y="193"/>
      <point x="752" y="192"/>
      <point x="592" y="192" type="curve" smooth="yes"/>
      <point x="376" y="192" type="line"/>
      <point x="376" y="543" type="line"/>
      <point x="833" y="543" type="line"/>
      <point x="833" y="732" type="line"/>
    </contour>
    <contour>
      <point x="839" y="0" type="move" name="O"/>
    </contour>
    <contour>
      <point x="510" y="0" type="move" name="H"/>
    </contour>
    <contour>
      <point x="1042" y="1003" type="move" name="R"/>
    </contour>
    <contour>
      <point x="510" y="1279" type="move" name="U"/>
    </contour>
    <contour>
      <point x="510" y="-84" type="move" name="L"/>
    </contour>
  </outline>
</glyph>
<glyph name="LtnCapE" format="1">
  <advance width="1013"/>
  <unicode hex="0045"/>
  <outline>
    <contour>
      <point x="376" y="732" type="line"/>
      <point x="376" y="1028" type="line"/>
      <point x="896" y="1028" type="line"/>
      <point x="896" y="1221" type="line"/>
      <point x="125" y="1221" type="line"/>
      <point x="138" y="1154"/>
      <point x="138" y="1022"/>
      <point x="138" y="857" type="curve" smooth="yes"/>
      <point x="138" y="364" type="line" smooth="yes"/>
      <point x="138" y="199"/>
      <point x="138" y="67"/>
      <point x="125" y="0" type="curve"/>
      <point x="921" y="0" type="line"/>
      <point x="921" y="205" type="line"/>
      <point x="856" y="193"/>
      <point x="752" y="192"/>
      <point x="592" y="192" type="curve" smooth="yes"/>
      <point x="376" y="192" type="line"/>
      <point x="376" y="543" type="line"/>
      <point x="833" y="543" type="line"/>
      <point x="833" y="732" type="line"/>
    </contour>
    <contour>
      <point x="510.0" y="1279.0" type="move" name="U"/>
    </contour>
    <contour>
      <point x="510.0" y="-84.0" type="move" name="L"/>
    </contour>
    <contour>
      <point x="839.0" y="0.0" type="move" name="O"/>
    </contour>
    <contour>
      <point x="510.0" y="0.0" type="move" name="H"/>
    </contour>
    <contour>
      <point x="1042.0" y="1003.0" type="move" name="R"/>
    </contour>
  </outline>
</glyph>
<glyph name="F" format="1">
  <advance width="1003"/>
  <unicode hex="0046"/>
  <outline>
    <contour>
      <point x="376" y="719" type="line"/>
      <point x="376" y="1028" type="line"/>
      <point x="911" y="1028" type="line"/>
      <point x="911" y="1221" type="line"/>
      <point x="125" y="1221" type="line"/>
      <point x="138" y="1154"/>
      <point x="138" y="1017"/>
      <point x="138" y="853" type="curve" smooth="yes"/>
      <point x="138" y="364" type="line" smooth="yes"/>
      <point x="138" y="199"/>
      <point x="138" y="67"/>
      <point x="125" y="0" type="curve"/>
      <point x="389" y="0" type="line"/>
      <point x="376" y="61"/>
      <point x="376" y="186"/>
      <point x="376" y="341" type="curve" smooth="yes"/>
      <point x="376" y="531" type="line"/>
      <point x="840" y="531" type="line"/>
      <point x="840" y="719" type="line"/>
    </contour>
    <contour>
      <point x="527" y="1279" type="move" name="U"/>
    </contour>
    <contour>
      <point x="527" y="-84" type="move" name="L"/>
    </contour>
  </outline>
</glyph>
<glyph name="LtnCapF" format="1">
  <advance width="1003"/>
  <unicode hex="0046"/>
  <outline>
    <contour>
      <point x="376" y="719" type="line"/>
      <point x="376" y="1028" type="line"/>
      <point x="911" y="1028" type="line"/>
      <point x="911" y="1221" type="line"/>
      <point x="125" y="1221" type="line"/>
      <point x="138" y="1154"/>
      <point x="138" y="1017"/>
      <point x="138" y="853" type="curve" smooth="yes"/>
      <point x="138" y="364" type="line" smooth="yes"/>
      <point x="138" y="199"/>
      <point x="138" y="67"/>
      <point x="125" y="0" type="curve"/>
      <point x="389" y="0" type="line"/>
      <point x="376" y="61"/>
      <point x="376" y="186"/>
      <point x="376" y="341" type="curve" smooth="yes"/>
      <point x="376" y="531" type="line"/>
      <point x="840" y="531" type="line"/>
      <point x="840" y="719" type="line"/>
    </contour>
    <contour>
      <point x="527.0" y="1279.0" type="move" name="U"/>
    </contour>
    <contour>
      <point x="527.0" y="-84.0" type="move" name="L"/>
    </contour>
  </outline>
</glyph>
<glyph name="G" format="1">
  <advance width="1231"/>
  <unicode hex="0047"/>
  <outline>
    <contour>
      <point x="1118" y="656" type="line"/>
      <point x="641" y="656" type="line"/>
      <point x="641" y="468" type="line"/>
      <point x="905" y="468" type="line"/>
      <point x="905" y="246" type="line"/>
      <point x="808" y="197"/>
      <point x="738" y="184"/>
      <point x="643" y="184" type="curve" smooth="yes"/>
      <point x="445" y="184"/>
      <point x="314" y="351"/>
      <point x="314" y="623" type="curve" smooth="yes"/>
      <point x="314" y="876"/>
      <point x="456" y="1041"/>
      <point x="677" y="1041" type="curve" smooth="yes"/>
      <point x="797" y="1041"/>
      <point x="917" y="1007"/>
      <point x="1033" y="925" type="curve"/>
      <point x="1105" y="1124" type="line"/>
      <point x="951" y="1222"/>
      <point x="827" y="1241"/>
      <point x="684" y="1241" type="curve" smooth="yes"/>
      <point x="337" y="1241"/>
      <point x="75" y="1002"/>
      <point x="75" y="602" type="curve" smooth="yes"/>
      <point x="75" y="201"/>
      <point x="315" y="-21"/>
      <point x="650" y="-21" type="curve" smooth="yes"/>
      <point x="803" y="-21"/>
      <point x="936" y="9"/>
      <point x="1118" y="130" type="curve"/>
    </contour>
    <contour>
      <point x="675" y="1279" type="move" name="U"/>
    </contour>
    <contour>
      <point x="675" y="-84" type="move" name="L"/>
    </contour>
    <contour>
      <point x="675" y="0" type="move" name="H"/>
    </contour>
  </outline>
</glyph>
<glyph name="I" format="1">
  <advance width="874"/>
  <unicode hex="0049"/>
  <outline>
    <contour>
      <point x="109" y="1221" type="line"/>
      <point x="109" y="1049" type="line"/>
      <point x="309" y="1049" type="line"/>
      <point x="309" y="171" type="line"/>
      <point x="109" y="171" type="line"/>
      <point x="109" y="0" type="line"/>
      <point x="748" y="0" type="line"/>
      <point x="748" y="171" type="line"/>
      <point x="548" y="171" type="line"/>
      <point x="548" y="1049" type="line"/>
      <point x="748" y="1049" type="line"/>
      <point x="748" y="1221" type="line"/>
    </contour>
    <contour>
      <point x="595" y="0" type="move" name="O"/>
    </contour>
    <contour>
      <point x="435" y="0" type="move" name="H"/>
    </contour>
    <contour>
      <point x="848" y="1003" type="move" name="R"/>
    </contour>
    <contour>
      <point x="435" y="1279" type="move" name="U"/>
    </contour>
    <contour>
      <point x="431" y="-84" type="move" name="L"/>
    </contour>
  </outline>
</glyph>
<glyph name="LtnCapI" format="1">
  <advance width="874"/>
  <unicode hex="0049"/>
  <outline>
    <contour>
      <point x="109" y="1221" type="line"/>
      <point x="109" y="1049" type="line"/>
      <point x="309" y="1049" type="line"/>
      <point x="309" y="171" type="line"/>
      <point x="109" y="171" type="line"/>
      <point x="109" y="0" type="line"/>
      <point x="748" y="0" type="line"/>
      <point x="748" y="171" type="line"/>
      <point x="548" y="171" type="line"/>
      <point x="548" y="1049" type="line"/>
      <point x="748" y="1049" type="line"/>
      <point x="748" y="1221" type="line"/>
    </contour>
    <contour>
      <point x="435.0" y="1279.0" type="move" name="U"/>
    </contour>
    <contour>
      <point x="431.0" y="-84.0" type="move" name="L"/>
    </contour>
    <contour>
      <point x="595.0" y="0.0" type="move" name="O"/>
    </contour>
    <contour>
      <point x="435.0" y="0.0" type="move" name="H"/>
    </contour>
    <contour>
      <point x="848.0" y="1003.0" type="move" name="R"/>
    </contour>
  </outline>
</glyph>
<glyph name="J" format="1">
  <advance width="861"/>
  <unicode hex="004A"/>
  <outline>
    <contour>
      <point x="464" y="1221" type="line"/>
      <point x="475" y="1132"/>
      <point x="477" y="982"/>
      <point x="477" y="819" type="curve" smooth="yes"/>
      <point x="477" y="466" type="line" smooth="yes"/>
      <point x="477" y="320"/>
      <point x="451" y="190"/>
      <point x="305" y="190" type="curve" smooth="yes"/>
      <point x="221" y="190"/>
      <point x="128" y="226"/>
      <point x="66" y="290" type="curve"/>
      <point x="25" y="75" type="line"/>
      <point x="91" y="8"/>
      <point x="216" y="-21"/>
      <point x="303" y="-21" type="curve" smooth="yes"/>
      <point x="550" y="-21"/>
      <point x="715" y="108"/>
      <point x="715" y="447" type="curve" smooth="yes"/>
      <point x="715" y="517"/>
      <point x="715" y="1221"/>
      <point x="715" y="1221" type="curve"/>
    </contour>
    <contour>
      <point x="589" y="1279" type="move" name="U"/>
    </contour>
    <contour>
      <point x="347" y="-84" type="move" name="L"/>
    </contour>
  </outline>
</glyph>
<glyph name="K" format="1">
  <advance width="1195"/>
  <unicode hex="004B"/>
  <outline>
    <contour>
      <point x="789" y="1221" type="line"/>
      <point x="310" y="612" type="line"/>
      <point x="484" y="565" type="line"/>
      <point x="1070" y="1221" type="line"/>
    </contour>
    <contour>
      <point x="325" y="611" type="line"/>
      <point x="828" y="0" type="line"/>
      <point x="1137" y="0" type="line"/>
      <point x="513" y="693" type="line"/>
    </contour>
    <contour>
      <point x="376" y="1221" type="line"/>
      <point x="125" y="1221" type="line"/>
      <point x="138" y="1154"/>
      <point x="138" y="1022"/>
      <point x="138" y="857" type="curve" smooth="yes"/>
      <point x="138" y="364" type="line" smooth="yes"/>
      <point x="138" y="199"/>
      <point x="138" y="67"/>
      <point x="125" y="0" type="curve"/>
      <point x="376" y="0" type="line"/>
    </contour>
    <contour>
      <point x="606" y="1279" type="move" name="U"/>
    </contour>
    <contour>
      <point x="619" y="-84" type="move" name="L"/>
    </contour>
    <contour>
      <point x="268" y="0" type="move" name="H"/>
    </contour>
  </outline>
</glyph>
<glyph name="LtnCapK" format="1">
  <advance width="1195"/>
  <unicode hex="004B"/>
  <outline>
    <contour>
      <point x="789" y="1221" type="line"/>
      <point x="310" y="612" type="line"/>
      <point x="484" y="565" type="line"/>
      <point x="1070" y="1221" type="line"/>
    </contour>
    <contour>
      <point x="325" y="611" type="line"/>
      <point x="828" y="0" type="line"/>
      <point x="1137" y="0" type="line"/>
      <point x="513" y="693" type="line"/>
    </contour>
    <contour>
      <point x="376" y="1221" type="line"/>
      <point x="125" y="1221" type="line"/>
      <point x="138" y="1154"/>
      <point x="138" y="1022"/>
      <point x="138" y="857" type="curve" smooth="yes"/>
      <point x="138" y="364" type="line" smooth="yes"/>
      <point x="138" y="199"/>
      <point x="138" y="67"/>
      <point x="125" y="0" type="curve"/>
      <point x="376" y="0" type="line"/>
    </contour>
    <contour>
      <point x="606.0" y="1279.0" type="move" name="U"/>
    </contour>
    <contour>
      <point x="619.0" y="-84.0" type="move" name="L"/>
    </contour>
    <contour>
      <point x="268.0" y="0.0" type="move" name="H"/>
    </contour>
  </outline>
</glyph>
<glyph name="L" format="1">
  <advance width="945"/>
  <unicode hex="004C"/>
  <outline>
    <contour>
      <point x="376" y="192" type="line"/>
      <point x="376" y="1221" type="line"/>
      <point x="125" y="1221" type="line"/>
      <point x="138" y="1154"/>
      <point x="138" y="1022"/>
      <point x="138" y="857" type="curve" smooth="yes"/>
      <point x="138" y="364" type="line" smooth="yes"/>
      <point x="138" y="199"/>
      <point x="138" y="67"/>
      <point x="125" y="0" type="curve"/>
      <point x="907" y="0" type="line"/>
      <point x="907" y="205" type="line"/>
      <point x="843" y="193"/>
      <point x="715" y="192"/>
      <point x="557" y="192" type="curve" smooth="yes"/>
    </contour>
    <contour>
      <point x="518" y="0" type="move" name="H"/>
    </contour>
    <contour>
      <point x="543" y="1003" type="move" name="R"/>
    </contour>
    <contour>
      <point x="518" y="1279" type="move" name="U"/>
    </contour>
    <contour>
      <point x="518" y="-84" type="move" name="L"/>
    </contour>
  </outline>
</glyph>
<glyph name="M" format="1">
  <advance width="1551"/>
  <unicode hex="004D"/>
  <outline>
    <contour>
      <point x="767" y="230" type="line"/>
      <point x="481" y="1221" type="line"/>
      <point x="263" y="1221" type="line"/>
      <point x="364" y="978" type="line"/>
      <point x="644" y="0" type="line"/>
      <point x="890" y="0" type="line"/>
      <point x="1168" y="978" type="line"/>
      <point x="1268" y="1221" type="line"/>
      <point x="1053" y="1221" type="line"/>
    </contour>
    <contour>
      <point x="184" y="1221" type="line"/>
      <point x="184" y="1221"/>
      <point x="147" y="166"/>
      <point x="125" y="0" type="curve"/>
      <point x="351" y="0" type="line"/>
      <point x="375" y="1007" type="line"/>
      <point x="405" y="1221" type="line"/>
    </contour>
    <contour>
      <point x="1404" y="0" type="line"/>
      <point x="1380" y="166"/>
      <point x="1346" y="1221"/>
      <point x="1346" y="1221" type="curve"/>
      <point x="1120" y="1221" type="line"/>
      <point x="1158" y="1007" type="line"/>
      <point x="1179" y="0" type="line"/>
    </contour>
    <contour>
      <point x="765" y="1279" type="move" name="U"/>
    </contour>
    <contour>
      <point x="765" y="-84" type="move" name="L"/>
    </contour>
  </outline>
</glyph>
<glyph name="LtnCapN" format="1">
  <advance width="1292"/>
  <unicode hex="004E"/>
  <outline>
    <contour>
      <point x="186" y="1095" type="line"/>
      <point x="915" y="0" type="line"/>
      <point x="1084" y="125" type="line"/>
      <point x="355" y="1221" type="line"/>
    </contour>
    <contour>
      <point x="915" y="0" type="line"/>
      <point x="1133" y="0" type="line"/>
      <point x="1133" y="857" type="line" smooth="yes"/>
      <point x="1133" y="1022"/>
      <point x="1134" y="1154"/>
      <point x="1145" y="1221" type="curve"/>
      <point x="915" y="1221" type="line"/>
    </contour>
    <contour>
      <point x="355" y="1221" type="line"/>
      <point x="125" y="1221" type="line"/>
      <point x="138" y="1154"/>
      <point x="138" y="1022"/>
      <point x="138" y="857" type="curve" smooth="yes"/>
      <point x="138" y="364" type="line" smooth="yes"/>
      <point x="138" y="199"/>
      <point x="138" y="67"/>
      <point x="125" y="0" type="curve"/>
      <point x="355" y="0" type="line"/>
    </contour>
    <contour>
      <point x="640.0" y="1279.0" type="move" name="U"/>
    </contour>
    <contour>
      <point x="640.0" y="-84.0" type="move" name="L"/>
    </contour>
    <contour>
      <point x="1037.0" y="0.0" type="move" name="H"/>
    </contour>
  </outline>
</glyph>
<glyph name="LtnCapO" format="1">
  <advance width="1254.0"/>
  <unicode hex="004F"/>
  <outline>
    <contour>
      <point x="920" y="598" type="curve" smooth="yes"/>
      <point x="920" y="338"/>
      <point x="786" y="184"/>
      <point x="619" y="184" type="curve" smooth="yes"/>
      <point x="438" y="184"/>
      <point x="314" y="354"/>
      <point x="314" y="623" type="curve" smooth="yes"/>
      <point x="314" y="876"/>
      <point x="442" y="1037"/>
      <point x="619" y="1037" type="curve" smooth="yes"/>
      <point x="795" y="1037"/>
      <point x="920" y="870"/>
    </contour>
    <contour>
      <point x="1158" y="619" type="curve" smooth="yes"/>
      <point x="1158" y="1019"/>
      <point x="912" y="1241"/>
      <point x="627" y="1241" type="curve" smooth="yes"/>
      <point x="338" y="1241"/>
      <point x="75" y="1002"/>
      <point x="75" y="602" type="curve" smooth="yes"/>
      <point x="75" y="201"/>
      <point x="322" y="-21"/>
      <point x="610" y="-21" type="curve" smooth="yes"/>
      <point x="896" y="-21"/>
      <point x="1158" y="217"/>
    </contour>
    <contour>
      <point x="619.0" y="1279.0" type="move" name="U"/>
    </contour>
    <contour>
      <point x="619.0" y="-84.0" type="move" name="L"/>
    </contour>
    <contour>
      <point x="1237.0" y="1003.0" type="move" name="R"/>
    </contour>
    <contour>
      <point x="816.0" y="0.0" type="move" name="O"/>
    </contour>
    <contour>
      <point x="619.0" y="0.0" type="move" name="H"/>
    </contour>
  </outline>
</glyph>
<glyph name="P" format="1">
  <advance width="1066"/>
  <unicode hex="0050"/>
  <outline>
    <contour>
      <point x="376" y="437" type="line"/>
      <point x="431" y="431"/>
      <point x="481" y="429"/>
      <point x="542" y="429" type="curve" smooth="yes"/>
      <point x="817" y="429"/>
      <point x="1003" y="587"/>
      <point x="1003" y="844" type="curve" smooth="yes"/>
      <point x="1003" y="1100"/>
      <point x="820" y="1229"/>
      <point x="550" y="1229" type="curve" smooth="yes"/>
      <point x="372" y="1229"/>
      <point x="125" y="1221"/>
      <point x="125" y="1221" type="curve"/>
      <point x="138" y="1154"/>
      <point x="138" y="1000"/>
      <point x="138" y="836" type="curve" smooth="yes"/>
      <point x="138" y="364" type="line" smooth="yes"/>
      <point x="138" y="199"/>
      <point x="138" y="67"/>
      <point x="125" y="0" type="curve"/>
      <point x="389" y="0" type="line"/>
      <point x="377" y="65"/>
      <point x="376" y="198"/>
      <point x="376" y="364" type="curve" smooth="yes"/>
    </contour>
    <contour>
      <point x="376" y="1037" type="line"/>
      <point x="423" y="1039"/>
      <point x="455" y="1041"/>
      <point x="520" y="1041" type="curve" smooth="yes"/>
      <point x="696" y="1041"/>
      <point x="765" y="957"/>
      <point x="765" y="836" type="curve" smooth="yes"/>
      <point x="765" y="686"/>
      <point x="678" y="610"/>
      <point x="517" y="610" type="curve" smooth="yes"/>
      <point x="465" y="610"/>
      <point x="412" y="613"/>
      <point x="376" y="619" type="curve"/>
    </contour>
    <contour>
      <point x="573" y="1279" type="move" name="U"/>
    </contour>
    <contour>
      <point x="573" y="-84" type="move" name="L"/>
    </contour>
  </outline>
</glyph>
<glyph name="S" format="1">
  <advance width="1039"/>
  <unicode hex="0053"/>
  <outline>
    <contour>
      <point x="899" y="1166" type="line"/>
      <point x="779" y="1219"/>
      <point x="677" y="1241"/>
      <point x="535" y="1241" type="curve" smooth="yes"/>
      <point x="234" y="1241"/>
      <point x="109" y="1036"/>
      <point x="109" y="886" type="curve" smooth="yes"/>
      <point x="109" y="737"/>
      <point x="164" y="630"/>
      <point x="426" y="548" type="curve" smooth="yes"/>
      <point x="669" y="471"/>
      <point x="711" y="421"/>
      <point x="711" y="351" type="curve" smooth="yes"/>
      <point x="711" y="245"/>
      <point x="610" y="184"/>
      <point x="502" y="184" type="curve" smooth="yes"/>
      <point x="367" y="184"/>
      <point x="237" y="226"/>
      <point x="117" y="322" type="curve"/>
      <point x="75" y="92" type="line"/>
      <point x="168" y="26"/>
      <point x="327" y="-21"/>
      <point x="502" y="-21" type="curve" smooth="yes"/>
      <point x="748" y="-21"/>
      <point x="951" y="141"/>
      <point x="951" y="380" type="curve" smooth="yes"/>
      <point x="951" y="557"/>
      <point x="831" y="658"/>
      <point x="608" y="727" type="curve" smooth="yes"/>
      <point x="388" y="796"/>
      <point x="348" y="831"/>
      <point x="348" y="903" type="curve" smooth="yes"/>
      <point x="348" y="971"/>
      <point x="423" y="1041"/>
      <point x="527" y="1041" type="curve" smooth="yes"/>
      <point x="645" y="1041"/>
      <point x="730" y="1011"/>
      <point x="861" y="945" type="curve"/>
    </contour>
    <contour>
      <point x="515" y="1279" type="move" name="U"/>
    </contour>
    <contour>
      <point x="515" y="-84" type="move" name="L"/>
    </contour>
    <contour>
      <point x="515" y="0" type="move" name="H"/>
    </contour>
  </outline>
</glyph>
<glyph name="LtnCapT" format="1">
  <advance width="1066"/>
  <unicode hex="0054"/>
  <outline>
    <contour>
      <point x="38" y="1221" type="line"/>
      <point x="38" y="1012" type="line"/>
      <point x="98" y="1026"/>
      <point x="164" y="1028"/>
      <point x="231" y="1028" type="curve" smooth="yes"/>
      <point x="408" y="1028" type="line"/>
      <point x="408" y="345" type="line" smooth="yes"/>
      <point x="408" y="189"/>
      <point x="405" y="64"/>
      <point x="391" y="0" type="curve"/>
      <point x="663" y="0" type="line"/>
      <point x="649" y="64"/>
      <point x="646" y="189"/>
      <point x="646" y="345" type="curve" smooth="yes"/>
      <point x="646" y="1028" type="line"/>
      <point x="827" y="1028" type="line" smooth="yes"/>
      <point x="895" y="1028"/>
      <point x="960" y="1026"/>
      <point x="1020" y="1012" type="curve"/>
      <point x="1020" y="1221" type="line"/>
    </contour>
    <contour>
      <point x="528.0" y="1279.0" type="move" name="U"/>
    </contour>
    <contour>
      <point x="528.0" y="-84.0" type="move" name="L"/>
    </contour>
    <contour>
      <point x="528.0" y="0.0" type="move" name="H"/>
    </contour>
  </outline>
</glyph>
<glyph name="LtnCapU" format="1">
  <advance width="1246"/>
  <unicode hex="0055"/>
  <outline>
    <contour>
      <point x="849" y="1221" type="line"/>
      <point x="849" y="468" type="line" smooth="yes"/>
      <point x="849" y="288"/>
      <point x="796" y="171"/>
      <point x="614" y="171" type="curve" smooth="yes"/>
      <point x="429" y="171"/>
      <point x="376" y="288"/>
      <point x="376" y="468" type="curve" smooth="yes"/>
      <point x="376" y="1221" type="line"/>
      <point x="125" y="1221" type="line"/>
      <point x="137" y="1154"/>
      <point x="138" y="1022"/>
      <point x="138" y="857" type="curve" smooth="yes"/>
      <point x="138" y="431" type="line" smooth="yes"/>
      <point x="138" y="159"/>
      <point x="298" y="-21"/>
      <point x="614" y="-21" type="curve" smooth="yes"/>
      <point x="928" y="-21"/>
      <point x="1087" y="159"/>
      <point x="1087" y="431" type="curve" smooth="yes"/>
      <point x="1087" y="857" type="line" smooth="yes"/>
      <point x="1087" y="1030"/>
      <point x="1088" y="1154"/>
      <point x="1099" y="1221" type="curve"/>
    </contour>
    <contour>
      <point x="612.0" y="1279.0" type="move" name="U"/>
    </contour>
    <contour>
      <point x="612.0" y="-84.0" type="move" name="L"/>
    </contour>
    <contour>
      <point x="1237.0" y="1003.0" type="move" name="R"/>
    </contour>
    <contour>
      <point x="794.0" y="0.0" type="move" name="O"/>
    </contour>
    <contour>
      <point x="612.0" y="0.0" type="move" name="H"/>
    </contour>
  </outline>
</glyph>
<glyph name="LtnCapV" format="1">
  <advance width="1225"/>
  <unicode hex="0056"/>
  <outline>
    <contour>
      <point x="932" y="1221" type="line"/>
      <point x="604" y="217" type="line"/>
      <point x="276" y="1221" type="line"/>
      <point x="21" y="1221" type="line"/>
      <point x="48" y="1152"/>
      <point x="80" y="1077"/>
      <point x="138" y="915" type="curve" smooth="yes"/>
      <point x="464" y="0" type="line"/>
      <point x="744" y="0" type="line"/>
      <point x="1070" y="915" type="line" smooth="yes"/>
      <point x="1127" y="1078"/>
      <point x="1157" y="1152"/>
      <point x="1187" y="1221" type="curve"/>
    </contour>
    <contour>
      <point x="604.0" y="1279.0" type="move" name="U"/>
    </contour>
    <contour>
      <point x="604.0" y="-84.0" type="move" name="L"/>
    </contour>
    <contour>
      <point x="777.0" y="0.0" type="move" name="O"/>
    </contour>
    <contour>
      <point x="610.0" y="0.0" type="move" name="H"/>
    </contour>
  </outline>
</glyph>
<glyph name="X" format="1">
  <advance width="1141"/>
  <unicode hex="0058"/>
  <outline>
    <contour>
      <point x="828" y="0" type="line"/>
      <point x="1095" y="0" type="line"/>
      <point x="1044" y="69"/>
      <point x="1012" y="105"/>
      <point x="905" y="281" type="curve" smooth="yes"/>
      <point x="334" y="1221" type="line"/>
      <point x="63" y="1221" type="line"/>
      <point x="116" y="1150"/>
      <point x="158" y="1101"/>
      <point x="263" y="928" type="curve"/>
    </contour>
    <contour>
      <point x="506" y="792" type="line"/>
      <point x="213" y="284" type="line" smooth="yes"/>
      <point x="111" y="107"/>
      <point x="78" y="72"/>
      <point x="25" y="0" type="curve"/>
      <point x="293" y="0" type="line"/>
      <point x="585" y="509" type="line"/>
    </contour>
    <contour>
      <point x="627" y="509" type="line"/>
      <point x="869" y="928" type="line" smooth="yes"/>
      <point x="964" y="1092"/>
      <point x="1012" y="1156"/>
      <point x="1066" y="1221" type="curve"/>
      <point x="794" y="1221" type="line"/>
      <point x="548" y="792" type="line"/>
    </contour>
    <contour>
      <point x="560" y="1279" type="move" name="U"/>
    </contour>
    <contour>
      <point x="560" y="-84" type="move" name="L"/>
    </contour>
  </outline>
</glyph>
<glyph name="bracketright" format="1">
  <advance width="633"/>
  <unicode hex="005D"/>
  <outline>
    <contour>
      <point x="402" y="1433" type="line"/>
      <point x="402" y="-415" type="line"/>
      <point x="60" y="-415" type="line"/>
      <point x="60" y="-332" type="line"/>
      <point x="285" y="-332" type="line"/>
      <point x="285" y="1354" type="line"/>
      <point x="60" y="1354" type="line"/>
      <point x="60" y="1433" type="line"/>
    </contour>
  </outline>
</glyph>
<glyph name="underscore" format="1">
  <advance width="921"/>
  <unicode hex="005F"/>
  <outline>
    <contour>
      <point x="921" y="-150" type="line"/>
      <point x="921" y="-230" type="line"/>
      <point x="0" y="-230" type="line"/>
      <point x="0" y="-150" type="line"/>
    </contour>
  </outline>
</glyph>
<glyph name="grave" format="1">
  <advance width="535"/>
  <unicode hex="0060"/>
  <outline>
    <contour>
      <point x="0" y="1338" type="line"/>
      <point x="334" y="1003" type="line"/>
      <point x="535" y="1003" type="line"/>
      <point x="293" y="1338" type="line"/>
    </contour>
    <contour>
      <point x="418" y="1367" type="move" name="U"/>
    </contour>
  </outline>
</glyph>
<glyph name="a" format="1">
  <advance width="1007"/>
  <unicode hex="0061"/>
  <outline>
    <contour>
      <point x="936" y="0" type="line"/>
      <point x="901" y="94"/>
      <point x="878" y="189"/>
      <point x="878" y="309" type="curve"/>
      <point x="878" y="635" type="line"/>
      <point x="878" y="768"/>
      <point x="733" y="869"/>
      <point x="514" y="869" type="curve" smooth="yes"/>
      <point x="373" y="869"/>
      <point x="275" y="831"/>
      <point x="180" y="794" type="curve"/>
      <point x="175" y="726"/>
      <point x="172" y="614"/>
      <point x="171" y="578" type="curve"/>
      <point x="269" y="646"/>
      <point x="354" y="682"/>
      <point x="443" y="682" type="curve" smooth="yes"/>
      <point x="568" y="682"/>
      <point x="644" y="656"/>
      <point x="644" y="594" type="curve" smooth="yes"/>
      <point x="644" y="552" type="line"/>
      <point x="609" y="551"/>
      <point x="476" y="543"/>
      <point x="418" y="537" type="curve" smooth="yes"/>
      <point x="160" y="512"/>
      <point x="84" y="366"/>
      <point x="84" y="238" type="curve" smooth="yes"/>
      <point x="84" y="101"/>
      <point x="205" y="-21"/>
      <point x="372" y="-21" type="curve" smooth="yes"/>
      <point x="470" y="-21"/>
      <point x="575" y="19"/>
      <point x="669" y="113" type="curve"/>
      <point x="681" y="66"/>
      <point x="701" y="23"/>
      <point x="711" y="0" type="curve"/>
    </contour>
    <contour>
      <point x="644" y="297" type="line"/>
      <point x="563" y="188"/>
      <point x="502" y="171"/>
      <point x="433" y="171" type="curve" smooth="yes"/>
      <point x="364" y="171"/>
      <point x="318" y="214"/>
      <point x="318" y="268" type="curve" smooth="yes"/>
      <point x="318" y="323"/>
      <point x="353" y="370"/>
      <point x="468" y="382" type="curve" smooth="yes"/>
      <point x="511" y="387"/>
      <point x="610" y="396"/>
      <point x="644" y="397" type="curve"/>
    </contour>
    <contour>
      <point x="991" y="0" type="move" name="O"/>
    </contour>
    <contour>
      <point x="823" y="0" type="move" name="H"/>
    </contour>
    <contour>
      <point x="957" y="836" type="move" name="R"/>
    </contour>
    <contour>
      <point x="510" y="920" type="move" name="U"/>
    </contour>
    <contour>
      <point x="510" y="-84" type="move" name="L"/>
    </contour>
  </outline>
</glyph>
<glyph name="LtnSmC" format="1">
  <advance width="854"/>
  <unicode hex="0063"/>
  <outline>
    <contour>
      <point x="771" y="810" type="line"/>
      <point x="710" y="842"/>
      <point x="622" y="869"/>
      <point x="512" y="869" type="curve" smooth="yes"/>
      <point x="247" y="869"/>
      <point x="75" y="670"/>
      <point x="75" y="410" type="curve" smooth="yes"/>
      <point x="75" y="135"/>
      <point x="258" y="-21"/>
      <point x="483" y="-21" type="curve" smooth="yes"/>
      <point x="608" y="-21"/>
      <point x="695" y="7"/>
      <point x="779" y="59" type="curve"/>
      <point x="754" y="263" type="line"/>
      <point x="681" y="205"/>
      <point x="616" y="171"/>
      <point x="516" y="171" type="curve" smooth="yes"/>
      <point x="390" y="171"/>
      <point x="309" y="271"/>
      <point x="309" y="418" type="curve" smooth="yes"/>
      <point x="309" y="580"/>
      <point x="400" y="677"/>
      <point x="516" y="677" type="curve" smooth="yes"/>
      <point x="602" y="677"/>
      <point x="659" y="651"/>
      <point x="734" y="599" type="curve"/>
    </contour>
    <contour>
      <point x="481.0" y="920.0" type="move" name="U"/>
    </contour>
    <contour>
      <point x="481.0" y="-84.0" type="move" name="L"/>
    </contour>
    <contour>
      <point x="464.0" y="0.0" type="move" name="H"/>
    </contour>
    <contour>
      <point x="853.0" y="836.0" type="move" name="R"/>
    </contour>
  </outline>
</glyph>
<glyph name="LtnSmD" format="1">
  <advance width="1058"/>
  <unicode hex="0064"/>
  <outline>
    <contour>
      <point x="932" y="1338" type="line"/>
      <point x="677" y="1338" type="line"/>
      <point x="693" y="1267"/>
      <point x="698" y="1166"/>
      <point x="698" y="1032" type="curve" smooth="yes"/>
      <point x="698" y="798" type="line"/>
      <point x="638" y="835"/>
      <point x="559" y="869"/>
      <point x="493" y="869" type="curve" smooth="yes"/>
      <point x="267" y="869"/>
      <point x="84" y="681"/>
      <point x="84" y="385" type="curve" smooth="yes"/>
      <point x="84" y="140"/>
      <point x="224" y="-21"/>
      <point x="431" y="-21" type="curve" smooth="yes"/>
      <point x="547" y="-21"/>
      <point x="644" y="39"/>
      <point x="719" y="146" type="curve"/>
      <point x="733" y="88"/>
      <point x="752" y="27"/>
      <point x="765" y="0" type="curve"/>
      <point x="995" y="0" type="line"/>
      <point x="959" y="94"/>
      <point x="932" y="232"/>
      <point x="932" y="443" type="curve" smooth="yes"/>
    </contour>
    <contour>
      <point x="698" y="334" type="line"/>
      <point x="658" y="251"/>
      <point x="565" y="167"/>
      <point x="477" y="167" type="curve" smooth="yes"/>
      <point x="370" y="167"/>
      <point x="318" y="251"/>
      <point x="318" y="410" type="curve" smooth="yes"/>
      <point x="318" y="573"/>
      <point x="405" y="669"/>
      <point x="493" y="669" type="curve" smooth="yes"/>
      <point x="571" y="669"/>
      <point x="621" y="655"/>
      <point x="698" y="617" type="curve"/>
    </contour>
    <contour>
      <point x="510.0" y="1367.0" type="move" name="U"/>
    </contour>
    <contour>
      <point x="497.0" y="-84.0" type="move" name="L"/>
    </contour>
    <contour>
      <point x="1074.0" y="836.0" type="move" name="R"/>
    </contour>
    <contour>
      <point x="497.0" y="0.0" type="move" name="H"/>
    </contour>
  </outline>
</glyph>
<glyph name="e" format="1">
  <advance width="928"/>
  <unicode hex="0065"/>
  <outline>
    <contour>
      <point x="844" y="376" type="line"/>
      <point x="844" y="392"/>
      <point x="844" y="429"/>
      <point x="844" y="445" type="curve" smooth="yes"/>
      <point x="844" y="654"/>
      <point x="772" y="869"/>
      <point x="492" y="869" type="curve" smooth="yes"/>
      <point x="235" y="869"/>
      <point x="75" y="691"/>
      <point x="75" y="414" type="curve" smooth="yes"/>
      <point x="75" y="130"/>
      <point x="271" y="-21"/>
      <point x="492" y="-21" type="curve" smooth="yes"/>
      <point x="623" y="-21"/>
      <point x="728" y="2"/>
      <point x="849" y="63" type="curve"/>
      <point x="831" y="256" type="line"/>
      <point x="727" y="194"/>
      <point x="623" y="171"/>
      <point x="513" y="171" type="curve" smooth="yes"/>
      <point x="375" y="171"/>
      <point x="303" y="245"/>
      <point x="303" y="422" type="curve" smooth="yes"/>
      <point x="303" y="618"/>
      <point x="360" y="694"/>
      <point x="481" y="694" type="curve" smooth="yes"/>
      <point x="579" y="694"/>
      <point x="631" y="644"/>
      <point x="631" y="527" type="curve"/>
      <point x="202" y="527" type="line"/>
      <point x="202" y="376" type="line"/>
    </contour>
    <contour>
      <point x="752" y="0" type="move" name="O"/>
    </contour>
    <contour>
      <point x="476" y="0" type="move" name="H"/>
    </contour>
    <contour>
      <point x="945" y="836" type="move" name="R"/>
    </contour>
    <contour>
      <point x="449" y="920" type="move" name="U"/>
    </contour>
    <contour>
      <point x="492" y="-84" type="move" name="L"/>
    </contour>
  </outline>
</glyph>
<glyph name="LtnSmF" format="1">
  <advance width="669"/>
  <unicode hex="0066"/>
  <outline>
    <contour>
      <point x="25" y="673" type="line"/>
      <point x="192" y="673" type="line"/>
      <point x="192" y="0" type="line"/>
      <point x="451" y="0" type="line"/>
      <point x="433" y="88"/>
      <point x="426" y="251"/>
      <point x="426" y="413" type="curve" smooth="yes"/>
      <point x="426" y="673" type="line"/>
      <point x="640" y="673" type="line"/>
      <point x="640" y="840" type="line"/>
      <point x="426" y="840" type="line"/>
      <point x="426" y="969" type="line" smooth="yes"/>
      <point x="426" y="1105"/>
      <point x="461" y="1160"/>
      <point x="542" y="1160" type="curve" smooth="yes"/>
      <point x="583" y="1160"/>
      <point x="640" y="1139"/>
      <point x="675" y="1105" type="curve"/>
      <point x="723" y="1296" type="line"/>
      <point x="674" y="1328"/>
      <point x="584" y="1354"/>
      <point x="523" y="1354" type="curve" smooth="yes"/>
      <point x="316" y="1354"/>
      <point x="192" y="1229"/>
      <point x="192" y="978" type="curve" smooth="yes"/>
      <point x="192" y="840" type="line"/>
      <point x="25" y="840" type="line"/>
    </contour>
    <contour>
      <point x="502.0" y="1367.0" type="move" name="U"/>
    </contour>
    <contour>
      <point x="334.0" y="-84.0" type="move" name="L"/>
    </contour>
    <contour>
      <point x="318.0" y="0.0" type="move" name="H"/>
    </contour>
  </outline>
</glyph>
<glyph name="g" format="1">
  <advance width="978"/>
  <unicode hex="0067"/>
  <outline>
    <contour>
      <point x="294" y="330" type="line"/>
      <point x="214" y="298"/>
      <point x="169" y="230"/>
      <point x="169" y="180" type="curve" smooth="yes"/>
      <point x="169" y="94"/>
      <point x="234" y="10"/>
      <point x="457" y="-19" type="curve" smooth="yes"/>
      <point x="666" y="-42"/>
      <point x="727" y="-83"/>
      <point x="727" y="-142" type="curve" smooth="yes"/>
      <point x="727" y="-191"/>
      <point x="625" y="-252"/>
      <point x="503" y="-252" type="curve" smooth="yes"/>
      <point x="349" y="-252"/>
      <point x="276" y="-196"/>
      <point x="276" y="-150" type="curve" smooth="yes"/>
      <point x="276" y="-101"/>
      <point x="298" y="-47"/>
      <point x="470" y="17" type="curve"/>
      <point x="463" y="41"/>
      <point x="269" y="63"/>
      <point x="269" y="63" type="curve"/>
      <point x="115" y="2"/>
      <point x="42" y="-74"/>
      <point x="42" y="-167" type="curve" smooth="yes"/>
      <point x="42" y="-342"/>
      <point x="285" y="-422"/>
      <point x="491" y="-422" type="curve" smooth="yes"/>
      <point x="705" y="-422"/>
      <point x="961" y="-314"/>
      <point x="961" y="-134" type="curve" smooth="yes"/>
      <point x="961" y="11"/>
      <point x="877" y="105"/>
      <point x="629" y="138" type="curve" smooth="yes"/>
      <point x="415" y="160"/>
      <point x="362" y="181"/>
      <point x="362" y="213" type="curve" smooth="yes"/>
      <point x="362" y="238"/>
      <point x="395" y="269"/>
      <point x="492" y="293" type="curve"/>
    </contour>
    <contour>
      <point x="921" y="869" type="line"/>
      <point x="839" y="864"/>
      <point x="728" y="833"/>
      <point x="654" y="786" type="curve"/>
      <point x="708" y="644" type="line"/>
      <point x="785" y="675"/>
      <point x="852" y="688"/>
      <point x="913" y="690" type="curve"/>
    </contour>
    <contour>
      <point x="102" y="560" type="curve" smooth="yes"/>
      <point x="102" y="380"/>
      <point x="264" y="255"/>
      <point x="474" y="255" type="curve" smooth="yes"/>
      <point x="686" y="255"/>
      <point x="846" y="389"/>
      <point x="846" y="568" type="curve" smooth="yes"/>
      <point x="846" y="739"/>
      <point x="686" y="869"/>
      <point x="474" y="869" type="curve" smooth="yes"/>
      <point x="264" y="869"/>
      <point x="102" y="731"/>
    </contour>
    <contour>
      <point x="315" y="568" type="curve" smooth="yes"/>
      <point x="315" y="644"/>
      <point x="382" y="708"/>
      <point x="474" y="708" type="curve" smooth="yes"/>
      <point x="567" y="708"/>
      <point x="633" y="644"/>
      <point x="633" y="568" type="curve" smooth="yes"/>
      <point x="633" y="483"/>
      <point x="567" y="419"/>
      <point x="474" y="419" type="curve" smooth="yes"/>
      <point x="382" y="419"/>
      <point x="315" y="483"/>
    </contour>
    <contour>
      <point x="499" y="-389" type="move" name="H"/>
    </contour>
    <contour>
      <point x="992" y="836" type="move" name="R"/>
    </contour>
    <contour>
      <point x="474" y="920" type="move" name="U"/>
    </contour>
    <contour>
      <point x="499" y="-447" type="move" name="L"/>
    </contour>
  </outline>
</glyph>
<glyph name="j" format="1">
  <advance width="560"/>
  <unicode hex="006A"/>
  <outline>
    <contour>
      <point x="155" y="1158" type="curve" smooth="yes"/>
      <point x="155" y="1071"/>
      <point x="217" y="1012"/>
      <point x="301" y="1012" type="curve" smooth="yes"/>
      <point x="386" y="1012"/>
      <point x="447" y="1071"/>
      <point x="447" y="1158" type="curve" smooth="yes"/>
      <point x="447" y="1243"/>
      <point x="386" y="1304"/>
      <point x="301" y="1304" type="curve" smooth="yes"/>
      <point x="217" y="1304"/>
      <point x="155" y="1243"/>
    </contour>
    <contour>
      <point x="418" y="853" type="line"/>
      <point x="171" y="853" type="line"/>
      <point x="182" y="765"/>
      <point x="184" y="606"/>
      <point x="184" y="443" type="curve"/>
      <point x="184" y="17" type="line"/>
      <point x="184" y="-125"/>
      <point x="138" y="-194"/>
      <point x="40" y="-194" type="curve" smooth="yes"/>
      <point x="-17" y="-194"/>
      <point x="-84" y="-163"/>
      <point x="-121" y="-127" type="curve"/>
      <point x="-159" y="-325" type="line"/>
      <point x="-124" y="-352"/>
      <point x="-31" y="-393"/>
      <point x="47" y="-393" type="curve" smooth="yes"/>
      <point x="256" y="-393"/>
      <point x="418" y="-291"/>
      <point x="418" y="21" type="curve" smooth="yes"/>
    </contour>
    <contour>
      <point x="117" y="-418" type="move" name="L"/>
    </contour>
    <contour>
      <point x="297" y="920" type="move" name="U"/>
    </contour>
  </outline>
</glyph>
<glyph name="LtnSmK" format="1">
  <advance width="951"/>
  <unicode hex="006B"/>
  <outline>
    <contour>
      <point x="347" y="0" type="line"/>
      <point x="347" y="1338" type="line"/>
      <point x="100" y="1338" type="line"/>
      <point x="113" y="1266"/>
      <point x="113" y="1124"/>
      <point x="113" y="945" type="curve" smooth="yes"/>
      <point x="113" y="781"/>
      <point x="113" y="0"/>
      <point x="113" y="0" type="curve"/>
    </contour>
    <contour>
      <point x="604" y="853" type="line"/>
      <point x="295" y="477" type="line"/>
      <point x="478" y="441" type="line"/>
      <point x="918" y="853" type="line"/>
    </contour>
    <contour>
      <point x="293" y="477" type="line"/>
      <point x="636" y="0" type="line"/>
      <point x="943" y="0" type="line"/>
      <point x="451" y="555" type="line"/>
    </contour>
    <contour>
      <point x="497.0" y="1367.0" type="move" name="U"/>
    </contour>
    <contour>
      <point x="489.0" y="-84.0" type="move" name="L"/>
    </contour>
    <contour>
      <point x="953.0" y="836.0" type="move" name="R"/>
    </contour>
    <contour>
      <point x="786.0" y="0.0" type="move" name="H"/>
    </contour>
  </outline>
</glyph>
<glyph name="k" format="1">
  <advance width="951"/>
  <unicode hex="006B"/>
  <outline>
    <contour>
      <point x="347" y="0" type="line"/>
      <point x="347" y="1338" type="line"/>
      <point x="100" y="1338" type="line"/>
      <point x="113" y="1266"/>
      <point x="113" y="1124"/>
      <point x="113" y="945" type="curve" smooth="yes"/>
      <point x="113" y="781"/>
      <point x="113" y="0"/>
      <point x="113" y="0" type="curve"/>
    </contour>
    <contour>
      <point x="604" y="853" type="line"/>
      <point x="295" y="477" type="line"/>
      <point x="478" y="441" type="line"/>
      <point x="918" y="853" type="line"/>
    </contour>
    <contour>
      <point x="293" y="477" type="line"/>
      <point x="636" y="0" type="line"/>
      <point x="943" y="0" type="line"/>
      <point x="451" y="555" type="line"/>
    </contour>
    <contour>
      <point x="786" y="0" type="move" name="H"/>
    </contour>
    <contour>
      <point x="953" y="836" type="move" name="R"/>
    </contour>
    <contour>
      <point x="497" y="1367" type="move" name="U"/>
    </contour>
    <contour>
      <point x="489" y="-84" type="move" name="L"/>
    </contour>
  </outline>
</glyph>
<glyph name="LtnSmL" format="1">
  <advance width="535"/>
  <unicode hex="006C"/>
  <outline>
    <contour>
      <point x="385" y="1338" type="line"/>
      <point x="134" y="1338" type="line"/>
      <point x="145" y="1241"/>
      <point x="150" y="1107"/>
      <point x="150" y="945" type="curve" smooth="yes"/>
      <point x="150" y="0" type="line"/>
      <point x="401" y="0" type="line"/>
      <point x="390" y="91"/>
      <point x="385" y="289"/>
      <point x="385" y="397" type="curve" smooth="yes"/>
    </contour>
    <contour>
      <point x="268.0" y="1367.0" type="move" name="U"/>
    </contour>
    <contour>
      <point x="280.0" y="-84.0" type="move" name="L"/>
    </contour>
    <contour>
      <point x="552.0" y="836.0" type="move" name="R"/>
    </contour>
    <contour>
      <point x="280.0" y="0.0" type="move" name="H"/>
    </contour>
  </outline>
</glyph>
<glyph name="l" format="1">
  <advance width="535"/>
  <unicode hex="006C"/>
  <outline>
    <contour>
      <point x="385" y="1338" type="line"/>
      <point x="134" y="1338" type="line"/>
      <point x="145" y="1241"/>
      <point x="150" y="1107"/>
      <point x="150" y="945" type="curve" smooth="yes"/>
      <point x="150" y="0" type="line"/>
      <point x="401" y="0" type="line"/>
      <point x="390" y="91"/>
      <point x="385" y="289"/>
      <point x="385" y="397" type="curve" smooth="yes"/>
    </contour>
    <contour>
      <point x="280" y="0" type="move" name="H"/>
    </contour>
    <contour>
      <point x="552" y="836" type="move" name="R"/>
    </contour>
    <contour>
      <point x="268" y="1367" type="move" name="U"/>
    </contour>
    <contour>
      <point x="280" y="-84" type="move" name="L"/>
    </contour>
  </outline>
</glyph>
<glyph name="m" format="1">
  <advance width="1471"/>
  <unicode hex="006D"/>
  <outline>
    <contour>
      <point x="96" y="853" type="line"/>
      <point x="114" y="795"/>
      <point x="138" y="678"/>
      <point x="138" y="514" type="curve" smooth="yes"/>
      <point x="138" y="0" type="line"/>
      <point x="372" y="0" type="line"/>
      <point x="372" y="535" type="line"/>
      <point x="405" y="611"/>
      <point x="468" y="665"/>
      <point x="531" y="665" type="curve" smooth="yes"/>
      <point x="604" y="665"/>
      <point x="627" y="635"/>
      <point x="627" y="477" type="curve" smooth="yes"/>
      <point x="627" y="0" type="line"/>
      <point x="861" y="0" type="line"/>
      <point x="861" y="552" type="line"/>
      <point x="897" y="620"/>
      <point x="959" y="665"/>
      <point x="1020" y="665" type="curve" smooth="yes"/>
      <point x="1095" y="665"/>
      <point x="1116" y="628"/>
      <point x="1116" y="460" type="curve" smooth="yes"/>
      <point x="1116" y="0" type="line"/>
      <point x="1350" y="0" type="line"/>
      <point x="1350" y="552" type="line" smooth="yes"/>
      <point x="1350" y="758"/>
      <point x="1294" y="869"/>
      <point x="1124" y="869" type="curve" smooth="yes"/>
      <point x="1037" y="869"/>
      <point x="946" y="842"/>
      <point x="841" y="729" type="curve"/>
      <point x="813" y="803"/>
      <point x="745" y="869"/>
      <point x="635" y="869" type="curve" smooth="yes"/>
      <point x="538" y="869"/>
      <point x="455" y="843"/>
      <point x="353" y="732" type="curve"/>
      <point x="344" y="769"/>
      <point x="332" y="820"/>
      <point x="314" y="853" type="curve"/>
    </contour>
    <contour>
      <point x="744" y="920" type="move" name="U"/>
    </contour>
    <contour>
      <point x="744" y="-84" type="move" name="L"/>
    </contour>
    <contour>
      <point x="744" y="0" type="move" name="H"/>
    </contour>
  </outline>
</glyph>
<glyph name="n" format="1">
  <advance width="1041"/>
  <unicode hex="006E"/>
  <outline>
    <contour>
      <point x="936" y="0" type="line"/>
      <point x="936" y="0"/>
      <point x="936" y="384"/>
      <point x="936" y="523" type="curve" smooth="yes"/>
      <point x="936" y="752"/>
      <point x="834" y="869"/>
      <point x="665" y="869" type="curve" smooth="yes"/>
      <point x="547" y="869"/>
      <point x="449" y="819"/>
      <point x="343" y="698" type="curve"/>
      <point x="337" y="737"/>
      <point x="322" y="819"/>
      <point x="309" y="853" type="curve"/>
      <point x="79" y="853" type="line"/>
      <point x="98" y="795"/>
      <point x="121" y="678"/>
      <point x="121" y="514" type="curve" smooth="yes"/>
      <point x="121" y="351"/>
      <point x="121" y="0"/>
      <point x="121" y="0" type="curve"/>
      <point x="355" y="0" type="line"/>
      <point x="355" y="485" type="line"/>
      <point x="385" y="571"/>
      <point x="477" y="665"/>
      <point x="573" y="665" type="curve" smooth="yes"/>
      <point x="662" y="665"/>
      <point x="702" y="614"/>
      <point x="702" y="460" type="curve" smooth="yes"/>
      <point x="702" y="345"/>
      <point x="702" y="0"/>
      <point x="702" y="0" type="curve"/>
    </contour>
    <contour>
      <point x="518" y="920" type="move" name="U"/>
    </contour>
    <contour>
      <point x="518" y="-84" type="move" name="L"/>
    </contour>
    <contour>
      <point x="518" y="0" type="move" name="H"/>
    </contour>
  </outline>
</glyph>
<glyph name="LtnSmO" format="1">
  <advance width="970"/>
  <unicode hex="006F"/>
  <outline>
    <contour>
      <point x="75" y="424" type="curve" smooth="yes"/>
      <point x="75" y="136"/>
      <point x="241" y="-21"/>
      <point x="477" y="-21" type="curve" smooth="yes"/>
      <point x="702" y="-21"/>
      <point x="895" y="136"/>
      <point x="895" y="424" type="curve" smooth="yes"/>
      <point x="895" y="711"/>
      <point x="730" y="869"/>
      <point x="493" y="869" type="curve" smooth="yes"/>
      <point x="268" y="869"/>
      <point x="75" y="711"/>
    </contour>
    <contour>
      <point x="309" y="424" type="curve" smooth="yes"/>
      <point x="309" y="584"/>
      <point x="377" y="681"/>
      <point x="485" y="681" type="curve" smooth="yes"/>
      <point x="599" y="681"/>
      <point x="660" y="584"/>
      <point x="660" y="424" type="curve" smooth="yes"/>
      <point x="660" y="264"/>
      <point x="593" y="167"/>
      <point x="485" y="167" type="curve" smooth="yes"/>
      <point x="370" y="167"/>
      <point x="309" y="264"/>
    </contour>
    <contour>
      <point x="485.0" y="920.0" type="move" name="U"/>
    </contour>
    <contour>
      <point x="485.0" y="-84.0" type="move" name="L"/>
    </contour>
    <contour>
      <point x="970.0" y="836.0" type="move" name="R"/>
    </contour>
    <contour>
      <point x="660.0" y="0.0" type="move" name="O"/>
    </contour>
    <contour>
      <point x="483.0" y="0.0" type="move" name="H"/>
    </contour>
  </outline>
</glyph>
<glyph name="o" format="1">
  <advance width="970"/>
  <unicode hex="006F"/>
  <outline>
    <contour>
      <point x="75" y="424" type="curve" smooth="yes"/>
      <point x="75" y="136"/>
      <point x="241" y="-21"/>
      <point x="477" y="-21" type="curve" smooth="yes"/>
      <point x="702" y="-21"/>
      <point x="895" y="136"/>
      <point x="895" y="424" type="curve" smooth="yes"/>
      <point x="895" y="711"/>
      <point x="730" y="869"/>
      <point x="493" y="869" type="curve" smooth="yes"/>
      <point x="268" y="869"/>
      <point x="75" y="711"/>
    </contour>
    <contour>
      <point x="309" y="424" type="curve" smooth="yes"/>
      <point x="309" y="584"/>
      <point x="377" y="681"/>
      <point x="485" y="681" type="curve" smooth="yes"/>
      <point x="599" y="681"/>
      <point x="660" y="584"/>
      <point x="660" y="424" type="curve" smooth="yes"/>
      <point x="660" y="264"/>
      <point x="593" y="167"/>
      <point x="485" y="167" type="curve" smooth="yes"/>
      <point x="370" y="167"/>
      <point x="309" y="264"/>
    </contour>
    <contour>
      <point x="660" y="0" type="move" name="O"/>
    </contour>
    <contour>
      <point x="483" y="0" type="move" name="H"/>
    </contour>
    <contour>
      <point x="970" y="836" type="move" name="R"/>
    </contour>
    <contour>
      <point x="485" y="920" type="move" name="U"/>
    </contour>
    <contour>
      <point x="485" y="-84" type="move" name="L"/>
    </contour>
  </outline>
</glyph>
<glyph name="p" format="1">
  <advance width="1032"/>
  <unicode hex="0070"/>
  <outline>
    <contour>
      <point x="376" y="-410" type="line"/>
      <point x="362" y="-339"/>
      <point x="355" y="-259"/>
      <point x="355" y="-125" type="curve" smooth="yes"/>
      <point x="355" y="-59"/>
      <point x="355" y="-34"/>
      <point x="355" y="54" type="curve"/>
      <point x="433" y="8"/>
      <point x="497" y="-21"/>
      <point x="584" y="-21" type="curve" smooth="yes"/>
      <point x="790" y="-21"/>
      <point x="957" y="161"/>
      <point x="957" y="447" type="curve" smooth="yes"/>
      <point x="957" y="692"/>
      <point x="833" y="869"/>
      <point x="646" y="869" type="curve" smooth="yes"/>
      <point x="525" y="869"/>
      <point x="420" y="804"/>
      <point x="343" y="711" type="curve"/>
      <point x="335" y="779"/>
      <point x="322" y="828"/>
      <point x="309" y="853" type="curve"/>
      <point x="79" y="853" type="line"/>
      <point x="117" y="758"/>
      <point x="121" y="614"/>
      <point x="121" y="405" type="curve" smooth="yes"/>
      <point x="121" y="243"/>
      <point x="121" y="-288"/>
      <point x="121" y="-410" type="curve"/>
    </contour>
    <contour>
      <point x="529" y="172" type="curve" smooth="yes"/>
      <point x="472" y="172"/>
      <point x="441" y="188"/>
      <point x="355" y="251" type="curve"/>
      <point x="355" y="326"/>
      <point x="355" y="424"/>
      <point x="355" y="489" type="curve"/>
      <point x="403" y="607"/>
      <point x="487" y="670"/>
      <point x="562" y="670" type="curve" smooth="yes"/>
      <point x="663" y="670"/>
      <point x="723" y="573"/>
      <point x="723" y="422" type="curve" smooth="yes"/>
      <point x="723" y="268"/>
      <point x="631" y="172"/>
    </contour>
    <contour>
      <point x="242" y="-364" type="move" name="H"/>
    </contour>
    <contour>
      <point x="1032" y="836" type="move" name="R"/>
    </contour>
    <contour>
      <point x="535" y="920" type="move" name="U"/>
    </contour>
    <contour>
      <point x="535" y="-418" type="move" name="L"/>
    </contour>
  </outline>
</glyph>
<glyph name="q" format="1">
  <advance width="1012"/>
  <unicode hex="0071"/>
  <outline>
    <contour>
      <point x="660" y="-410" type="line"/>
      <point x="915" y="-410" type="line"/>
      <point x="901" y="-339"/>
      <point x="895" y="-259"/>
      <point x="895" y="-125" type="curve" smooth="yes"/>
      <point x="895" y="-22"/>
      <point x="895" y="807"/>
      <point x="895" y="807" type="curve"/>
      <point x="781" y="837"/>
      <point x="646" y="869"/>
      <point x="518" y="869" type="curve" smooth="yes"/>
      <point x="213" y="869"/>
      <point x="84" y="620"/>
      <point x="84" y="364" type="curve" smooth="yes"/>
      <point x="84" y="98"/>
      <point x="264" y="-21"/>
      <point x="418" y="-21" type="curve" smooth="yes"/>
      <point x="496" y="-21"/>
      <point x="573" y="12"/>
      <point x="660" y="100" type="curve"/>
    </contour>
    <contour>
      <point x="660" y="308" type="line"/>
      <point x="608" y="216"/>
      <point x="543" y="170"/>
      <point x="485" y="170" type="curve" smooth="yes"/>
      <point x="397" y="170"/>
      <point x="318" y="240"/>
      <point x="318" y="405" type="curve" smooth="yes"/>
      <point x="318" y="536"/>
      <point x="381" y="670"/>
      <point x="548" y="670" type="curve" smooth="yes"/>
      <point x="582" y="670"/>
      <point x="626" y="660"/>
      <point x="660" y="644" type="curve"/>
    </contour>
    <contour>
      <point x="502" y="920" type="move" name="U"/>
    </contour>
    <contour>
      <point x="502" y="-418" type="move" name="L"/>
    </contour>
    <contour>
      <point x="1012" y="836" type="move" name="R"/>
    </contour>
  </outline>
</glyph>
<glyph name="s" format="1">
  <advance width="865"/>
  <unicode hex="0073"/>
  <outline>
    <contour>
      <point x="757" y="803" type="line"/>
      <point x="691" y="834"/>
      <point x="592" y="869"/>
      <point x="456" y="869" type="curve" smooth="yes"/>
      <point x="169" y="869"/>
      <point x="92" y="684"/>
      <point x="92" y="602" type="curve" smooth="yes"/>
      <point x="92" y="497"/>
      <point x="143" y="410"/>
      <point x="380" y="361" type="curve" smooth="yes"/>
      <point x="540" y="326"/>
      <point x="577" y="291"/>
      <point x="577" y="242" type="curve" smooth="yes"/>
      <point x="577" y="203"/>
      <point x="522" y="166"/>
      <point x="443" y="166" type="curve" smooth="yes"/>
      <point x="345" y="166"/>
      <point x="212" y="212"/>
      <point x="130" y="279" type="curve"/>
      <point x="84" y="75" type="line"/>
      <point x="156" y="23"/>
      <point x="289" y="-21"/>
      <point x="439" y="-21" type="curve" smooth="yes"/>
      <point x="642" y="-21"/>
      <point x="803" y="103"/>
      <point x="803" y="263" type="curve" smooth="yes"/>
      <point x="803" y="421"/>
      <point x="659" y="487"/>
      <point x="485" y="523" type="curve" smooth="yes"/>
      <point x="339" y="551"/>
      <point x="318" y="569"/>
      <point x="318" y="610" type="curve" smooth="yes"/>
      <point x="318" y="644"/>
      <point x="349" y="682"/>
      <point x="447" y="682" type="curve" smooth="yes"/>
      <point x="563" y="682"/>
      <point x="661" y="635"/>
      <point x="724" y="603" type="curve"/>
    </contour>
    <contour>
      <point x="443" y="920" type="move" name="U"/>
    </contour>
    <contour>
      <point x="431" y="-84" type="move" name="L"/>
    </contour>
    <contour>
      <point x="431" y="0" type="move" name="H"/>
    </contour>
  </outline>
</glyph>
<glyph name="t" format="1">
  <advance width="740"/>
  <unicode hex="0074"/>
  <outline>
    <contour>
      <point x="184" y="226" type="line"/>
      <point x="184" y="33"/>
      <point x="313" y="-21"/>
      <point x="471" y="-21" type="curve" smooth="yes"/>
      <point x="531" y="-21"/>
      <point x="606" y="-3"/>
      <point x="686" y="48" type="curve"/>
      <point x="686" y="235" type="line"/>
      <point x="619" y="194"/>
      <point x="567" y="172"/>
      <point x="524" y="172" type="curve" smooth="yes"/>
      <point x="449" y="172"/>
      <point x="418" y="196"/>
      <point x="418" y="386" type="curve" smooth="yes"/>
      <point x="418" y="1104" type="line"/>
      <point x="184" y="1104" type="line"/>
    </contour>
    <contour>
      <point x="673" y="673" type="line"/>
      <point x="673" y="840" type="line"/>
      <point x="25" y="840" type="line"/>
      <point x="25" y="673" type="line"/>
    </contour>
    <contour>
      <point x="443" y="0" type="move" name="H"/>
    </contour>
    <contour>
      <point x="740" y="836" type="move" name="R"/>
    </contour>
    <contour>
      <point x="301" y="1137" type="move" name="U"/>
    </contour>
    <contour>
      <point x="443" y="-84" type="move" name="L"/>
    </contour>
  </outline>
</glyph>
<glyph name="u" format="1">
  <advance width="1041"/>
  <unicode hex="0075"/>
  <outline>
    <contour>
      <point x="970" y="0" type="line"/>
      <point x="935" y="94"/>
      <point x="915" y="214"/>
      <point x="915" y="376" type="curve" smooth="yes"/>
      <point x="915" y="540"/>
      <point x="915" y="853"/>
      <point x="915" y="853" type="curve"/>
      <point x="665" y="853" type="line"/>
      <point x="680" y="751"/>
      <point x="681" y="696"/>
      <point x="681" y="585" type="curve" smooth="yes"/>
      <point x="681" y="349" type="line"/>
      <point x="647" y="273"/>
      <point x="544" y="172"/>
      <point x="468" y="172" type="curve" smooth="yes"/>
      <point x="383" y="172"/>
      <point x="355" y="237"/>
      <point x="355" y="389" type="curve" smooth="yes"/>
      <point x="355" y="504"/>
      <point x="355" y="853"/>
      <point x="355" y="853" type="curve"/>
      <point x="105" y="853" type="line"/>
      <point x="120" y="752"/>
      <point x="121" y="691"/>
      <point x="121" y="585" type="curve" smooth="yes"/>
      <point x="121" y="569"/>
      <point x="121" y="354"/>
      <point x="121" y="339" type="curve" smooth="yes"/>
      <point x="121" y="100"/>
      <point x="209" y="-21"/>
      <point x="383" y="-21" type="curve" smooth="yes"/>
      <point x="497" y="-21"/>
      <point x="604" y="40"/>
      <point x="702" y="155" type="curve"/>
      <point x="711" y="97"/>
      <point x="732" y="36"/>
      <point x="748" y="0" type="curve"/>
    </contour>
    <contour>
      <point x="577" y="0" type="move" name="O"/>
    </contour>
    <contour>
      <point x="431" y="0" type="move" name="H"/>
    </contour>
    <contour>
      <point x="1052" y="836" type="move" name="R"/>
    </contour>
    <contour>
      <point x="514" y="920" type="move" name="U"/>
    </contour>
    <contour>
      <point x="514" y="-84" type="move" name="L"/>
    </contour>
  </outline>
</glyph>
<glyph name="v" format="1">
  <advance width="923"/>
  <unicode hex="0076"/>
  <outline>
    <contour>
      <point x="657" y="853" type="line"/>
      <point x="465" y="242" type="line"/>
      <point x="269" y="853" type="line"/>
      <point x="8" y="853" type="line"/>
      <point x="54" y="757"/>
      <point x="111" y="624"/>
      <point x="138" y="556" type="curve" smooth="yes"/>
      <point x="190" y="426"/>
      <point x="359" y="0"/>
      <point x="359" y="0" type="curve"/>
      <point x="563" y="0" type="line"/>
      <point x="563" y="0"/>
      <point x="741" y="448"/>
      <point x="785" y="556" type="curve" smooth="yes"/>
      <point x="813" y="622"/>
      <point x="867" y="757"/>
      <point x="915" y="853" type="curve"/>
    </contour>
    <contour>
      <point x="627" y="0" type="move" name="O"/>
    </contour>
    <contour>
      <point x="472" y="0" type="move" name="H"/>
    </contour>
    <contour>
      <point x="472" y="920" type="move" name="U"/>
    </contour>
    <contour>
      <point x="472" y="-84" type="move" name="L"/>
    </contour>
  </outline>
</glyph>
<glyph name="w" format="1">
  <advance width="1313"/>
  <unicode hex="0077"/>
  <outline>
    <contour>
      <point x="556" y="853" type="line"/>
      <point x="401" y="238" type="line"/>
      <point x="270" y="853" type="line"/>
      <point x="29" y="853" type="line"/>
      <point x="69" y="725"/>
      <point x="92" y="645"/>
      <point x="117" y="556" type="curve" smooth="yes"/>
      <point x="272" y="0" type="line"/>
      <point x="514" y="0" type="line"/>
      <point x="656" y="581" type="line"/>
      <point x="798" y="0" type="line"/>
      <point x="1041" y="0" type="line"/>
      <point x="1195" y="556" type="line" smooth="yes"/>
      <point x="1224" y="656"/>
      <point x="1244" y="726"/>
      <point x="1283" y="853" type="curve"/>
      <point x="1042" y="853" type="line"/>
      <point x="911" y="238" type="line"/>
      <point x="757" y="853" type="line"/>
    </contour>
    <contour>
      <point x="656" y="920" type="move" name="U"/>
    </contour>
    <contour>
      <point x="656" y="-84" type="move" name="L"/>
    </contour>
  </outline>
</glyph>
<glyph name="x" format="1">
  <advance width="991"/>
  <unicode hex="0078"/>
  <outline>
    <contour>
      <point x="681" y="0" type="line"/>
      <point x="957" y="0" type="line"/>
      <point x="867" y="108"/>
      <point x="827" y="159"/>
      <point x="777" y="226" type="curve" smooth="yes"/>
      <point x="318" y="853" type="line"/>
      <point x="42" y="853" type="line"/>
      <point x="132" y="742"/>
      <point x="161" y="704"/>
      <point x="217" y="627" type="curve" smooth="yes"/>
    </contour>
    <contour>
      <point x="417" y="515" type="line"/>
      <point x="205" y="226" type="line" smooth="yes"/>
      <point x="163" y="168"/>
      <point x="125" y="120"/>
      <point x="33" y="0" type="curve"/>
      <point x="288" y="0" type="line"/>
      <point x="488" y="300" type="line"/>
    </contour>
    <contour>
      <point x="564" y="339" type="line"/>
      <point x="773" y="627" type="line" smooth="yes"/>
      <point x="819" y="691"/>
      <point x="859" y="741"/>
      <point x="945" y="853" type="curve"/>
      <point x="690" y="853" type="line"/>
      <point x="497" y="558" type="line"/>
    </contour>
    <contour>
      <point x="514" y="920" type="move" name="U"/>
    </contour>
    <contour>
      <point x="493" y="-84" type="move" name="L"/>
    </contour>
    <contour>
      <point x="803" y="0" type="move" name="H"/>
    </contour>
  </outline>
</glyph>
<glyph name="LtnSmY" format="1">
  <advance width="920"/>
  <unicode hex="0079"/>
  <outline>
    <contour>
      <point x="790" y="556" type="line" smooth="yes"/>
      <point x="818" y="634"/>
      <point x="854" y="723"/>
      <point x="911" y="853" type="curve"/>
      <point x="650" y="853" type="line"/>
      <point x="650" y="853"/>
      <point x="540" y="459"/>
      <point x="479" y="245" type="curve"/>
      <point x="278" y="853" type="line"/>
      <point x="17" y="853" type="line"/>
      <point x="81" y="722"/>
      <point x="120" y="633"/>
      <point x="150" y="556" type="curve" smooth="yes"/>
      <point x="372" y="-15" type="line"/>
      <point x="306" y="-175"/>
      <point x="254" y="-202"/>
      <point x="205" y="-202" type="curve" smooth="yes"/>
      <point x="150" y="-202"/>
      <point x="85" y="-169"/>
      <point x="50" y="-140" type="curve"/>
      <point x="-8" y="-322" type="line"/>
      <point x="53" y="-367"/>
      <point x="129" y="-393"/>
      <point x="205" y="-393" type="curve" smooth="yes"/>
      <point x="357" y="-393"/>
      <point x="472" y="-324"/>
      <point x="589" y="0" type="curve" smooth="yes"/>
    </contour>
    <contour>
      <point x="472.0" y="920.0" type="move" name="U"/>
    </contour>
    <contour>
      <point x="966.0" y="836.0" type="move" name="R"/>
    </contour>
    <contour>
      <point x="706.0" y="-84.0" type="move" name="L"/>
    </contour>
  </outline>
</glyph>
<glyph name="LtnSmZ" format="1">
  <advance width="886"/>
  <unicode hex="007A"/>
  <outline>
    <contour>
      <point x="105" y="853" type="line"/>
      <point x="105" y="660" type="line"/>
      <point x="135" y="673"/>
      <point x="185" y="673"/>
      <point x="234" y="673" type="curve" smooth="yes"/>
      <point x="514" y="673" type="line"/>
      <point x="79" y="133" type="line"/>
      <point x="79" y="0" type="line"/>
      <point x="815" y="0" type="line"/>
      <point x="815" y="192" type="line"/>
      <point x="754" y="180"/>
      <point x="691" y="180"/>
      <point x="631" y="180" type="curve" smooth="yes"/>
      <point x="359" y="180" type="line"/>
      <point x="803" y="732" type="line"/>
      <point x="803" y="853" type="line"/>
    </contour>
    <contour>
      <point x="451.0" y="920.0" type="move" name="U"/>
    </contour>
    <contour>
      <point x="451.0" y="-84.0" type="move" name="L"/>
    </contour>
    <contour>
      <point x="451.0" y="0.0" type="move" name="H"/>
    </contour>
  </outline>
</glyph>
<glyph name="braceleft" format="1">
  <advance width="845"/>
  <unicode hex="007B"/>
  <outline>
    <contour>
      <point x="785" y="-422" type="curve"/>
      <point x="785" y="-459" type="line"/>
      <point x="684" y="-449"/>
      <point x="598" y="-406"/>
      <point x="527" y="-330" type="curve" smooth="yes"/>
      <point x="454" y="-252"/>
      <point x="418" y="-163"/>
      <point x="418" y="-60" type="curve" smooth="yes"/>
      <point x="418" y="-22"/>
      <point x="425" y="34"/>
      <point x="441" y="106" type="curve" smooth="yes"/>
      <point x="457" y="178"/>
      <point x="465" y="227"/>
      <point x="465" y="256" type="curve" smooth="yes"/>
      <point x="465" y="317"/>
      <point x="438" y="370"/>
      <point x="383" y="415" type="curve" smooth="yes"/>
      <point x="337" y="453"/>
      <point x="284" y="477"/>
      <point x="227" y="483" type="curve"/>
      <point x="227" y="537" type="line"/>
      <point x="284" y="543"/>
      <point x="336" y="566"/>
      <point x="382" y="604" type="curve" smooth="yes"/>
      <point x="438" y="648"/>
      <point x="465" y="700"/>
      <point x="465" y="760" type="curve" smooth="yes"/>
      <point x="465" y="790"/>
      <point x="457" y="843"/>
      <point x="441" y="919" type="curve" smooth="yes"/>
      <point x="425" y="995"/>
      <point x="418" y="1054"/>
      <point x="418" y="1094" type="curve" smooth="yes"/>
      <point x="418" y="1192"/>
      <point x="455" y="1279"/>
      <point x="529" y="1355" type="curve"/>
      <point x="601" y="1427"/>
      <point x="687" y="1469"/>
      <point x="785" y="1479" type="curve"/>
      <point x="785" y="1443" type="line"/>
      <point x="624" y="1403"/>
      <point x="543" y="1311"/>
      <point x="543" y="1168" type="curve" smooth="yes"/>
      <point x="543" y="1135"/>
      <point x="551" y="1086"/>
      <point x="566" y="1024" type="curve" smooth="yes"/>
      <point x="582" y="961"/>
      <point x="589" y="913"/>
      <point x="589" y="879" type="curve" smooth="yes"/>
      <point x="589" y="695"/>
      <point x="504" y="572"/>
      <point x="334" y="511" type="curve"/>
      <point x="504" y="449"/>
      <point x="589" y="324"/>
      <point x="589" y="137" type="curve" smooth="yes"/>
      <point x="589" y="105"/>
      <point x="582" y="57"/>
      <point x="566" y="-6" type="curve" smooth="yes"/>
      <point x="551" y="-68"/>
      <point x="543" y="-115"/>
      <point x="543" y="-148" type="curve" smooth="yes"/>
      <point x="543" y="-290"/>
      <point x="624" y="-381"/>
    </contour>
  </outline>
</glyph>
<glyph name="bar" format="1">
  <advance width="426"/>
  <unicode hex="007C"/>
  <outline>
    <contour>
      <point x="257" y="1479" type="line"/>
      <point x="257" y="-461" type="line"/>
      <point x="169" y="-461" type="line"/>
      <point x="169" y="1479" type="line"/>
    </contour>
  </outline>
</glyph>
<glyph name="exclamdown" format="1">
  <advance width="652"/>
  <unicode hex="00A1"/>
  <outline>
    <contour>
      <point x="205" y="489" type="line"/>
      <point x="199" y="247"/>
      <point x="203" y="8"/>
      <point x="171" y="-355" type="curve"/>
      <point x="451" y="-355" type="line"/>
      <point x="419" y="8"/>
      <point x="423" y="247"/>
      <point x="418" y="489" type="curve"/>
    </contour>
    <contour>
      <point x="167" y="782" type="curve" smooth="yes"/>
      <point x="167" y="696"/>
      <point x="229" y="635"/>
      <point x="314" y="635" type="curve" smooth="yes"/>
      <point x="399" y="635"/>
      <point x="460" y="696"/>
      <point x="460" y="782" type="curve" smooth="yes"/>
      <point x="460" y="869"/>
      <point x="399" y="928"/>
      <point x="314" y="928" type="curve" smooth="yes"/>
      <point x="229" y="928"/>
      <point x="167" y="869"/>
    </contour>
  </outline>
</glyph>
<glyph name="CentSgn" format="1">
  <advance width="911"/>
  <unicode hex="00A2"/>
  <outline>
    <contour>
      <point x="771" y="311" type="line"/>
      <point x="701" y="257"/>
      <point x="640" y="225"/>
      <point x="544" y="225" type="curve" smooth="yes"/>
      <point x="425" y="225"/>
      <point x="348" y="319"/>
      <point x="348" y="459" type="curve" smooth="yes"/>
      <point x="348" y="613"/>
      <point x="434" y="705"/>
      <point x="544" y="705" type="curve" smooth="yes"/>
      <point x="626" y="705"/>
      <point x="680" y="681"/>
      <point x="752" y="631" type="curve"/>
      <point x="787" y="832" type="line"/>
      <point x="728" y="862"/>
      <point x="645" y="888"/>
      <point x="540" y="888" type="curve" smooth="yes"/>
      <point x="288" y="888"/>
      <point x="125" y="699"/>
      <point x="125" y="451" type="curve" smooth="yes"/>
      <point x="125" y="190"/>
      <point x="299" y="42"/>
      <point x="513" y="42" type="curve" smooth="yes"/>
      <point x="631" y="42"/>
      <point x="714" y="68"/>
      <point x="794" y="117" type="curve"/>
    </contour>
    <contour>
      <point x="471" y="1104" type="line"/>
      <point x="471" y="-176" type="line"/>
      <point x="630" y="-176" type="line"/>
      <point x="630" y="1104" type="line"/>
    </contour>
  </outline>
</glyph>
<glyph name="sterling" format="1">
  <advance width="1003"/>
  <unicode hex="00A3"/>
  <outline>
    <contour>
      <point x="696" y="727" type="line"/>
      <point x="115" y="727" type="line"/>
      <point x="115" y="560" type="line"/>
      <point x="696" y="560" type="line"/>
    </contour>
    <contour>
      <point x="881" y="205" type="line"/>
      <point x="820" y="193"/>
      <point x="698" y="192"/>
      <point x="548" y="192" type="curve" smooth="yes"/>
      <point x="384" y="192" type="line"/>
      <point x="448" y="270"/>
      <point x="467" y="360"/>
      <point x="467" y="481" type="curve" smooth="yes"/>
      <point x="467" y="605"/>
      <point x="435" y="752"/>
      <point x="435" y="882" type="curve" smooth="yes"/>
      <point x="435" y="1002"/>
      <point x="492" y="1049"/>
      <point x="578" y="1049" type="curve" smooth="yes"/>
      <point x="631" y="1049"/>
      <point x="717" y="1030"/>
      <point x="763" y="999" type="curve"/>
      <point x="802" y="1183" type="line"/>
      <point x="746" y="1220"/>
      <point x="648" y="1241"/>
      <point x="578" y="1241" type="curve" smooth="yes"/>
      <point x="342" y="1241"/>
      <point x="197" y="1114"/>
      <point x="197" y="857" type="curve" smooth="yes"/>
      <point x="197" y="716"/>
      <point x="233" y="573"/>
      <point x="233" y="420" type="curve" smooth="yes"/>
      <point x="233" y="309"/>
      <point x="176" y="216"/>
      <point x="109" y="159" type="curve"/>
      <point x="109" y="0" type="line"/>
      <point x="881" y="0" type="line"/>
    </contour>
  </outline>
</glyph>
<glyph name="currency" format="1">
  <advance width="1003"/>
  <unicode hex="00A4"/>
  <outline>
    <contour>
      <point x="979" y="351" type="line"/>
      <point x="803" y="528" type="line"/>
      <point x="849" y="589"/>
      <point x="867" y="653"/>
      <point x="867" y="733" type="curve" smooth="yes"/>
      <point x="867" y="813"/>
      <point x="844" y="883"/>
      <point x="802" y="944" type="curve"/>
      <point x="979" y="1122" type="line"/>
      <point x="888" y="1214" type="line"/>
      <point x="706" y="1032" type="line"/>
      <point x="648" y="1078"/>
      <point x="584" y="1099"/>
      <point x="505" y="1099" type="curve" smooth="yes"/>
      <point x="425" y="1099"/>
      <point x="357" y="1079"/>
      <point x="296" y="1034" type="curve"/>
      <point x="116" y="1214" type="line"/>
      <point x="24" y="1123" type="line"/>
      <point x="204" y="943" type="line"/>
      <point x="154" y="883"/>
      <point x="136" y="810"/>
      <point x="136" y="731" type="curve" smooth="yes"/>
      <point x="136" y="650"/>
      <point x="155" y="589"/>
      <point x="201" y="527" type="curve"/>
      <point x="24" y="350" type="line"/>
      <point x="116" y="259" type="line"/>
      <point x="293" y="436" type="line"/>
      <point x="356" y="385"/>
      <point x="420" y="365"/>
      <point x="505" y="365" type="curve" smooth="yes"/>
      <point x="584" y="365"/>
      <point x="649" y="386"/>
      <point x="711" y="436" type="curve"/>
      <point x="888" y="259" type="line"/>
    </contour>
    <contour>
      <point x="740" y="733" type="curve" smooth="yes"/>
      <point x="740" y="598"/>
      <point x="641" y="492"/>
      <point x="505" y="492" type="curve" smooth="yes"/>
      <point x="366" y="492"/>
      <point x="263" y="592"/>
      <point x="263" y="731" type="curve" smooth="yes"/>
      <point x="263" y="872"/>
      <point x="364" y="971"/>
      <point x="505" y="971" type="curve" smooth="yes"/>
      <point x="640" y="971"/>
      <point x="740" y="867"/>
    </contour>
  </outline>
</glyph>
<glyph name="YenSgn" format="1">
  <advance width="1003"/>
  <unicode hex="00A5"/>
  <outline>
    <contour>
      <point x="447" y="468" type="line"/>
      <point x="620" y="548" type="line"/>
      <point x="265" y="1221" type="line"/>
      <point x="-13" y="1221" type="line"/>
      <point x="81" y="1096"/>
      <point x="136" y="1001"/>
      <point x="201" y="890" type="curve" smooth="yes"/>
    </contour>
    <contour>
      <point x="557" y="468" type="line"/>
      <point x="807" y="890" type="line" smooth="yes"/>
      <point x="870" y="999"/>
      <point x="917" y="1079"/>
      <point x="1016" y="1221" type="curve"/>
      <point x="747" y="1221" type="line"/>
      <point x="395" y="548" type="line"/>
    </contour>
    <contour>
      <point x="383" y="581" type="line"/>
      <point x="383" y="364" type="line" smooth="yes"/>
      <point x="383" y="199"/>
      <point x="383" y="67"/>
      <point x="370" y="0" type="curve"/>
      <point x="634" y="0" type="line"/>
      <point x="621" y="67"/>
      <point x="621" y="199"/>
      <point x="621" y="364" type="curve" smooth="yes"/>
      <point x="621" y="581" type="line"/>
    </contour>
    <contour>
      <point x="100" y="296" type="line"/>
      <point x="903" y="296" type="line"/>
      <point x="903" y="472" type="line"/>
      <point x="100" y="472" type="line"/>
    </contour>
    <contour>
      <point x="100" y="560" type="line"/>
      <point x="903" y="560" type="line"/>
      <point x="903" y="736" type="line"/>
      <point x="100" y="736" type="line"/>
    </contour>
  </outline>
</glyph>
<glyph name="brokenbar" format="1">
  <advance width="890"/>
  <unicode hex="00A6"/>
  <outline>
    <contour>
      <point x="359" y="372" type="line"/>
      <point x="359" y="-326" type="line"/>
      <point x="535" y="-326" type="line"/>
      <point x="535" y="372" type="line"/>
    </contour>
    <contour>
      <point x="535" y="648" type="line"/>
      <point x="535" y="1338" type="line"/>
      <point x="359" y="1338" type="line"/>
      <point x="359" y="648" type="line"/>
    </contour>
  </outline>
</glyph>
<glyph name="copyright" format="1">
  <advance width="1283"/>
  <unicode hex="00A9"/>
  <outline>
    <contour>
      <point x="640" y="1107" type="curve" smooth="yes"/>
      <point x="878" y="1107"/>
      <point x="1106" y="935"/>
      <point x="1106" y="610" type="curve" smooth="yes"/>
      <point x="1106" y="286"/>
      <point x="878" y="114"/>
      <point x="640" y="114" type="curve" smooth="yes"/>
      <point x="401" y="114"/>
      <point x="177" y="286"/>
      <point x="177" y="610" type="curve" smooth="yes"/>
      <point x="177" y="935"/>
      <point x="401" y="1107"/>
    </contour>
    <contour>
      <point x="640" y="1241" type="curve" smooth="yes"/>
      <point x="334" y="1241"/>
      <point x="38" y="1028"/>
      <point x="38" y="610" type="curve" smooth="yes"/>
      <point x="38" y="184"/>
      <point x="334" y="-21"/>
      <point x="640" y="-21" type="curve" smooth="yes"/>
      <point x="936" y="-21"/>
      <point x="1246" y="184"/>
      <point x="1246" y="610" type="curve" smooth="yes"/>
      <point x="1246" y="1028"/>
      <point x="936" y="1241"/>
    </contour>
    <contour>
      <point x="852" y="454" type="line"/>
      <point x="799" y="398"/>
      <point x="718" y="362"/>
      <point x="646" y="362" type="curve" smooth="yes"/>
      <point x="524" y="362"/>
      <point x="452" y="455"/>
      <point x="452" y="611" type="curve" smooth="yes"/>
      <point x="452" y="777"/>
      <point x="537" y="859"/>
      <point x="651" y="859" type="curve" smooth="yes"/>
      <point x="714" y="859"/>
      <point x="772" y="839"/>
      <point x="836" y="789" type="curve"/>
      <point x="869" y="918" type="line"/>
      <point x="799" y="971"/>
      <point x="733" y="987"/>
      <point x="644" y="987" type="curve" smooth="yes"/>
      <point x="462" y="987"/>
      <point x="305" y="857"/>
      <point x="305" y="599" type="curve" smooth="yes"/>
      <point x="305" y="374"/>
      <point x="428" y="231"/>
      <point x="629" y="231" type="curve" smooth="yes"/>
      <point x="711" y="231"/>
      <point x="817" y="263"/>
      <point x="876" y="313" type="curve"/>
    </contour>
  </outline>
</glyph>
<glyph name="FemOrdIndicator" format="1">
  <advance width="677"/>
  <unicode hex="00AA"/>
  <outline>
    <contour>
      <point x="467" y="735" type="line"/>
      <point x="467" y="696"/>
      <point x="481" y="602"/>
      <point x="497" y="576" type="curve"/>
      <point x="641" y="576" type="line"/>
      <point x="620" y="636"/>
      <point x="607" y="727"/>
      <point x="607" y="865" type="curve" smooth="yes"/>
      <point x="607" y="1118" type="line"/>
      <point x="545" y="1131"/>
      <point x="462" y="1141"/>
      <point x="385" y="1141" type="curve" smooth="yes"/>
      <point x="159" y="1141"/>
      <point x="59" y="972"/>
      <point x="59" y="798" type="curve" smooth="yes"/>
      <point x="59" y="645"/>
      <point x="130" y="563"/>
      <point x="223" y="563" type="curve" smooth="yes"/>
      <point x="328" y="563"/>
      <point x="422" y="686"/>
      <point x="467" y="792" type="curve"/>
    </contour>
    <contour>
      <point x="451" y="990" type="line" smooth="yes"/>
      <point x="451" y="925"/>
      <point x="353" y="692"/>
      <point x="271" y="692" type="curve" smooth="yes"/>
      <point x="240" y="692"/>
      <point x="212" y="735"/>
      <point x="212" y="798" type="curve" smooth="yes"/>
      <point x="212" y="911"/>
      <point x="247" y="1019"/>
      <point x="362" y="1019" type="curve" smooth="yes"/>
      <point x="407" y="1019"/>
      <point x="436" y="1013"/>
      <point x="451" y="1009" type="curve"/>
    </contour>
    <contour>
      <point x="67" y="377" type="line"/>
      <point x="644" y="377" type="line"/>
      <point x="644" y="502" type="line"/>
      <point x="67" y="502" type="line"/>
    </contour>
  </outline>
</glyph>
<glyph name="NotSgn" format="1">
  <advance width="1003"/>
  <unicode hex="00AC"/>
  <outline>
    <contour>
      <point x="903" y="284" type="line"/>
      <point x="903" y="694" type="line"/>
      <point x="79" y="694" type="line"/>
      <point x="79" y="518" type="line"/>
      <point x="727" y="518" type="line"/>
      <point x="727" y="284" type="line"/>
    </contour>
  </outline>
</glyph>
<glyph name="logicalnot" format="1">
  <advance width="1003"/>
  <unicode hex="00AC"/>
  <outline>
    <contour>
      <point x="903" y="284" type="line"/>
      <point x="903" y="694" type="line"/>
      <point x="79" y="694" type="line"/>
      <point x="79" y="518" type="line"/>
      <point x="727" y="518" type="line"/>
      <point x="727" y="284" type="line"/>
    </contour>
  </outline>
</glyph>
<glyph name="macron" format="1">
  <advance width="694"/>
  <unicode hex="00AF"/>
  <outline>
    <contour>
      <point x="0" y="1037" type="line"/>
      <point x="694" y="1037" type="line"/>
      <point x="694" y="1212" type="line"/>
      <point x="0" y="1212" type="line"/>
    </contour>
  </outline>
</glyph>
<glyph name="PlusMinusSgn" format="1">
  <advance width="1003"/>
  <unicode hex="00B1"/>
  <outline>
    <contour>
      <point x="414" y="1141" type="line"/>
      <point x="414" y="393" type="line"/>
      <point x="589" y="393" type="line"/>
      <point x="589" y="1141" type="line"/>
    </contour>
    <contour>
      <point x="130" y="673" type="line"/>
      <point x="874" y="673" type="line"/>
      <point x="874" y="849" type="line"/>
      <point x="130" y="849" type="line"/>
    </contour>
    <contour>
      <point x="130" y="134" type="line"/>
      <point x="874" y="134" type="line"/>
      <point x="874" y="309" type="line"/>
      <point x="130" y="309" type="line"/>
    </contour>
  </outline>
</glyph>
<glyph name="twosuperior" format="1">
  <advance width="702"/>
  <unicode hex="00B2"/>
  <outline>
    <contour>
      <point x="642" y="710" type="line"/>
      <point x="595" y="702"/>
      <point x="555" y="701"/>
      <point x="440" y="701" type="curve" smooth="yes"/>
      <point x="285" y="701" type="line"/>
      <point x="413" y="798"/>
      <point x="616" y="970"/>
      <point x="616" y="1147" type="curve" smooth="yes"/>
      <point x="616" y="1287"/>
      <point x="502" y="1375"/>
      <point x="332" y="1375" type="curve" smooth="yes"/>
      <point x="233" y="1375"/>
      <point x="119" y="1330"/>
      <point x="65" y="1269" type="curve"/>
      <point x="104" y="1139" type="line"/>
      <point x="155" y="1198"/>
      <point x="245" y="1240"/>
      <point x="318" y="1240" type="curve" smooth="yes"/>
      <point x="407" y="1240"/>
      <point x="448" y="1184"/>
      <point x="448" y="1120" type="curve" smooth="yes"/>
      <point x="448" y="981"/>
      <point x="227" y="794"/>
      <point x="69" y="688" type="curve"/>
      <point x="69" y="568" type="line"/>
      <point x="642" y="568" type="line"/>
    </contour>
    <contour>
      <point x="351" y="1400" type="move" name="U"/>
    </contour>
    <contour>
      <point x="351" y="514" type="move" name="L"/>
    </contour>
  </outline>
</glyph>
<glyph name="acute" format="1">
  <advance width="535"/>
  <unicode hex="00B4"/>
  <outline>
    <contour>
      <point x="242" y="1338" type="line"/>
      <point x="0" y="1003" type="line"/>
      <point x="201" y="1003" type="line"/>
      <point x="535" y="1338" type="line"/>
    </contour>
    <contour>
      <point x="159" y="1367" type="move" name="U"/>
    </contour>
  </outline>
</glyph>
<glyph name="micro" format="1">
  <advance width="1041"/>
  <unicode hex="00B5"/>
  <outline>
    <contour>
      <point x="970" y="0" type="line"/>
      <point x="935" y="94"/>
      <point x="915" y="214"/>
      <point x="915" y="376" type="curve" smooth="yes"/>
      <point x="915" y="528"/>
      <point x="915" y="853"/>
      <point x="915" y="853" type="curve"/>
      <point x="665" y="853" type="line"/>
      <point x="680" y="751"/>
      <point x="681" y="696"/>
      <point x="681" y="585" type="curve" smooth="yes"/>
      <point x="681" y="349" type="line"/>
      <point x="654" y="273"/>
      <point x="564" y="172"/>
      <point x="502" y="172" type="curve" smooth="yes"/>
      <point x="390" y="172"/>
      <point x="355" y="237"/>
      <point x="355" y="389" type="curve" smooth="yes"/>
      <point x="355" y="517"/>
      <point x="355" y="853"/>
      <point x="355" y="853" type="curve"/>
      <point x="105" y="853" type="line"/>
      <point x="120" y="752"/>
      <point x="121" y="691"/>
      <point x="121" y="585" type="curve" smooth="yes"/>
      <point x="121" y="-410" type="line"/>
      <point x="376" y="-410" type="line"/>
      <point x="362" y="-339"/>
      <point x="355" y="-259"/>
      <point x="355" y="-125" type="curve"/>
      <point x="355" y="21" type="line"/>
      <point x="394" y="-16"/>
      <point x="436" y="-21"/>
      <point x="483" y="-21" type="curve" smooth="yes"/>
      <point x="548" y="-21"/>
      <point x="634" y="40"/>
      <point x="702" y="155" type="curve"/>
      <point x="711" y="97"/>
      <point x="732" y="36"/>
      <point x="748" y="0" type="curve"/>
    </contour>
  </outline>
</glyph>
<glyph name="PilcrowSgn" format="1">
  <advance width="924"/>
  <unicode hex="00B6"/>
  <outline>
    <contour>
      <point x="874" y="1099" type="line"/>
      <point x="874" y="1221" type="line"/>
      <point x="385" y="1221" type="line" smooth="yes"/>
      <point x="236" y="1221"/>
      <point x="42" y="1155"/>
      <point x="42" y="922" type="curve" smooth="yes"/>
      <point x="42" y="690"/>
      <point x="237" y="623"/>
      <point x="368" y="623" type="curve"/>
      <point x="368" y="0" type="line"/>
      <point x="506" y="0" type="line"/>
      <point x="506" y="1099" type="line"/>
      <point x="640" y="1099" type="line"/>
      <point x="640" y="0" type="line"/>
      <point x="777" y="0" type="line"/>
      <point x="777" y="1099" type="line"/>
    </contour>
  </outline>
</glyph>
<glyph name="SupOne" format="1">
  <advance width="702"/>
  <unicode hex="00B9"/>
  <outline>
    <contour>
      <point x="614" y="568" type="line"/>
      <point x="614" y="696" type="line"/>
      <point x="434" y="696" type="line"/>
      <point x="434" y="1362" type="line"/>
      <point x="273" y="1362" type="line"/>
      <point x="89" y="1263" type="line"/>
      <point x="109" y="1122" type="line"/>
      <point x="273" y="1204" type="line"/>
      <point x="273" y="696" type="line"/>
      <point x="93" y="696" type="line"/>
      <point x="93" y="568" type="line"/>
    </contour>
    <contour>
      <point x="351.0" y="1400.0" type="move" name="U"/>
    </contour>
    <contour>
      <point x="351.0" y="514.0" type="move" name="L"/>
    </contour>
  </outline>
</glyph>
<glyph name="onesuperior" format="1">
  <advance width="702"/>
  <unicode hex="00B9"/>
  <outline>
    <contour>
      <point x="614" y="568" type="line"/>
      <point x="614" y="696" type="line"/>
      <point x="434" y="696" type="line"/>
      <point x="434" y="1362" type="line"/>
      <point x="273" y="1362" type="line"/>
      <point x="89" y="1263" type="line"/>
      <point x="109" y="1122" type="line"/>
      <point x="273" y="1204" type="line"/>
      <point x="273" y="696" type="line"/>
      <point x="93" y="696" type="line"/>
      <point x="93" y="568" type="line"/>
    </contour>
    <contour>
      <point x="351" y="1400" type="move" name="U"/>
    </contour>
    <contour>
      <point x="351" y="514" type="move" name="L"/>
    </contour>
  </outline>
</glyph>
<glyph name="guillemetright" format="1">
  <advance width="1092"/>
  <unicode hex="00BB"/>
  <outline>
    <contour>
      <point x="670" y="0" type="line"/>
      <point x="1033" y="426" type="line"/>
      <point x="670" y="853" type="line"/>
      <point x="465" y="853" type="line"/>
      <point x="774" y="426" type="line"/>
      <point x="465" y="0" type="line"/>
    </contour>
    <contour>
      <point x="247" y="0" type="line"/>
      <point x="610" y="426" type="line"/>
      <point x="247" y="853" type="line"/>
      <point x="42" y="853" type="line"/>
      <point x="351" y="426" type="line"/>
      <point x="42" y="0" type="line"/>
    </contour>
  </outline>
</glyph>
<glyph name="onequarter" format="1">
  <advance width="1443"/>
  <unicode hex="00BC"/>
  <outline>
    <contour>
      <point x="1401" y="184" type="line"/>
      <point x="1401" y="303" type="line"/>
      <point x="949" y="303" type="line"/>
      <point x="1175" y="611" type="line"/>
      <point x="1175" y="0" type="line"/>
      <point x="1316" y="0" type="line"/>
      <point x="1316" y="779" type="line"/>
      <point x="1156" y="779" type="line"/>
      <point x="818" y="303" type="line"/>
      <point x="818" y="184" type="line"/>
    </contour>
    <contour>
      <point x="1135" y="1338" type="line"/>
      <point x="240" y="-42" type="line"/>
      <point x="382" y="-42" type="line"/>
      <point x="1278" y="1338" type="line"/>
    </contour>
    <contour>
      <point x="213" y="686" type="line"/>
      <point x="50" y="686" type="line"/>
      <point x="50" y="560" type="line"/>
      <point x="498" y="560" type="line"/>
      <point x="498" y="686" type="line"/>
      <point x="351" y="686" type="line"/>
      <point x="351" y="1329" type="line"/>
      <point x="213" y="1329" type="line"/>
      <point x="42" y="1232" type="line"/>
      <point x="64" y="1093" type="line"/>
      <point x="213" y="1175" type="line"/>
    </contour>
  </outline>
</glyph>
<glyph name="VulgFracThreeQuarters" format="1">
  <advance width="1443"/>
  <unicode hex="00BE"/>
  <outline>
    <contour>
      <point x="1131" y="1338" type="line"/>
      <point x="236" y="-42" type="line"/>
      <point x="378" y="-42" type="line"/>
      <point x="1274" y="1338" type="line"/>
    </contour>
    <contour>
      <point x="196" y="1022" type="line"/>
      <point x="196" y="895" type="line"/>
      <point x="243" y="895" type="line" smooth="yes"/>
      <point x="364" y="895"/>
      <point x="432" y="844"/>
      <point x="432" y="777" type="curve" smooth="yes"/>
      <point x="432" y="706"/>
      <point x="365" y="664"/>
      <point x="289" y="664" type="curve" smooth="yes"/>
      <point x="204" y="664"/>
      <point x="118" y="701"/>
      <point x="60" y="767" type="curve"/>
      <point x="42" y="621" type="line"/>
      <point x="97" y="568"/>
      <point x="184" y="538"/>
      <point x="278" y="538" type="curve" smooth="yes"/>
      <point x="453" y="538"/>
      <point x="584" y="642"/>
      <point x="584" y="767" type="curve" smooth="yes"/>
      <point x="584" y="910"/>
      <point x="463" y="954"/>
      <point x="387" y="966" type="curve"/>
      <point x="463" y="982"/>
      <point x="558" y="1061"/>
      <point x="558" y="1158" type="curve" smooth="yes"/>
      <point x="558" y="1272"/>
      <point x="450" y="1342"/>
      <point x="297" y="1342" type="curve" smooth="yes"/>
      <point x="208" y="1342"/>
      <point x="116" y="1305"/>
      <point x="74" y="1257" type="curve"/>
      <point x="92" y="1134" type="line"/>
      <point x="152" y="1196"/>
      <point x="220" y="1216"/>
      <point x="302" y="1216" type="curve" smooth="yes"/>
      <point x="354" y="1216"/>
      <point x="409" y="1186"/>
      <point x="409" y="1138" type="curve" smooth="yes"/>
      <point x="409" y="1080"/>
      <point x="340" y="1022"/>
      <point x="243" y="1022" type="curve" smooth="yes"/>
    </contour>
    <contour>
      <point x="1401" y="184" type="line"/>
      <point x="1401" y="303" type="line"/>
      <point x="949" y="303" type="line"/>
      <point x="1175" y="611" type="line"/>
      <point x="1175" y="0" type="line"/>
      <point x="1316" y="0" type="line"/>
      <point x="1316" y="779" type="line"/>
      <point x="1156" y="779" type="line"/>
      <point x="818" y="303" type="line"/>
      <point x="818" y="184" type="line"/>
    </contour>
  </outline>
</glyph>
<glyph name="questiondown" format="1">
  <advance width="911"/>
  <unicode hex="00BF"/>
  <outline>
    <contour>
      <point x="334" y="489" type="line"/>
      <point x="334" y="346"/>
      <point x="311" y="234"/>
      <point x="228" y="108" type="curve" smooth="yes"/>
      <point x="170" y="18"/>
      <point x="117" y="-27"/>
      <point x="117" y="-113" type="curve" smooth="yes"/>
      <point x="117" y="-265"/>
      <point x="237" y="-380"/>
      <point x="451" y="-380" type="curve" smooth="yes"/>
      <point x="573" y="-380"/>
      <point x="697" y="-322"/>
      <point x="752" y="-269" type="curve"/>
      <point x="715" y="-69" type="line"/>
      <point x="651" y="-135"/>
      <point x="558" y="-176"/>
      <point x="475" y="-176" type="curve" smooth="yes"/>
      <point x="394" y="-176"/>
      <point x="355" y="-137"/>
      <point x="355" y="-88" type="curve" smooth="yes"/>
      <point x="355" y="-45"/>
      <point x="411" y="12"/>
      <point x="456" y="88" type="curve" smooth="yes"/>
      <point x="505" y="173"/>
      <point x="556" y="314"/>
      <point x="556" y="489" type="curve"/>
    </contour>
    <contour>
      <point x="589" y="782" type="curve" smooth="yes"/>
      <point x="589" y="869"/>
      <point x="528" y="928"/>
      <point x="443" y="928" type="curve" smooth="yes"/>
      <point x="358" y="928"/>
      <point x="297" y="869"/>
      <point x="297" y="782" type="curve" smooth="yes"/>
      <point x="297" y="696"/>
      <point x="358" y="635"/>
      <point x="443" y="635" type="curve" smooth="yes"/>
      <point x="528" y="635"/>
      <point x="589" y="696"/>
    </contour>
  </outline>
</glyph>
<glyph name="AE" format="1">
  <advance width="1531"/>
  <unicode hex="00C6"/>
  <outline>
    <contour>
      <point x="1346" y="543" type="line"/>
      <point x="1346" y="732" type="line"/>
      <point x="974" y="732" type="line"/>
      <point x="974" y="1028" type="line"/>
      <point x="1409" y="1028" type="line"/>
      <point x="1409" y="1221" type="line"/>
      <point x="615" y="1221" type="line"/>
      <point x="164" y="297" type="line" smooth="yes"/>
      <point x="86" y="139"/>
      <point x="49" y="68"/>
      <point x="8" y="0" type="curve"/>
      <point x="257" y="0" type="line"/>
      <point x="395" y="297" type="line"/>
      <point x="736" y="297" type="line"/>
      <point x="734" y="98"/>
      <point x="730" y="38"/>
      <point x="723" y="0" type="curve"/>
      <point x="1434" y="0" type="line"/>
      <point x="1434" y="205" type="line"/>
      <point x="1369" y="193"/>
      <point x="1265" y="192"/>
      <point x="1105" y="192" type="curve" smooth="yes"/>
      <point x="974" y="192" type="line"/>
      <point x="974" y="543" type="line"/>
    </contour>
    <contour>
      <point x="736" y="1028" type="line"/>
      <point x="736" y="477" type="line"/>
      <point x="479" y="477" type="line"/>
    </contour>
    <contour>
      <point x="844" y="1279" type="move" name="U"/>
    </contour>
    <contour>
      <point x="844" y="-84" type="move" name="L"/>
    </contour>
  </outline>
</glyph>
<glyph name="LtnCapEth" format="1">
  <advance width="1254.0"/>
  <unicode hex="00D0"/>
  <outline>
    <contour>
      <point x="150" y="380" type="line"/>
      <point x="150" y="215"/>
      <point x="150" y="67"/>
      <point x="138" y="0" type="curve"/>
      <point x="138" y="0"/>
      <point x="409" y="-8"/>
      <point x="522" y="-8" type="curve" smooth="yes"/>
      <point x="781" y="-8"/>
      <point x="1158" y="121"/>
      <point x="1158" y="619" type="curve" smooth="yes"/>
      <point x="1158" y="1149"/>
      <point x="770" y="1229"/>
      <point x="539" y="1229" type="curve" smooth="yes"/>
      <point x="420" y="1229"/>
      <point x="212" y="1226"/>
      <point x="138" y="1221" type="curve"/>
      <point x="150" y="1154"/>
      <point x="150" y="1000"/>
      <point x="150" y="836" type="curve" smooth="yes"/>
    </contour>
    <contour>
      <point x="389" y="1037" type="line"/>
      <point x="424" y="1039"/>
      <point x="499" y="1042"/>
      <point x="545" y="1042" type="curve" smooth="yes"/>
      <point x="762" y="1042"/>
      <point x="914" y="935"/>
      <point x="914" y="602" type="curve" smooth="yes"/>
      <point x="914" y="298"/>
      <point x="728" y="185"/>
      <point x="542" y="185" type="curve" smooth="yes"/>
      <point x="476" y="185"/>
      <point x="421" y="190"/>
      <point x="389" y="193" type="curve"/>
    </contour>
    <contour>
      <point x="9" y="714" type="line"/>
      <point x="9" y="538" type="line"/>
      <point x="674" y="538" type="line"/>
      <point x="674" y="714" type="line"/>
    </contour>
    <contour>
      <point x="610.0" y="1279.0" type="move" name="U"/>
    </contour>
    <contour>
      <point x="610.0" y="-84.0" type="move" name="L"/>
    </contour>
  </outline>
</glyph>
<glyph name="multiply" format="1">
  <advance width="1003"/>
  <unicode hex="00D7"/>
  <outline>
    <contour>
      <point x="163" y="828" type="line"/>
      <point x="379" y="612" type="line"/>
      <point x="166" y="400" type="line"/>
      <point x="290" y="276" type="line"/>
      <point x="502" y="488" type="line"/>
      <point x="716" y="274" type="line"/>
      <point x="840" y="399" type="line"/>
      <point x="626" y="612" type="line"/>
      <point x="839" y="825" type="line"/>
      <point x="716" y="949" type="line"/>
      <point x="502" y="736" type="line"/>
      <point x="288" y="951" type="line"/>
    </contour>
  </outline>
</glyph>
<glyph name="Thorn" format="1">
  <advance width="1066"/>
  <unicode hex="00DE"/>
  <outline>
    <contour>
      <point x="376" y="1216" type="line"/>
      <point x="125" y="1216" type="line"/>
      <point x="138" y="1150"/>
      <point x="138" y="1000"/>
      <point x="138" y="836" type="curve" smooth="yes"/>
      <point x="138" y="364" type="line" smooth="yes"/>
      <point x="138" y="199"/>
      <point x="138" y="67"/>
      <point x="125" y="0" type="curve"/>
      <point x="389" y="0" type="line"/>
      <point x="377" y="65"/>
      <point x="376" y="100"/>
      <point x="376" y="266" type="curve"/>
      <point x="431" y="260"/>
      <point x="481" y="257"/>
      <point x="542" y="257" type="curve" smooth="yes"/>
      <point x="817" y="257"/>
      <point x="1003" y="415"/>
      <point x="1003" y="673" type="curve" smooth="yes"/>
      <point x="1003" y="929"/>
      <point x="820" y="1058"/>
      <point x="550" y="1058" type="curve" smooth="yes"/>
      <point x="495" y="1058"/>
      <point x="435" y="1056"/>
      <point x="376" y="1056" type="curve"/>
    </contour>
    <contour>
      <point x="376" y="865" type="line"/>
      <point x="423" y="868"/>
      <point x="455" y="869"/>
      <point x="520" y="869" type="curve" smooth="yes"/>
      <point x="696" y="869"/>
      <point x="765" y="786"/>
      <point x="765" y="665" type="curve" smooth="yes"/>
      <point x="765" y="514"/>
      <point x="678" y="439"/>
      <point x="517" y="439" type="curve" smooth="yes"/>
      <point x="465" y="439"/>
      <point x="412" y="441"/>
      <point x="376" y="447" type="curve"/>
    </contour>
    <contour>
      <point x="560" y="1279" type="move" name="U"/>
    </contour>
    <contour>
      <point x="585" y="-84" type="move" name="L"/>
    </contour>
  </outline>
</glyph>
<glyph name="LtnSmSharpS" format="1">
  <advance width="1188"/>
  <unicode hex="00DF"/>
  <outline>
    <contour>
      <point x="517" y="57" type="line"/>
      <point x="566" y="17"/>
      <point x="675" y="-21"/>
      <point x="767" y="-21" type="curve" smooth="yes"/>
      <point x="982" y="-21"/>
      <point x="1138" y="89"/>
      <point x="1138" y="274" type="curve" smooth="yes"/>
      <point x="1138" y="426"/>
      <point x="1038" y="493"/>
      <point x="944" y="549" type="curve" smooth="yes"/>
      <point x="859" y="599"/>
      <point x="778" y="637"/>
      <point x="778" y="715" type="curve" smooth="yes"/>
      <point x="778" y="844"/>
      <point x="1040" y="815"/>
      <point x="1040" y="1057" type="curve" smooth="yes"/>
      <point x="1040" y="1208"/>
      <point x="895" y="1354"/>
      <point x="610" y="1354" type="curve" smooth="yes"/>
      <point x="378" y="1354"/>
      <point x="150" y="1237"/>
      <point x="150" y="936" type="curve" smooth="yes"/>
      <point x="150" y="413" type="line" smooth="yes"/>
      <point x="150" y="251"/>
      <point x="144" y="88"/>
      <point x="125" y="0" type="curve"/>
      <point x="385" y="0" type="line"/>
      <point x="385" y="953" type="line" smooth="yes"/>
      <point x="385" y="1078"/>
      <point x="474" y="1168"/>
      <point x="634" y="1168" type="curve" smooth="yes"/>
      <point x="716" y="1168"/>
      <point x="814" y="1119"/>
      <point x="814" y="1048" type="curve" smooth="yes"/>
      <point x="814" y="913"/>
      <point x="552" y="910"/>
      <point x="552" y="706" type="curve" smooth="yes"/>
      <point x="552" y="582"/>
      <point x="624" y="516"/>
      <point x="705" y="465" type="curve" smooth="yes"/>
      <point x="803" y="402"/>
      <point x="912" y="363"/>
      <point x="912" y="267" type="curve" smooth="yes"/>
      <point x="912" y="203"/>
      <point x="851" y="167"/>
      <point x="769" y="167" type="curve" smooth="yes"/>
      <point x="692" y="167"/>
      <point x="605" y="205"/>
      <point x="559" y="245" type="curve"/>
    </contour>
    <contour>
      <point x="610.0" y="1367.0" type="move" name="U"/>
    </contour>
    <contour>
      <point x="592.0" y="-84.0" type="move" name="L"/>
    </contour>
  </outline>
</glyph>
<glyph name="germandbls" format="1">
  <advance width="1188"/>
  <unicode hex="00DF"/>
  <outline>
    <contour>
      <point x="517" y="57" type="line"/>
      <point x="566" y="17"/>
      <point x="675" y="-21"/>
      <point x="767" y="-21" type="curve" smooth="yes"/>
      <point x="982" y="-21"/>
      <point x="1138" y="89"/>
      <point x="1138" y="274" type="curve" smooth="yes"/>
      <point x="1138" y="426"/>
      <point x="1038" y="493"/>
      <point x="944" y="549" type="curve" smooth="yes"/>
      <point x="859" y="599"/>
      <point x="778" y="637"/>
      <point x="778" y="715" type="curve" smooth="yes"/>
      <point x="778" y="844"/>
      <point x="1040" y="815"/>
      <point x="1040" y="1057" type="curve" smooth="yes"/>
      <point x="1040" y="1208"/>
      <point x="895" y="1354"/>
      <point x="610" y="1354" type="curve" smooth="yes"/>
      <point x="378" y="1354"/>
      <point x="150" y="1237"/>
      <point x="150" y="936" type="curve" smooth="yes"/>
      <point x="150" y="413" type="line" smooth="yes"/>
      <point x="150" y="251"/>
      <point x="144" y="88"/>
      <point x="125" y="0" type="curve"/>
      <point x="385" y="0" type="line"/>
      <point x="385" y="953" type="line" smooth="yes"/>
      <point x="385" y="1078"/>
      <point x="474" y="1168"/>
      <point x="634" y="1168" type="curve" smooth="yes"/>
      <point x="716" y="1168"/>
      <point x="814" y="1119"/>
      <point x="814" y="1048" type="curve" smooth="yes"/>
      <point x="814" y="913"/>
      <point x="552" y="910"/>
      <point x="552" y="706" type="curve" smooth="yes"/>
      <point x="552" y="582"/>
      <point x="624" y="516"/>
      <point x="705" y="465" type="curve" smooth="yes"/>
      <point x="803" y="402"/>
      <point x="912" y="363"/>
      <point x="912" y="267" type="curve" smooth="yes"/>
      <point x="912" y="203"/>
      <point x="851" y="167"/>
      <point x="769" y="167" type="curve" smooth="yes"/>
      <point x="692" y="167"/>
      <point x="605" y="205"/>
      <point x="559" y="245" type="curve"/>
    </contour>
    <contour>
      <point x="610" y="1367" type="move" name="U"/>
    </contour>
    <contour>
      <point x="592" y="-84" type="move" name="L"/>
    </contour>
  </outline>
</glyph>
<glyph name="ae" format="1">
  <advance width="1486"/>
  <unicode hex="00E6"/>
  <outline>
    <contour>
      <point x="1389" y="256" type="line"/>
      <point x="1286" y="194"/>
      <point x="1181" y="171"/>
      <point x="1072" y="171" type="curve" smooth="yes"/>
      <point x="946" y="171"/>
      <point x="874" y="232"/>
      <point x="863" y="376" type="curve"/>
      <point x="1403" y="376" type="line"/>
      <point x="1403" y="445" type="line" smooth="yes"/>
      <point x="1403" y="654"/>
      <point x="1331" y="869"/>
      <point x="1051" y="869" type="curve" smooth="yes"/>
      <point x="946" y="869"/>
      <point x="856" y="831"/>
      <point x="787" y="765" type="curve"/>
      <point x="724" y="829"/>
      <point x="630" y="869"/>
      <point x="514" y="869" type="curve" smooth="yes"/>
      <point x="373" y="869"/>
      <point x="275" y="831"/>
      <point x="180" y="794" type="curve"/>
      <point x="175" y="726"/>
      <point x="172" y="614"/>
      <point x="171" y="578" type="curve"/>
      <point x="269" y="646"/>
      <point x="354" y="682"/>
      <point x="443" y="682" type="curve" smooth="yes"/>
      <point x="568" y="682"/>
      <point x="644" y="656"/>
      <point x="644" y="594" type="curve" smooth="yes"/>
      <point x="644" y="540" type="line"/>
      <point x="609" y="538"/>
      <point x="476" y="533"/>
      <point x="418" y="528" type="curve" smooth="yes"/>
      <point x="159" y="505"/>
      <point x="84" y="366"/>
      <point x="84" y="238" type="curve" smooth="yes"/>
      <point x="84" y="101"/>
      <point x="205" y="-21"/>
      <point x="372" y="-21" type="curve" smooth="yes"/>
      <point x="470" y="-21"/>
      <point x="571" y="24"/>
      <point x="669" y="113" type="curve" smooth="yes"/>
      <point x="678" y="121"/>
      <point x="696" y="139"/>
      <point x="706" y="150" type="curve"/>
      <point x="782" y="36"/>
      <point x="911" y="-21"/>
      <point x="1051" y="-21" type="curve" smooth="yes"/>
      <point x="1181" y="-21"/>
      <point x="1287" y="2"/>
      <point x="1407" y="63" type="curve"/>
    </contour>
    <contour>
      <point x="635" y="385" type="curve"/>
      <point x="635" y="359"/>
      <point x="639" y="330"/>
      <point x="645" y="298" type="curve"/>
      <point x="640" y="289"/>
      <point x="634" y="283"/>
      <point x="628" y="275" type="curve" smooth="yes"/>
      <point x="556" y="186"/>
      <point x="497" y="171"/>
      <point x="433" y="171" type="curve" smooth="yes"/>
      <point x="364" y="171"/>
      <point x="318" y="214"/>
      <point x="318" y="268" type="curve" smooth="yes"/>
      <point x="318" y="323"/>
      <point x="352" y="360"/>
      <point x="468" y="373" type="curve" smooth="yes"/>
      <point x="507" y="377"/>
      <point x="596" y="383"/>
    </contour>
    <contour>
      <point x="868" y="527" type="line"/>
      <point x="887" y="645"/>
      <point x="943" y="694"/>
      <point x="1039" y="694" type="curve" smooth="yes"/>
      <point x="1138" y="694"/>
      <point x="1190" y="644"/>
      <point x="1190" y="527" type="curve"/>
    </contour>
    <contour>
      <point x="1325" y="0" type="move" name="O"/>
    </contour>
    <contour>
      <point x="1034" y="0" type="move" name="H"/>
    </contour>
    <contour>
      <point x="1517" y="836" type="move" name="R"/>
    </contour>
    <contour>
      <point x="787" y="920" type="move" name="U"/>
    </contour>
    <contour>
      <point x="715" y="-84" type="move" name="L"/>
    </contour>
  </outline>
</glyph>
<glyph name="eth" format="1">
  <advance width="972"/>
  <unicode hex="00F0"/>
  <outline>
    <contour>
      <point x="216" y="1281" type="line"/>
      <point x="398" y="1193"/>
      <point x="595" y="951"/>
      <point x="661" y="726" type="curve"/>
      <point x="604" y="798"/>
      <point x="540" y="836"/>
      <point x="439" y="836" type="curve" smooth="yes"/>
      <point x="278" y="836"/>
      <point x="75" y="678"/>
      <point x="75" y="407" type="curve" smooth="yes"/>
      <point x="75" y="128"/>
      <point x="240" y="-21"/>
      <point x="476" y="-21" type="curve" smooth="yes"/>
      <point x="737" y="-21"/>
      <point x="894" y="155"/>
      <point x="894" y="507" type="curve" smooth="yes"/>
      <point x="894" y="861"/>
      <point x="655" y="1214"/>
      <point x="420" y="1354" type="curve"/>
    </contour>
    <contour>
      <point x="310" y="407" type="curve" smooth="yes"/>
      <point x="310" y="557"/>
      <point x="375" y="654"/>
      <point x="484" y="654" type="curve" smooth="yes"/>
      <point x="589" y="654"/>
      <point x="660" y="563"/>
      <point x="660" y="407" type="curve" smooth="yes"/>
      <point x="660" y="257"/>
      <point x="594" y="160"/>
      <point x="484" y="160" type="curve" smooth="yes"/>
      <point x="381" y="160"/>
      <point x="310" y="250"/>
    </contour>
    <contour>
      <point x="841" y="1210" type="line"/>
      <point x="743" y="1328" type="line"/>
      <point x="250" y="1023" type="line"/>
      <point x="342" y="900" type="line"/>
    </contour>
    <contour>
      <point x="485" y="1367" type="move" name="U"/>
    </contour>
    <contour>
      <point x="485" y="-84" type="move" name="L"/>
    </contour>
  </outline>
</glyph>
<glyph name="DivSgn" format="1">
  <advance width="1003"/>
  <unicode hex="00F7"/>
  <outline>
    <contour>
      <point x="130" y="527" type="line"/>
      <point x="874" y="527" type="line"/>
      <point x="874" y="702" type="line"/>
      <point x="130" y="702" type="line"/>
    </contour>
    <contour>
      <point x="355" y="276" type="curve" smooth="yes"/>
      <point x="355" y="189"/>
      <point x="417" y="130"/>
      <point x="502" y="130" type="curve" smooth="yes"/>
      <point x="587" y="130"/>
      <point x="648" y="189"/>
      <point x="648" y="276" type="curve" smooth="yes"/>
      <point x="648" y="361"/>
      <point x="587" y="422"/>
      <point x="502" y="422" type="curve" smooth="yes"/>
      <point x="417" y="422"/>
      <point x="355" y="361"/>
    </contour>
    <contour>
      <point x="355" y="953" type="curve" smooth="yes"/>
      <point x="355" y="866"/>
      <point x="417" y="807"/>
      <point x="502" y="807" type="curve" smooth="yes"/>
      <point x="587" y="807"/>
      <point x="648" y="866"/>
      <point x="648" y="953" type="curve" smooth="yes"/>
      <point x="648" y="1038"/>
      <point x="587" y="1099"/>
      <point x="502" y="1099" type="curve" smooth="yes"/>
      <point x="417" y="1099"/>
      <point x="355" y="1038"/>
    </contour>
  </outline>
</glyph>
<glyph name="oslash" format="1">
  <advance width="970"/>
  <unicode hex="00F8"/>
  <outline>
    <contour>
      <point x="75" y="424" type="curve" smooth="yes"/>
      <point x="75" y="136"/>
      <point x="241" y="-21"/>
      <point x="477" y="-21" type="curve" smooth="yes"/>
      <point x="702" y="-21"/>
      <point x="895" y="136"/>
      <point x="895" y="424" type="curve" smooth="yes"/>
      <point x="895" y="711"/>
      <point x="730" y="869"/>
      <point x="493" y="869" type="curve" smooth="yes"/>
      <point x="268" y="869"/>
      <point x="75" y="711"/>
    </contour>
    <contour>
      <point x="305" y="424" type="curve" smooth="yes"/>
      <point x="305" y="584"/>
      <point x="377" y="681"/>
      <point x="485" y="681" type="curve" smooth="yes"/>
      <point x="599" y="681"/>
      <point x="665" y="584"/>
      <point x="665" y="424" type="curve" smooth="yes"/>
      <point x="665" y="264"/>
      <point x="593" y="167"/>
      <point x="485" y="167" type="curve" smooth="yes"/>
      <point x="370" y="167"/>
      <point x="305" y="264"/>
    </contour>
    <contour>
      <point x="666" y="925" type="line"/>
      <point x="133" y="-64" type="line"/>
      <point x="308" y="-64" type="line"/>
      <point x="842" y="925" type="line"/>
    </contour>
    <contour>
      <point x="694" y="0" type="move" name="O"/>
    </contour>
    <contour>
      <point x="485" y="0" type="move" name="H"/>
    </contour>
    <contour>
      <point x="986" y="836" type="move" name="R"/>
    </contour>
    <contour>
      <point x="485" y="920" type="move" name="U"/>
    </contour>
    <contour>
      <point x="485" y="-84" type="move" name="L"/>
    </contour>
  </outline>
</glyph>
<glyph name="LtnCapLigOe" format="1">
  <advance width="1664"/>
  <unicode hex="0152"/>
  <outline>
    <contour>
      <point x="1568" y="0" type="line"/>
      <point x="1568" y="205" type="line"/>
      <point x="1502" y="193"/>
      <point x="1389" y="192"/>
      <point x="1230" y="192" type="curve" smooth="yes"/>
      <point x="1098" y="192" type="line"/>
      <point x="1098" y="543" type="line"/>
      <point x="1480" y="543" type="line"/>
      <point x="1480" y="732" type="line"/>
      <point x="1098" y="732" type="line"/>
      <point x="1098" y="1028" type="line"/>
      <point x="1542" y="1028" type="line"/>
      <point x="1542" y="1221" type="line"/>
      <point x="847" y="1221" type="line"/>
      <point x="847" y="1148" type="line"/>
      <point x="783" y="1204"/>
      <point x="690" y="1241"/>
      <point x="601" y="1241" type="curve" smooth="yes"/>
      <point x="328" y="1241"/>
      <point x="79" y="1002"/>
      <point x="79" y="602" type="curve" smooth="yes"/>
      <point x="79" y="201"/>
      <point x="313" y="-21"/>
      <point x="585" y="-21" type="curve" smooth="yes"/>
      <point x="679" y="-21"/>
      <point x="778" y="21"/>
      <point x="847" y="85" type="curve"/>
      <point x="847" y="0" type="line"/>
    </contour>
    <contour>
      <point x="865" y="598" type="curve" smooth="yes"/>
      <point x="865" y="338"/>
      <point x="744" y="184"/>
      <point x="594" y="184" type="curve" smooth="yes"/>
      <point x="431" y="184"/>
      <point x="318" y="354"/>
      <point x="318" y="623" type="curve" smooth="yes"/>
      <point x="318" y="876"/>
      <point x="434" y="1037"/>
      <point x="594" y="1037" type="curve" smooth="yes"/>
      <point x="752" y="1037"/>
      <point x="865" y="870"/>
    </contour>
    <contour>
      <point x="845.0" y="1279.0" type="move" name="U"/>
    </contour>
    <contour>
      <point x="845.0" y="-84.0" type="move" name="L"/>
    </contour>
  </outline>
</glyph>
<glyph name="OE" format="1">
  <advance width="1664"/>
  <unicode hex="0152"/>
  <outline>
    <contour>
      <point x="1568" y="0" type="line"/>
      <point x="1568" y="205" type="line"/>
      <point x="1502" y="193"/>
      <point x="1389" y="192"/>
      <point x="1230" y="192" type="curve" smooth="yes"/>
      <point x="1098" y="192" type="line"/>
      <point x="1098" y="543" type="line"/>
      <point x="1480" y="543" type="line"/>
      <point x="1480" y="732" type="line"/>
      <point x="1098" y="732" type="line"/>
      <point x="1098" y="1028" type="line"/>
      <point x="1542" y="1028" type="line"/>
      <point x="1542" y="1221" type="line"/>
      <point x="847" y="1221" type="line"/>
      <point x="847" y="1148" type="line"/>
      <point x="783" y="1204"/>
      <point x="690" y="1241"/>
      <point x="601" y="1241" type="curve" smooth="yes"/>
      <point x="328" y="1241"/>
      <point x="79" y="1002"/>
      <point x="79" y="602" type="curve" smooth="yes"/>
      <point x="79" y="201"/>
      <point x="313" y="-21"/>
      <point x="585" y="-21" type="curve" smooth="yes"/>
      <point x="679" y="-21"/>
      <point x="778" y="21"/>
      <point x="847" y="85" type="curve"/>
      <point x="847" y="0" type="line"/>
    </contour>
    <contour>
      <point x="865" y="598" type="curve" smooth="yes"/>
      <point x="865" y="338"/>
      <point x="744" y="184"/>
      <point x="594" y="184" type="curve" smooth="yes"/>
      <point x="431" y="184"/>
      <point x="318" y="354"/>
      <point x="318" y="623" type="curve" smooth="yes"/>
      <point x="318" y="876"/>
      <point x="434" y="1037"/>
      <point x="594" y="1037" type="curve" smooth="yes"/>
      <point x="752" y="1037"/>
      <point x="865" y="870"/>
    </contour>
    <contour>
      <point x="845" y="1279" type="move" name="U"/>
    </contour>
    <contour>
      <point x="845" y="-84" type="move" name="L"/>
    </contour>
  </outline>
</glyph>
<glyph name="oe" format="1">
  <advance width="1513"/>
  <unicode hex="0153"/>
  <outline>
    <contour>
      <point x="1416" y="256" type="line"/>
      <point x="1313" y="194"/>
      <point x="1208" y="171"/>
      <point x="1099" y="171" type="curve" smooth="yes"/>
      <point x="972" y="171"/>
      <point x="901" y="232"/>
      <point x="890" y="376" type="curve"/>
      <point x="1429" y="376" type="line"/>
      <point x="1430" y="392"/>
      <point x="1430" y="423"/>
      <point x="1430" y="445" type="curve" smooth="yes"/>
      <point x="1430" y="654"/>
      <point x="1358" y="869"/>
      <point x="1078" y="869" type="curve" smooth="yes"/>
      <point x="954" y="869"/>
      <point x="853" y="828"/>
      <point x="782" y="755" type="curve"/>
      <point x="711" y="829"/>
      <point x="611" y="869"/>
      <point x="493" y="869" type="curve" smooth="yes"/>
      <point x="268" y="869"/>
      <point x="75" y="711"/>
      <point x="75" y="424" type="curve" smooth="yes"/>
      <point x="75" y="136"/>
      <point x="241" y="-21"/>
      <point x="477" y="-21" type="curve" smooth="yes"/>
      <point x="592" y="-21"/>
      <point x="699" y="21"/>
      <point x="776" y="99" type="curve"/>
      <point x="853" y="20"/>
      <point x="961" y="-21"/>
      <point x="1078" y="-21" type="curve" smooth="yes"/>
      <point x="1208" y="-21"/>
      <point x="1313" y="2"/>
      <point x="1434" y="63" type="curve"/>
    </contour>
    <contour>
      <point x="309" y="424" type="curve" smooth="yes"/>
      <point x="309" y="584"/>
      <point x="377" y="681"/>
      <point x="485" y="681" type="curve" smooth="yes"/>
      <point x="599" y="681"/>
      <point x="660" y="584"/>
      <point x="660" y="424" type="curve" smooth="yes"/>
      <point x="660" y="264"/>
      <point x="593" y="167"/>
      <point x="485" y="167" type="curve" smooth="yes"/>
      <point x="370" y="167"/>
      <point x="309" y="264"/>
    </contour>
    <contour>
      <point x="895" y="527" type="line"/>
      <point x="914" y="645"/>
      <point x="970" y="694"/>
      <point x="1066" y="694" type="curve" smooth="yes"/>
      <point x="1165" y="694"/>
      <point x="1216" y="644"/>
      <point x="1216" y="527" type="curve"/>
    </contour>
    <contour>
      <point x="1311" y="0" type="move" name="O"/>
    </contour>
    <contour>
      <point x="1085" y="0" type="move" name="H"/>
    </contour>
    <contour>
      <point x="1537" y="836" type="move" name="R"/>
    </contour>
    <contour>
      <point x="780" y="920" type="move" name="U"/>
    </contour>
    <contour>
      <point x="780" y="-84" type="move" name="L"/>
    </contour>
  </outline>
</glyph>
<glyph name="florin" format="1">
  <advance width="669"/>
  <unicode hex="0192"/>
  <outline>
    <contour>
      <point x="25" y="673" type="line"/>
      <point x="640" y="673" type="line"/>
      <point x="640" y="840" type="line"/>
      <point x="25" y="840" type="line"/>
    </contour>
    <contour>
      <point x="723" y="1296" type="line"/>
      <point x="674" y="1328"/>
      <point x="584" y="1354"/>
      <point x="523" y="1354" type="curve" smooth="yes"/>
      <point x="316" y="1354"/>
      <point x="192" y="1230"/>
      <point x="192" y="978" type="curve" smooth="yes"/>
      <point x="192" y="935"/>
      <point x="192" y="63"/>
      <point x="192" y="-33" type="curve" smooth="yes"/>
      <point x="192" y="-126"/>
      <point x="166" y="-189"/>
      <point x="65" y="-189" type="curve" smooth="yes"/>
      <point x="5" y="-189"/>
      <point x="-46" y="-155"/>
      <point x="-82" y="-130" type="curve"/>
      <point x="-134" y="-325" type="line"/>
      <point x="-99" y="-352"/>
      <point x="-6" y="-393"/>
      <point x="72" y="-393" type="curve" smooth="yes"/>
      <point x="314" y="-393"/>
      <point x="426" y="-248"/>
      <point x="426" y="13" type="curve" smooth="yes"/>
      <point x="426" y="109"/>
      <point x="426" y="879"/>
      <point x="426" y="969" type="curve" smooth="yes"/>
      <point x="426" y="1105"/>
      <point x="461" y="1160"/>
      <point x="542" y="1160" type="curve" smooth="yes"/>
      <point x="583" y="1160"/>
      <point x="640" y="1139"/>
      <point x="675" y="1105" type="curve"/>
    </contour>
    <contour>
      <point x="502" y="1367" type="move" name="U"/>
    </contour>
    <contour>
      <point x="257" y="-418" type="move" name="L"/>
    </contour>
  </outline>
</glyph>
<glyph name="circumflex" format="1">
  <advance width="736"/>
  <unicode hex="02C6"/>
  <outline>
    <contour>
      <point x="736" y="1003" type="line"/>
      <point x="493" y="1338" type="line"/>
      <point x="242" y="1338" type="line"/>
      <point x="0" y="1003" type="line"/>
      <point x="201" y="1003" type="line"/>
      <point x="368" y="1195" type="line"/>
      <point x="535" y="1003" type="line"/>
    </contour>
  </outline>
</glyph>
<glyph name="Caron" format="1">
  <advance width="736"/>
  <unicode hex="02C7"/>
  <outline>
    <contour>
      <point x="535" y="1338" type="line"/>
      <point x="368" y="1145" type="line"/>
      <point x="201" y="1338" type="line"/>
      <point x="0" y="1338" type="line"/>
      <point x="242" y="1003" type="line"/>
      <point x="493" y="1003" type="line"/>
      <point x="736" y="1338" type="line"/>
    </contour>
    <contour>
      <point x="368.0" y="1367.0" type="move" name="U"/>
    </contour>
  </outline>
</glyph>
<glyph name="caron" format="1">
  <advance width="736"/>
  <unicode hex="02C7"/>
  <outline>
    <contour>
      <point x="535" y="1338" type="line"/>
      <point x="368" y="1145" type="line"/>
      <point x="201" y="1338" type="line"/>
      <point x="0" y="1338" type="line"/>
      <point x="242" y="1003" type="line"/>
      <point x="493" y="1003" type="line"/>
      <point x="736" y="1338" type="line"/>
    </contour>
    <contour>
      <point x="368" y="1367" type="move" name="U"/>
    </contour>
  </outline>
</glyph>
<glyph name="Breve" format="1">
  <advance width="677"/>
  <unicode hex="02D8"/>
  <outline>
    <contour>
      <point x="518" y="1296" type="line"/>
      <point x="499" y="1195"/>
      <point x="423" y="1120"/>
      <point x="330" y="1120" type="curve" smooth="yes"/>
      <point x="238" y="1120"/>
      <point x="159" y="1195"/>
      <point x="142" y="1296" type="curve"/>
      <point x="-8" y="1296" type="line"/>
      <point x="-8" y="1134"/>
      <point x="125" y="953"/>
      <point x="330" y="953" type="curve" smooth="yes"/>
      <point x="533" y="953"/>
      <point x="669" y="1134"/>
      <point x="669" y="1296" type="curve"/>
    </contour>
    <contour>
      <point x="339.0" y="1363.0" type="move" name="U"/>
    </contour>
  </outline>
</glyph>
<glyph name="breve" format="1">
  <advance width="677"/>
  <unicode hex="02D8"/>
  <outline>
    <contour>
      <point x="518" y="1296" type="line"/>
      <point x="499" y="1195"/>
      <point x="423" y="1120"/>
      <point x="330" y="1120" type="curve" smooth="yes"/>
      <point x="238" y="1120"/>
      <point x="159" y="1195"/>
      <point x="142" y="1296" type="curve"/>
      <point x="-8" y="1296" type="line"/>
      <point x="-8" y="1134"/>
      <point x="125" y="953"/>
      <point x="330" y="953" type="curve" smooth="yes"/>
      <point x="533" y="953"/>
      <point x="669" y="1134"/>
      <point x="669" y="1296" type="curve"/>
    </contour>
    <contour>
      <point x="339" y="1363" type="move" name="U"/>
    </contour>
  </outline>
</glyph>
<glyph name="dotaccent" format="1">
  <advance width="293"/>
  <unicode hex="02D9"/>
  <outline>
    <contour>
      <point x="0" y="1158" type="curve" smooth="yes"/>
      <point x="0" y="1071"/>
      <point x="62" y="1012"/>
      <point x="146" y="1012" type="curve" smooth="yes"/>
      <point x="232" y="1012"/>
      <point x="293" y="1071"/>
      <point x="293" y="1158" type="curve" smooth="yes"/>
      <point x="293" y="1243"/>
      <point x="232" y="1304"/>
      <point x="146" y="1304" type="curve" smooth="yes"/>
      <point x="62" y="1304"/>
      <point x="0" y="1243"/>
    </contour>
  </outline>
</glyph>
<glyph name="RingAbv" format="1">
  <advance width="410"/>
  <unicode hex="02DA"/>
  <outline>
    <contour>
      <point x="284" y="1170" type="curve" smooth="yes"/>
      <point x="284" y="1124"/>
      <point x="251" y="1091"/>
      <point x="205" y="1091" type="curve" smooth="yes"/>
      <point x="159" y="1091"/>
      <point x="125" y="1124"/>
      <point x="125" y="1170" type="curve" smooth="yes"/>
      <point x="125" y="1216"/>
      <point x="159" y="1250"/>
      <point x="205" y="1250" type="curve" smooth="yes"/>
      <point x="251" y="1250"/>
      <point x="284" y="1216"/>
    </contour>
    <contour>
      <point x="0" y="1170" type="curve" smooth="yes"/>
      <point x="0" y="1053"/>
      <point x="88" y="970"/>
      <point x="205" y="970" type="curve" smooth="yes"/>
      <point x="322" y="970"/>
      <point x="410" y="1053"/>
      <point x="410" y="1170" type="curve" smooth="yes"/>
      <point x="410" y="1287"/>
      <point x="322" y="1371"/>
      <point x="205" y="1371" type="curve" smooth="yes"/>
      <point x="88" y="1371"/>
      <point x="0" y="1287"/>
    </contour>
  </outline>
</glyph>
<glyph name="hungarumlaut" format="1">
  <advance width="769"/>
  <unicode hex="02DD"/>
  <outline>
    <contour>
      <point x="176" y="1338" type="line"/>
      <point x="0" y="1003" type="line"/>
      <point x="176" y="1003" type="line"/>
      <point x="426" y="1338" type="line"/>
    </contour>
    <contour>
      <point x="518" y="1338" type="line"/>
      <point x="343" y="1003" type="line"/>
      <point x="518" y="1003" type="line"/>
      <point x="769" y="1338" type="line"/>
    </contour>
  </outline>
</glyph>
<glyph name="CombGrave" format="1">
  <advance width="0"/>
  <unicode hex="0300"/>
  <outline>
    <contour>
      <point x="-878" y="1338" type="line"/>
      <point x="-543" y="1003" type="line"/>
      <point x="-343" y="1003" type="line"/>
      <point x="-585" y="1338" type="line"/>
    </contour>
    <contour>
      <point x="-493.0" y="1367.0" type="move" name="U"/>
    </contour>
    <contour>
      <point x="-527.0" y="920.0" type="move" name="_U"/>
    </contour>
  </outline>
</glyph>
<glyph name="gravecomb" format="1">
  <advance width="0"/>
  <unicode hex="0300"/>
  <outline>
    <contour>
      <point x="-878" y="1338" type="line"/>
      <point x="-543" y="1003" type="line"/>
      <point x="-343" y="1003" type="line"/>
      <point x="-585" y="1338" type="line"/>
    </contour>
    <contour>
      <point x="-493" y="1367" type="move" name="U"/>
    </contour>
    <contour>
      <point x="-527" y="920" type="move" name="_U"/>
    </contour>
  </outline>
</glyph>
<glyph name="CombAcute" format="1">
  <advance width="0"/>
  <unicode hex="0301"/>
  <outline>
    <contour>
      <point x="-393" y="1338" type="line"/>
      <point x="-635" y="1003" type="line"/>
      <point x="-435" y="1003" type="line"/>
      <point x="-100" y="1338" type="line"/>
    </contour>
    <contour>
      <point x="-502.0" y="1367.0" type="move" name="U"/>
    </contour>
    <contour>
      <point x="-451.0" y="920.0" type="move" name="_U"/>
    </contour>
  </outline>
</glyph>
<glyph name="circumflexcomb" format="1">
  <advance width="0"/>
  <unicode hex="0302"/>
  <outline>
    <contour>
      <point x="-117" y="1003" type="line"/>
      <point x="-359" y="1338" type="line"/>
      <point x="-610" y="1338" type="line"/>
      <point x="-853" y="1003" type="line"/>
      <point x="-652" y="1003" type="line"/>
      <point x="-485" y="1195" type="line"/>
      <point x="-318" y="1003" type="line"/>
    </contour>
    <contour>
      <point x="-492" y="1367" type="move" name="U"/>
    </contour>
    <contour>
      <point x="-485" y="920" type="move" name="_U"/>
    </contour>
  </outline>
</glyph>
<glyph name="CombDiaer" format="1">
  <advance width="0"/>
  <unicode hex="0308"/>
  <outline>
    <contour>
      <point x="-426" y="1158" type="curve" smooth="yes"/>
      <point x="-426" y="1071"/>
      <point x="-364" y="1012"/>
      <point x="-280" y="1012" type="curve" smooth="yes"/>
      <point x="-195" y="1012"/>
      <point x="-134" y="1071"/>
      <point x="-134" y="1158" type="curve" smooth="yes"/>
      <point x="-134" y="1243"/>
      <point x="-195" y="1304"/>
      <point x="-280" y="1304" type="curve" smooth="yes"/>
      <point x="-364" y="1304"/>
      <point x="-426" y="1243"/>
    </contour>
    <contour>
      <point x="-836" y="1158" type="curve" smooth="yes"/>
      <point x="-836" y="1071"/>
      <point x="-774" y="1012"/>
      <point x="-690" y="1012" type="curve" smooth="yes"/>
      <point x="-604" y="1012"/>
      <point x="-543" y="1071"/>
      <point x="-543" y="1158" type="curve" smooth="yes"/>
      <point x="-543" y="1243"/>
      <point x="-604" y="1304"/>
      <point x="-690" y="1304" type="curve" smooth="yes"/>
      <point x="-774" y="1304"/>
      <point x="-836" y="1243"/>
    </contour>
    <contour>
      <point x="-485.0" y="1325.0" type="move" name="U"/>
    </contour>
    <contour>
      <point x="-485.0" y="920.0" type="move" name="_U"/>
    </contour>
  </outline>
</glyph>
<glyph name="dieresiscomb" format="1">
  <advance width="0"/>
  <unicode hex="0308"/>
  <outline>
    <contour>
      <point x="-426" y="1158" type="curve" smooth="yes"/>
      <point x="-426" y="1071"/>
      <point x="-364" y="1012"/>
      <point x="-280" y="1012" type="curve" smooth="yes"/>
      <point x="-195" y="1012"/>
      <point x="-134" y="1071"/>
      <point x="-134" y="1158" type="curve" smooth="yes"/>
      <point x="-134" y="1243"/>
      <point x="-195" y="1304"/>
      <point x="-280" y="1304" type="curve" smooth="yes"/>
      <point x="-364" y="1304"/>
      <point x="-426" y="1243"/>
    </contour>
    <contour>
      <point x="-836" y="1158" type="curve" smooth="yes"/>
      <point x="-836" y="1071"/>
      <point x="-774" y="1012"/>
      <point x="-690" y="1012" type="curve" smooth="yes"/>
      <point x="-604" y="1012"/>
      <point x="-543" y="1071"/>
      <point x="-543" y="1158" type="curve" smooth="yes"/>
      <point x="-543" y="1243"/>
      <point x="-604" y="1304"/>
      <point x="-690" y="1304" type="curve" smooth="yes"/>
      <point x="-774" y="1304"/>
      <point x="-836" y="1243"/>
    </contour>
    <contour>
      <point x="-485" y="1325" type="move" name="U"/>
    </contour>
    <contour>
      <point x="-485" y="920" type="move" name="_U"/>
    </contour>
  </outline>
</glyph>
<glyph name="CombCaron" format="1">
  <advance width="0"/>
  <unicode hex="030C"/>
  <outline>
    <contour>
      <point x="-318" y="1338" type="line"/>
      <point x="-485" y="1145" type="line"/>
      <point x="-652" y="1338" type="line"/>
      <point x="-853" y="1338" type="line"/>
      <point x="-610" y="1003" type="line"/>
      <point x="-359" y="1003" type="line"/>
      <point x="-117" y="1338" type="line"/>
    </contour>
    <contour>
      <point x="-492.0" y="1367.0" type="move" name="U"/>
    </contour>
    <contour>
      <point x="-492.0" y="920.0" type="move" name="_U"/>
    </contour>
  </outline>
</glyph>
<glyph name="caroncomb" format="1">
  <advance width="0"/>
  <unicode hex="030C"/>
  <outline>
    <contour>
      <point x="-318" y="1338" type="line"/>
      <point x="-485" y="1145" type="line"/>
      <point x="-652" y="1338" type="line"/>
      <point x="-853" y="1338" type="line"/>
      <point x="-610" y="1003" type="line"/>
      <point x="-359" y="1003" type="line"/>
      <point x="-117" y="1338" type="line"/>
    </contour>
    <contour>
      <point x="-492" y="1367" type="move" name="U"/>
    </contour>
    <contour>
      <point x="-492" y="920" type="move" name="_U"/>
    </contour>
  </outline>
</glyph>
<glyph name="cedillacomb" format="1">
  <advance width="0"/>
  <unicode hex="0327"/>
  <outline>
    <contour>
      <point x="-431" y="42" type="line"/>
      <point x="-431" y="-180" type="line"/>
      <point x="-413" y="-171"/>
      <point x="-378" y="-163"/>
      <point x="-347" y="-163" type="curve" smooth="yes"/>
      <point x="-306" y="-163"/>
      <point x="-272" y="-191"/>
      <point x="-272" y="-226" type="curve" smooth="yes"/>
      <point x="-272" y="-272"/>
      <point x="-322" y="-297"/>
      <point x="-372" y="-297" type="curve" smooth="yes"/>
      <point x="-411" y="-297"/>
      <point x="-448" y="-287"/>
      <point x="-472" y="-268" type="curve"/>
      <point x="-481" y="-376" type="line"/>
      <point x="-446" y="-395"/>
      <point x="-395" y="-410"/>
      <point x="-351" y="-410" type="curve" smooth="yes"/>
      <point x="-243" y="-410"/>
      <point x="-130" y="-339"/>
      <point x="-130" y="-226" type="curve" smooth="yes"/>
      <point x="-130" y="-143"/>
      <point x="-185" y="-84"/>
      <point x="-269" y="-84" type="curve" smooth="yes"/>
      <point x="-288" y="-84"/>
      <point x="-298" y="-85"/>
      <point x="-309" y="-88" type="curve"/>
      <point x="-309" y="42" type="line"/>
    </contour>
    <contour>
      <point x="-385" y="-443" type="move" name="L"/>
    </contour>
    <contour>
      <point x="-359" y="0" type="move" name="_H"/>
    </contour>
  </outline>
</glyph>
<glyph name="Pi" format="1">
  <advance width="1241"/>
  <unicode hex="03A0"/>
  <outline>
    <contour>
      <point x="844" y="1032" type="line"/>
      <point x="844" y="0" type="line"/>
      <point x="1095" y="0" type="line"/>
      <point x="1083" y="67"/>
      <point x="1083" y="195"/>
      <point x="1083" y="359" type="curve" smooth="yes"/>
      <point x="1083" y="857" type="line" smooth="yes"/>
      <point x="1083" y="1022"/>
      <point x="1083" y="1154"/>
      <point x="1095" y="1221" type="curve"/>
      <point x="125" y="1221" type="line"/>
      <point x="138" y="1154"/>
      <point x="138" y="1022"/>
      <point x="138" y="857" type="curve" smooth="yes"/>
      <point x="138" y="359" type="line" smooth="yes"/>
      <point x="138" y="195"/>
      <point x="138" y="67"/>
      <point x="125" y="0" type="curve"/>
      <point x="376" y="0" type="line"/>
      <point x="376" y="1032" type="line"/>
    </contour>
  </outline>
</glyph>
<glyph name="pi" format="1">
  <advance width="1172"/>
  <unicode hex="03C0"/>
  <outline>
    <contour>
      <point x="1114" y="686" type="line"/>
      <point x="1114" y="853" type="line"/>
      <point x="46" y="853" type="line"/>
      <point x="46" y="686" type="line"/>
      <point x="217" y="686" type="line"/>
      <point x="217" y="0" type="line"/>
      <point x="452" y="0" type="line"/>
      <point x="452" y="686" type="line"/>
      <point x="708" y="686" type="line"/>
      <point x="708" y="490" type="line"/>
      <point x="708" y="373"/>
      <point x="709" y="258"/>
      <point x="712" y="186" type="curve" smooth="yes"/>
      <point x="716" y="108"/>
      <point x="725" y="48"/>
      <point x="746" y="0" type="curve"/>
      <point x="988" y="0" type="line"/>
      <point x="953" y="88"/>
      <point x="942" y="161"/>
      <point x="942" y="314" type="curve"/>
      <point x="942" y="686" type="line"/>
    </contour>
    <contour>
      <point x="582" y="920" type="move" name="U"/>
    </contour>
    <contour>
      <point x="582" y="-84" type="move" name="L"/>
    </contour>
  </outline>
</glyph>
<glyph name="uni1980" format="1">
  <advance width="1729"/>
  <unicode hex="1980"/>
  <outline>
    <contour>
      <point x="858" y="513" type="curve" smooth="yes"/>
      <point x="851.126" y="504.892"/>
      <point x="839" y="500"/>
      <point x="830" y="508" type="curve" smooth="yes"/>
      <point x="725" y="616" type="line" smooth="yes"/>
      <point x="716" y="624"/>
      <point x="712" y="637"/>
      <point x="719" y="646" type="curve"/>
      <point x="800" y="731"/>
      <point x="924" y="870"/>
      <point x="1156" y="870" type="curve" smooth="yes"/>
      <point x="1415" y="870"/>
      <point x="1631" y="722"/>
      <point x="1631" y="449" type="curve" smooth="yes"/>
      <point x="1631" y="223"/>
      <point x="1439" y="8"/>
      <point x="1107" y="7" type="curve" smooth="yes"/>
      <point x="1097" y="7"/>
      <point x="1088" y="15"/>
      <point x="1088" y="23" type="curve" smooth="yes"/>
      <point x="1088" y="170" type="line" smooth="yes"/>
      <point x="1088" y="180"/>
      <point x="1097" y="187"/>
      <point x="1107" y="187" type="curve" smooth="yes"/>
      <point x="1321" y="187"/>
      <point x="1396" y="311"/>
      <point x="1396" y="449" type="curve" smooth="yes"/>
      <point x="1396" y="565"/>
      <point x="1321" y="675"/>
      <point x="1156" y="675" type="curve" smooth="yes"/>
      <point x="1032" y="675"/>
      <point x="936" y="605"/>
    </contour>
    <contour>
      <point x="1636" y="-246" type="curve" smooth="yes"/>
      <point x="1636" y="-499"/>
      <point x="1399" y="-692"/>
      <point x="1109" y="-692" type="curve" smooth="yes"/>
      <point x="865" y="-692"/>
      <point x="679" y="-497"/>
      <point x="632" y="-373" type="curve" smooth="yes"/>
      <point x="629" y="-364"/>
      <point x="636" y="-353"/>
      <point x="645" y="-349" type="curve" smooth="yes"/>
      <point x="765" y="-299" type="line" smooth="yes"/>
      <point x="773" y="-296"/>
      <point x="784" y="-303"/>
      <point x="789" y="-313" type="curve" smooth="yes"/>
      <point x="840" y="-416"/>
      <point x="925" y="-514"/>
      <point x="1109" y="-514" type="curve" smooth="yes"/>
      <point x="1274" y="-514"/>
      <point x="1401" y="-400"/>
      <point x="1401" y="-256" type="curve" smooth="yes"/>
      <point x="1401" y="-94"/>
      <point x="1282" y="7"/>
      <point x="1110" y="7" type="curve"/>
      <point x="1110" y="187" type="line"/>
      <point x="1437" y="187"/>
      <point x="1636" y="0"/>
    </contour>
    <contour>
      <point x="493" y="-20" type="curve" smooth="yes"/>
      <point x="285" y="-20"/>
      <point x="197" y="55"/>
      <point x="97" y="183" type="curve" smooth="yes"/>
      <point x="90" y="192"/>
      <point x="93" y="205"/>
      <point x="103" y="213" type="curve" smooth="yes"/>
      <point x="237" y="293" type="line" smooth="yes"/>
      <point x="247" y="301"/>
      <point x="259.178" y="297.104"/>
      <point x="265" y="287" type="curve" smooth="yes"/>
      <point x="299" y="228"/>
      <point x="389" y="175"/>
      <point x="493" y="175" type="curve" smooth="yes"/>
      <point x="599" y="175"/>
      <point x="700" y="255"/>
      <point x="700" y="421" type="curve" smooth="yes"/>
      <point x="700" y="594"/>
      <point x="604" y="675"/>
      <point x="483" y="675" type="curve" smooth="yes"/>
      <point x="389" y="675"/>
      <point x="311" y="620"/>
      <point x="266" y="554" type="curve" smooth="yes"/>
      <point x="259.577" y="544.579"/>
      <point x="248" y="542"/>
      <point x="238" y="549" type="curve"/>
      <point x="103" y="637" type="line"/>
      <point x="93" y="644"/>
      <point x="90" y="658"/>
      <point x="98" y="667" type="curve" smooth="yes"/>
      <point x="198" y="795"/>
      <point x="316" y="870"/>
      <point x="483" y="870" type="curve" smooth="yes"/>
      <point x="731" y="870"/>
      <point x="935" y="690"/>
      <point x="935" y="421" type="curve" smooth="yes"/>
      <point x="935" y="167"/>
      <point x="732" y="-20"/>
    </contour>
  </outline>
</glyph>
<glyph name="uni1982" format="1">
  <advance width="1758"/>
  <unicode hex="1982"/>
  <outline>
    <contour>
      <point x="969" y="436" type="curve" smooth="yes"/>
      <point x="969" y="426"/>
      <point x="961" y="417"/>
      <point x="953" y="417" type="curve" smooth="yes"/>
      <point x="806" y="417" type="line" smooth="yes"/>
      <point x="796" y="417"/>
      <point x="789" y="426"/>
      <point x="789" y="436" type="curve" smooth="yes"/>
      <point x="789" y="481"/>
      <point x="809.331" y="593.904"/>
      <point x="819" y="628" type="curve" smooth="yes"/>
      <point x="857" y="762"/>
      <point x="1038" y="870"/>
      <point x="1213" y="870" type="curve" smooth="yes"/>
      <point x="1463" y="870"/>
      <point x="1660" y="695"/>
      <point x="1660" y="430" type="curve" smooth="yes"/>
      <point x="1660" y="196"/>
      <point x="1536" y="-20"/>
      <point x="1287" y="-20" type="curve" smooth="yes"/>
      <point x="1257" y="-20"/>
      <point x="1212" y="-15"/>
      <point x="1183" y="-3" type="curve" smooth="yes"/>
      <point x="1174" y="1"/>
      <point x="1171" y="12"/>
      <point x="1176" y="21" type="curve" smooth="yes"/>
      <point x="1229" y="193" type="line" smooth="yes"/>
      <point x="1232" y="201"/>
      <point x="1244" y="201"/>
      <point x="1254" y="199" type="curve" smooth="yes"/>
      <point x="1262" y="197"/>
      <point x="1276" y="196"/>
      <point x="1287" y="196" type="curve" smooth="yes"/>
      <point x="1346" y="196"/>
      <point x="1415" y="285"/>
      <point x="1415" y="420" type="curve" smooth="yes"/>
      <point x="1415" y="567"/>
      <point x="1318" y="655"/>
      <point x="1203" y="655" type="curve" smooth="yes"/>
      <point x="1035" y="655"/>
      <point x="969" y="495"/>
    </contour>
    <contour>
      <point x="789" y="436" type="curve" smooth="yes"/>
      <point x="789" y="495"/>
      <point x="729" y="655"/>
      <point x="555" y="655" type="curve" smooth="yes"/>
      <point x="439" y="655"/>
      <point x="343" y="567"/>
      <point x="343" y="420" type="curve" smooth="yes"/>
      <point x="343" y="289"/>
      <point x="411" y="196"/>
      <point x="471" y="196" type="curve" smooth="yes"/>
      <point x="481" y="196"/>
      <point x="495" y="198"/>
      <point x="504" y="199" type="curve" smooth="yes"/>
      <point x="514.136" y="200.126"/>
      <point x="525" y="201"/>
      <point x="529" y="193" type="curve" smooth="yes"/>
      <point x="582" y="21" type="line" smooth="yes"/>
      <point x="587" y="12"/>
      <point x="584" y="1"/>
      <point x="575" y="-3" type="curve" smooth="yes"/>
      <point x="546" y="-15"/>
      <point x="501" y="-20"/>
      <point x="471" y="-20" type="curve" smooth="yes"/>
      <point x="222" y="-20"/>
      <point x="98" y="196"/>
      <point x="98" y="430" type="curve" smooth="yes"/>
      <point x="98" y="695"/>
      <point x="295" y="870"/>
      <point x="545" y="870" type="curve" smooth="yes"/>
      <point x="720" y="870"/>
      <point x="901" y="762"/>
      <point x="939" y="628" type="curve" smooth="yes"/>
      <point x="948.596" y="594.163"/>
      <point x="969" y="481"/>
      <point x="969" y="436" type="curve" smooth="yes"/>
      <point x="969" y="426"/>
      <point x="962" y="417"/>
      <point x="952" y="417" type="curve" smooth="yes"/>
      <point x="805" y="417" type="line" smooth="yes"/>
      <point x="797" y="417"/>
      <point x="789" y="426"/>
    </contour>
    <contour>
      <point x="879" y="-100" type="move" name="bottom"/>
    </contour>
  </outline>
</glyph>
<glyph name="uni1983" format="1">
  <advance width="1171"/>
  <unicode hex="1983"/>
  <outline>
    <contour>
      <point x="108" y="-411" type="curve" smooth="yes"/>
      <point x="104" y="-402"/>
      <point x="111" y="-391"/>
      <point x="121" y="-387" type="curve" smooth="yes"/>
      <point x="221" y="-347" type="line" smooth="yes"/>
      <point x="228" y="-345"/>
      <point x="238" y="-352"/>
      <point x="244" y="-361" type="curve" smooth="yes"/>
      <point x="303" y="-443"/>
      <point x="406" y="-502"/>
      <point x="555" y="-502" type="curve" smooth="yes"/>
      <point x="745" y="-502"/>
      <point x="857" y="-361"/>
      <point x="857" y="-158" type="curve" smooth="yes"/>
      <point x="857" y="102"/>
      <point x="687" y="257"/>
      <point x="509" y="257" type="curve" smooth="yes"/>
      <point x="401" y="257"/>
      <point x="355" y="213"/>
      <point x="355" y="161" type="curve" smooth="yes"/>
      <point x="355" y="108"/>
      <point x="401" y="73"/>
      <point x="505" y="73" type="curve" smooth="yes"/>
      <point x="675" y="73"/>
      <point x="838" y="253"/>
      <point x="838" y="439" type="curve" smooth="yes"/>
      <point x="838" y="574"/>
      <point x="702" y="655"/>
      <point x="565" y="655" type="curve" smooth="yes"/>
      <point x="434" y="655"/>
      <point x="359" y="617"/>
      <point x="282" y="544" type="curve" smooth="yes"/>
      <point x="273" y="536"/>
      <point x="263" y="533"/>
      <point x="254" y="539" type="curve" smooth="yes"/>
      <point x="140" y="619" type="line" smooth="yes"/>
      <point x="129" y="626"/>
      <point x="127" y="639"/>
      <point x="134" y="649" type="curve" smooth="yes"/>
      <point x="225" y="787"/>
      <point x="371" y="870"/>
      <point x="565" y="870" type="curve" smooth="yes"/>
      <point x="878" y="870"/>
      <point x="1073" y="681"/>
      <point x="1073" y="439" type="curve" smooth="yes"/>
      <point x="1073" y="155"/>
      <point x="760" y="-110"/>
      <point x="505" y="-110" type="curve" smooth="yes"/>
      <point x="263" y="-110"/>
      <point x="134" y="27"/>
      <point x="134" y="161" type="curve" smooth="yes"/>
      <point x="134" y="314"/>
      <point x="293" y="440"/>
      <point x="509" y="440" type="curve" smooth="yes"/>
      <point x="774" y="440"/>
      <point x="1092" y="269"/>
      <point x="1092" y="-158" type="curve" smooth="yes"/>
      <point x="1092" y="-469"/>
      <point x="870" y="-690"/>
      <point x="564" y="-690" type="curve" smooth="yes"/>
      <point x="356" y="-690"/>
      <point x="175" y="-565"/>
    </contour>
  </outline>
</glyph>
<glyph name="uni1985" format="1">
  <advance width="1239"/>
  <unicode hex="1985"/>
  <outline>
    <contour>
      <point x="98" y="393" type="curve" smooth="yes"/>
      <point x="98" y="708"/>
      <point x="310" y="870"/>
      <point x="619" y="870" type="curve" smooth="yes"/>
      <point x="953" y="870"/>
      <point x="1141" y="718"/>
      <point x="1141" y="402" type="curve" smooth="yes"/>
      <point x="1141" y="195"/>
      <point x="1019" y="44"/>
      <point x="858" y="-17" type="curve" smooth="yes"/>
      <point x="853.818" y="-18.585"/>
      <point x="850" y="-20"/>
      <point x="847" y="-20" type="curve" smooth="yes"/>
      <point x="841" y="-20"/>
      <point x="836" y="-16"/>
      <point x="833" y="-11" type="curve" smooth="yes"/>
      <point x="739" y="140" type="line" smooth="yes"/>
      <point x="734" y="147"/>
      <point x="738.034" y="159.925"/>
      <point x="747" y="164" type="curve" smooth="yes"/>
      <point x="835" y="204"/>
      <point x="906" y="281"/>
      <point x="906" y="402" type="curve" smooth="yes"/>
      <point x="906" y="556"/>
      <point x="815" y="675"/>
      <point x="619" y="675" type="curve" smooth="yes"/>
      <point x="427" y="675"/>
      <point x="333" y="552"/>
      <point x="333" y="393" type="curve" smooth="yes"/>
      <point x="333" y="302"/>
      <point x="403" y="202"/>
      <point x="483" y="161" type="curve" smooth="yes"/>
      <point x="492.626" y="156.066"/>
      <point x="495" y="143"/>
      <point x="489" y="133" type="curve"/>
      <point x="378" y="-9" type="line"/>
      <point x="372" y="-16"/>
      <point x="367" y="-20"/>
      <point x="360" y="-20" type="curve" smooth="yes"/>
      <point x="357" y="-20"/>
      <point x="352.411" y="-17.3545"/>
      <point x="348" y="-15" type="curve" smooth="yes"/>
      <point x="215" y="56"/>
      <point x="98" y="209"/>
    </contour>
    <contour>
      <point x="619" y="-100" type="move" name="bottom"/>
    </contour>
  </outline>
</glyph>
<glyph name="uni1986" format="1">
  <advance width="1179"/>
  <unicode hex="1986"/>
  <outline>
    <contour>
      <point x="867" y="1305"/>
      <point x="776" y="1353"/>
      <point x="642" y="1353" type="curve" smooth="yes"/>
      <point x="445" y="1353"/>
      <point x="341" y="1213"/>
      <point x="341" y="982" type="curve" smooth="yes"/>
      <point x="341" y="848"/>
      <point x="350" y="744"/>
      <point x="363" y="670" type="curve"/>
      <point x="136" y="565" type="line"/>
      <point x="122" y="659"/>
      <point x="106" y="804"/>
      <point x="106" y="982" type="curve" smooth="yes"/>
      <point x="106" y="1274"/>
      <point x="281" y="1540"/>
      <point x="642" y="1540" type="curve" smooth="yes"/>
      <point x="855" y="1540"/>
      <point x="1003" y="1403"/>
      <point x="1041" y="1289" type="curve" smooth="yes"/>
      <point x="1044" y="1280"/>
      <point x="1038" y="1269"/>
      <point x="1028" y="1265" type="curve" smooth="yes"/>
      <point x="927" y="1228" type="line" smooth="yes"/>
      <point x="919" y="1225"/>
      <point x="910" y="1230"/>
      <point x="903" y="1242" type="curve" smooth="yes"/>
    </contour>
    <contour>
      <point x="215" y="56"/>
      <point x="98" y="209"/>
      <point x="98" y="393" type="curve" smooth="yes"/>
      <point x="98" y="688"/>
      <point x="310" y="870"/>
      <point x="589" y="870" type="curve" smooth="yes"/>
      <point x="893" y="870"/>
      <point x="1081" y="698"/>
      <point x="1081" y="402" type="curve" smooth="yes"/>
      <point x="1081" y="195"/>
      <point x="959" y="44"/>
      <point x="798" y="-17" type="curve" smooth="yes"/>
      <point x="794" y="-19"/>
      <point x="790" y="-20"/>
      <point x="787" y="-20" type="curve" smooth="yes"/>
      <point x="781" y="-20"/>
      <point x="776" y="-16"/>
      <point x="773" y="-11" type="curve" smooth="yes"/>
      <point x="679" y="140" type="line" smooth="yes"/>
      <point x="674" y="147"/>
      <point x="678" y="160"/>
      <point x="687" y="164" type="curve" smooth="yes"/>
      <point x="775" y="204"/>
      <point x="846" y="281"/>
      <point x="846" y="402" type="curve" smooth="yes"/>
      <point x="846" y="556"/>
      <point x="765" y="655"/>
      <point x="589" y="655" type="curve" smooth="yes"/>
      <point x="437" y="655"/>
      <point x="333" y="552"/>
      <point x="333" y="393" type="curve" smooth="yes"/>
      <point x="333" y="302"/>
      <point x="403" y="202"/>
      <point x="483" y="161" type="curve" smooth="yes"/>
      <point x="493" y="156"/>
      <point x="495" y="143"/>
      <point x="489" y="133" type="curve"/>
      <point x="378" y="-9" type="line"/>
      <point x="372" y="-16"/>
      <point x="367" y="-20"/>
      <point x="360" y="-20" type="curve" smooth="yes"/>
      <point x="357" y="-20"/>
      <point x="352" y="-17"/>
      <point x="348" y="-15" type="curve" smooth="yes"/>
    </contour>
    <contour>
      <point x="584" y="-100" type="move" name="bottom"/>
    </contour>
  </outline>
</glyph>
<glyph name="uni1989" format="1">
  <advance width="1715"/>
  <unicode hex="1989"/>
  <outline>
    <contour>
      <point x="1382" y="421" type="curve" smooth="yes"/>
      <point x="1382" y="568"/>
      <point x="1277" y="675"/>
      <point x="1161" y="675" type="curve" smooth="yes"/>
      <point x="1124" y="675"/>
      <point x="1083" y="670"/>
      <point x="1058" y="656" type="curve" smooth="yes"/>
      <point x="1050" y="652"/>
      <point x="1042" y="649"/>
      <point x="1038" y="657" type="curve" smooth="yes"/>
      <point x="945" y="799" type="line" smooth="yes"/>
      <point x="941" y="807"/>
      <point x="944" y="817"/>
      <point x="953" y="822" type="curve" smooth="yes"/>
      <point x="1000" y="849"/>
      <point x="1058" y="870"/>
      <point x="1161" y="870" type="curve" smooth="yes"/>
      <point x="1437" y="870"/>
      <point x="1617" y="666"/>
      <point x="1617" y="421" type="curve" smooth="yes"/>
      <point x="1617" y="176"/>
      <point x="1449" y="-20"/>
      <point x="1170" y="-20" type="curve" smooth="yes"/>
      <point x="937" y="-20"/>
      <point x="834" y="75"/>
      <point x="748" y="228" type="curve"/>
      <point x="920" y="421" type="line"/>
      <point x="920" y="247"/>
      <point x="1054" y="175"/>
      <point x="1170" y="175" type="curve" smooth="yes"/>
      <point x="1283" y="175"/>
      <point x="1382" y="274"/>
    </contour>
    <contour>
      <point x="478" y="-20" type="curve" smooth="yes"/>
      <point x="270" y="-20"/>
      <point x="182" y="55"/>
      <point x="82" y="183" type="curve" smooth="yes"/>
      <point x="75" y="192"/>
      <point x="78" y="205"/>
      <point x="88" y="213" type="curve" smooth="yes"/>
      <point x="222" y="293" type="line" smooth="yes"/>
      <point x="232" y="301"/>
      <point x="244.178" y="297.104"/>
      <point x="250" y="287" type="curve" smooth="yes"/>
      <point x="284" y="228"/>
      <point x="374" y="175"/>
      <point x="478" y="175" type="curve" smooth="yes"/>
      <point x="584" y="175"/>
      <point x="685" y="255"/>
      <point x="685" y="421" type="curve" smooth="yes"/>
      <point x="685" y="594"/>
      <point x="589" y="675"/>
      <point x="468" y="675" type="curve" smooth="yes"/>
      <point x="374" y="675"/>
      <point x="296" y="620"/>
      <point x="251" y="554" type="curve" smooth="yes"/>
      <point x="244.577" y="544.579"/>
      <point x="233" y="542"/>
      <point x="223" y="549" type="curve"/>
      <point x="88" y="637" type="line"/>
      <point x="78" y="644"/>
      <point x="75" y="658"/>
      <point x="83" y="667" type="curve" smooth="yes"/>
      <point x="183" y="795"/>
      <point x="301" y="870"/>
      <point x="468" y="870" type="curve" smooth="yes"/>
      <point x="716" y="870"/>
      <point x="920" y="690"/>
      <point x="920" y="421" type="curve" smooth="yes"/>
      <point x="920" y="167"/>
      <point x="717" y="-20"/>
    </contour>
    <contour>
      <point x="842" y="-100" type="move" name="bottom"/>
    </contour>
  </outline>
</glyph>
<glyph name="uni198A" format="1">
  <advance width="1341"/>
  <unicode hex="198A"/>
  <outline>
    <contour>
      <point x="1043" y="329"/>
      <point x="934" y="-20"/>
      <point x="485" y="-20" type="curve" smooth="yes"/>
      <point x="249" y="-20"/>
      <point x="65" y="65"/>
      <point x="65" y="248" type="curve" smooth="yes"/>
      <point x="65" y="396"/>
      <point x="281" y="503"/>
      <point x="361" y="503" type="curve" smooth="yes"/>
      <point x="379" y="503"/>
      <point x="440" y="503"/>
      <point x="451" y="503" type="curve" smooth="yes"/>
      <point x="472" y="503"/>
      <point x="494" y="492"/>
      <point x="494" y="436" type="curve" smooth="yes"/>
      <point x="494" y="400"/>
      <point x="470" y="382"/>
      <point x="449" y="382" type="curve" smooth="yes"/>
      <point x="384" y="382"/>
      <point x="298" y="345"/>
      <point x="298" y="277" type="curve" smooth="yes"/>
      <point x="298" y="218"/>
      <point x="379" y="175"/>
      <point x="501" y="175" type="curve" smooth="yes"/>
      <point x="813" y="175"/>
      <point x="833" y="464"/>
      <point x="786" y="826" type="curve" smooth="yes"/>
      <point x="757" y="1050"/>
      <point x="734" y="1540"/>
      <point x="1068" y="1540" type="curve" smooth="yes"/>
      <point x="1266" y="1540"/>
      <point x="1321" y="1400"/>
      <point x="1321" y="1255" type="curve" smooth="yes"/>
      <point x="1321" y="1219"/>
      <point x="1318" y="1182"/>
      <point x="1312" y="1147" type="curve" smooth="yes"/>
      <point x="1311" y="1138"/>
      <point x="1306" y="1128"/>
      <point x="1297" y="1128" type="curve" smooth="yes"/>
      <point x="1200" y="1129" type="line" smooth="yes"/>
      <point x="1190" y="1129"/>
      <point x="1183" y="1138"/>
      <point x="1183" y="1147" type="curve" smooth="yes"/>
      <point x="1183" y="1294"/>
      <point x="1158" y="1371"/>
      <point x="1068" y="1371" type="curve" smooth="yes"/>
      <point x="916" y="1371"/>
      <point x="976" y="912"/>
      <point x="998" y="720" type="curve" smooth="yes"/>
    </contour>
    <contour>
      <point x="514" y="390"/>
      <point x="505" y="382"/>
      <point x="496" y="382" type="curve" smooth="yes"/>
      <point x="346" y="382"/>
      <point x="65" y="447"/>
      <point x="65" y="636" type="curve" smooth="yes"/>
      <point x="65" y="782"/>
      <point x="209" y="870"/>
      <point x="393" y="870" type="curve" smooth="yes"/>
      <point x="478" y="870"/>
      <point x="562" y="855"/>
      <point x="591" y="834" type="curve" smooth="yes"/>
      <point x="596" y="830"/>
      <point x="600" y="824"/>
      <point x="600" y="818" type="curve" smooth="yes"/>
      <point x="600" y="816"/>
      <point x="599" y="813"/>
      <point x="598" y="811" type="curve" smooth="yes"/>
      <point x="555" y="677" type="line" smooth="yes"/>
      <point x="553" y="672"/>
      <point x="546" y="669"/>
      <point x="539" y="669" type="curve" smooth="yes"/>
      <point x="535" y="669"/>
      <point x="532" y="669"/>
      <point x="529" y="671" type="curve" smooth="yes"/>
      <point x="509" y="681"/>
      <point x="468" y="693"/>
      <point x="413" y="693" type="curve" smooth="yes"/>
      <point x="341" y="693"/>
      <point x="298" y="656"/>
      <point x="298" y="606" type="curve" smooth="yes"/>
      <point x="298" y="534"/>
      <point x="372" y="512"/>
      <point x="496" y="512" type="curve" smooth="yes"/>
      <point x="505" y="512"/>
      <point x="514" y="505"/>
      <point x="514" y="495" type="curve" smooth="yes"/>
      <point x="514" y="398" type="line" smooth="yes"/>
    </contour>
  </outline>
</glyph>
<glyph name="uni198B" format="1">
  <advance width="1241"/>
  <unicode hex="198B"/>
  <outline>
    <contour>
      <point x="900" y="870"/>
      <point x="1109" y="716"/>
      <point x="1109" y="449" type="curve" smooth="yes"/>
      <point x="1109" y="229"/>
      <point x="955" y="28"/>
      <point x="697" y="27" type="curve" smooth="yes"/>
      <point x="687" y="27"/>
      <point x="678" y="34"/>
      <point x="678" y="43" type="curve" smooth="yes"/>
      <point x="678" y="180" type="line" smooth="yes"/>
      <point x="678" y="191"/>
      <point x="687" y="197"/>
      <point x="697" y="197" type="curve" smooth="yes"/>
      <point x="792" y="197"/>
      <point x="875" y="284"/>
      <point x="875" y="416" type="curve" smooth="yes"/>
      <point x="875" y="551"/>
      <point x="777" y="655"/>
      <point x="609" y="655" type="curve" smooth="yes"/>
      <point x="426" y="655"/>
      <point x="333" y="522"/>
      <point x="333" y="393" type="curve" smooth="yes"/>
      <point x="333" y="312"/>
      <point x="371" y="226"/>
      <point x="471" y="157" type="curve" smooth="yes"/>
      <point x="477" y="153"/>
      <point x="480" y="147"/>
      <point x="480" y="140" type="curve" smooth="yes"/>
      <point x="480" y="137"/>
      <point x="479" y="133"/>
      <point x="477" y="129" type="curve"/>
      <point x="367" y="-12" type="line"/>
      <point x="363" y="-18"/>
      <point x="356" y="-21"/>
      <point x="349" y="-21" type="curve" smooth="yes"/>
      <point x="345" y="-21"/>
      <point x="341" y="-20"/>
      <point x="337" y="-18" type="curve" smooth="yes"/>
      <point x="200" y="64"/>
      <point x="98" y="209"/>
      <point x="98" y="393" type="curve" smooth="yes"/>
      <point x="98" y="688"/>
      <point x="317" y="870"/>
      <point x="607" y="870" type="curve" smooth="yes"/>
    </contour>
    <contour>
      <point x="976" y="197"/>
      <point x="1148" y="7"/>
      <point x="1148" y="-225" type="curve" smooth="yes"/>
      <point x="1148" y="-482"/>
      <point x="907" y="-690"/>
      <point x="610" y="-690" type="curve" smooth="yes"/>
      <point x="396" y="-690"/>
      <point x="219" y="-526"/>
      <point x="152" y="-402" type="curve" smooth="yes"/>
      <point x="147" y="-393"/>
      <point x="155" y="-382"/>
      <point x="165" y="-378" type="curve" smooth="yes"/>
      <point x="266" y="-337" type="line" smooth="yes"/>
      <point x="273" y="-334"/>
      <point x="282" y="-341"/>
      <point x="290" y="-351" type="curve" smooth="yes"/>
      <point x="350" y="-428"/>
      <point x="450" y="-502"/>
      <point x="610" y="-502" type="curve" smooth="yes"/>
      <point x="768" y="-502"/>
      <point x="911" y="-381"/>
      <point x="911" y="-225" type="curve" smooth="yes"/>
      <point x="911" y="-76"/>
      <point x="828" y="27"/>
      <point x="699" y="27" type="curve"/>
      <point x="699" y="197" type="line"/>
    </contour>
  </outline>
</glyph>
<glyph name="uni198D" format="1">
  <advance width="1851"/>
  <unicode hex="198D"/>
  <outline>
    <contour>
      <point x="836" y="415" type="curve" smooth="yes"/>
      <point x="836" y="425"/>
      <point x="843" y="434"/>
      <point x="852" y="434" type="curve" smooth="yes"/>
      <point x="998" y="434" type="line" smooth="yes"/>
      <point x="1009" y="434"/>
      <point x="1015" y="425"/>
      <point x="1015" y="415" type="curve" smooth="yes"/>
      <point x="1015" y="369"/>
      <point x="995.828" y="256.77"/>
      <point x="986" y="223" type="curve" smooth="yes"/>
      <point x="947" y="89"/>
      <point x="767" y="-20"/>
      <point x="563" y="-20" type="curve" smooth="yes"/>
      <point x="266" y="-20"/>
      <point x="98" y="176"/>
      <point x="98" y="421" type="curve" smooth="yes"/>
      <point x="98" y="666"/>
      <point x="258.999" y="870.247"/>
      <point x="498" y="870" type="curve" smooth="yes"/>
      <point x="538" y="869.959"/>
      <point x="592" y="865"/>
      <point x="621" y="853" type="curve" smooth="yes"/>
      <point x="630.952" y="848.882"/>
      <point x="633" y="838"/>
      <point x="629" y="829" type="curve" smooth="yes"/>
      <point x="556" y="657" type="line" smooth="yes"/>
      <point x="552" y="650"/>
      <point x="541" y="650"/>
      <point x="531" y="652" type="curve" smooth="yes"/>
      <point x="522" y="654"/>
      <point x="508" y="655"/>
      <point x="498" y="655" type="curve" smooth="yes"/>
      <point x="418" y="655"/>
      <point x="353" y="582"/>
      <point x="353" y="431" type="curve" smooth="yes"/>
      <point x="353" y="294"/>
      <point x="450" y="195"/>
      <point x="573" y="195" type="curve" smooth="yes"/>
      <point x="737" y="195"/>
      <point x="836" y="325"/>
    </contour>
    <contour>
      <point x="1015" y="415" type="curve" smooth="yes"/>
      <point x="1015" y="325"/>
      <point x="1114" y="195"/>
      <point x="1278" y="195" type="curve" smooth="yes"/>
      <point x="1401" y="195"/>
      <point x="1498" y="294"/>
      <point x="1498" y="431" type="curve" smooth="yes"/>
      <point x="1498" y="578"/>
      <point x="1433" y="655"/>
      <point x="1353" y="655" type="curve" smooth="yes"/>
      <point x="1343" y="655"/>
      <point x="1329" y="654"/>
      <point x="1321" y="652" type="curve" smooth="yes"/>
      <point x="1310" y="650"/>
      <point x="1299" y="650"/>
      <point x="1295" y="657" type="curve" smooth="yes"/>
      <point x="1222" y="829" type="line" smooth="yes"/>
      <point x="1218" y="838"/>
      <point x="1221" y="849"/>
      <point x="1230" y="853" type="curve" smooth="yes"/>
      <point x="1259" y="865"/>
      <point x="1323" y="870.12"/>
      <point x="1353" y="870" type="curve" smooth="yes"/>
      <point x="1602" y="869"/>
      <point x="1753" y="675"/>
      <point x="1753" y="421" type="curve" smooth="yes"/>
      <point x="1753" y="176"/>
      <point x="1586" y="-20"/>
      <point x="1288" y="-20" type="curve" smooth="yes"/>
      <point x="1084" y="-20"/>
      <point x="904" y="89"/>
      <point x="865" y="223" type="curve" smooth="yes"/>
      <point x="855.172" y="256.77"/>
      <point x="836" y="369"/>
      <point x="836" y="415" type="curve" smooth="yes"/>
      <point x="836" y="425"/>
      <point x="842" y="434"/>
      <point x="853" y="434" type="curve" smooth="yes"/>
      <point x="999" y="434" type="line" smooth="yes"/>
      <point x="1008" y="434"/>
      <point x="1015" y="425"/>
    </contour>
  </outline>
</glyph>
<glyph name="uni1990" format="1">
  <advance width="1692"/>
  <unicode hex="1990"/>
  <outline>
    <contour>
      <point x="195" y="870"/>
      <point x="470" y="870" type="curve" smooth="yes"/>
      <point x="499" y="870"/>
      <point x="544" y="865"/>
      <point x="573" y="853" type="curve" smooth="yes"/>
      <point x="582" y="849"/>
      <point x="585" y="839"/>
      <point x="581" y="829" type="curve" smooth="yes"/>
      <point x="518" y="657" type="line" smooth="yes"/>
      <point x="515" y="649"/>
      <point x="503" y="650"/>
      <point x="492" y="652" type="curve" smooth="yes"/>
      <point x="484" y="654"/>
      <point x="470" y="655"/>
      <point x="460" y="655" type="curve" smooth="yes"/>
      <point x="380" y="655"/>
      <point x="333" y="568"/>
      <point x="333" y="421" type="curve" smooth="yes"/>
      <point x="333" y="276"/>
      <point x="403" y="195"/>
      <point x="510" y="195" type="curve" smooth="yes"/>
      <point x="614" y="195"/>
      <point x="694" y="255"/>
      <point x="729" y="425" type="curve" smooth="yes"/>
      <point x="783" y="690"/>
      <point x="867" y="870"/>
      <point x="1169" y="870" type="curve" smooth="yes"/>
      <point x="1447" y="870"/>
      <point x="1594" y="678"/>
      <point x="1594" y="393" type="curve" smooth="yes"/>
      <point x="1594" y="128"/>
      <point x="1468" y="-20"/>
      <point x="1204" y="-20" type="curve" smooth="yes"/>
      <point x="1174" y="-20"/>
      <point x="1129" y="-15"/>
      <point x="1100" y="-3" type="curve" smooth="yes"/>
      <point x="1091" y="1"/>
      <point x="1089" y="11"/>
      <point x="1093" y="21" type="curve" smooth="yes"/>
      <point x="1156" y="192" type="line" smooth="yes"/>
      <point x="1159" y="200"/>
      <point x="1171" y="200"/>
      <point x="1181" y="198" type="curve" smooth="yes"/>
      <point x="1189" y="196"/>
      <point x="1203" y="195"/>
      <point x="1214" y="195" type="curve" smooth="yes"/>
      <point x="1293" y="195"/>
      <point x="1359" y="265"/>
      <point x="1359" y="393" type="curve" smooth="yes"/>
      <point x="1359" y="550"/>
      <point x="1292" y="655"/>
      <point x="1169" y="655" type="curve" smooth="yes"/>
      <point x="1052" y="655"/>
      <point x="989" y="559"/>
      <point x="964" y="425" type="curve" smooth="yes"/>
      <point x="910" y="138"/>
      <point x="799" y="-20"/>
      <point x="510" y="-20" type="curve" smooth="yes"/>
      <point x="239" y="-20"/>
      <point x="98" y="138"/>
      <point x="98" y="421" type="curve" smooth="yes"/>
      <point x="98" y="686"/>
    </contour>
    <contour>
      <point x="296" y="-417" type="curve" smooth="yes"/>
      <point x="282" y="-390"/>
      <point x="291" y="-383"/>
      <point x="302" y="-379" type="curve" smooth="yes"/>
      <point x="332" y="-367" type="line" smooth="yes"/>
      <point x="343" y="-363"/>
      <point x="349" y="-370"/>
      <point x="361" y="-390" type="curve" smooth="yes"/>
      <point x="433" y="-514"/>
      <point x="617" y="-587"/>
      <point x="909" y="-587" type="curve" smooth="yes"/>
      <point x="1272" y="-587"/>
      <point x="1419" y="-478"/>
      <point x="1419" y="-360" type="curve" smooth="yes"/>
      <point x="1419" y="-263"/>
      <point x="1351" y="-197"/>
      <point x="1189" y="-201" type="curve" smooth="yes"/>
      <point x="1179" y="-201"/>
      <point x="1171" y="-194"/>
      <point x="1171" y="-184" type="curve" smooth="yes"/>
      <point x="1171" y="46" type="line"/>
      <point x="1274" y="46" type="line"/>
      <point x="1274" y="-97" type="line" smooth="yes"/>
      <point x="1274" y="-106"/>
      <point x="1283" y="-113"/>
      <point x="1293" y="-113" type="curve" smooth="yes"/>
      <point x="1462" y="-122"/>
      <point x="1536" y="-217"/>
      <point x="1536" y="-360" type="curve" smooth="yes"/>
      <point x="1536" y="-511"/>
      <point x="1381" y="-690"/>
      <point x="909" y="-690" type="curve" smooth="yes"/>
      <point x="488" y="-690"/>
      <point x="362" y="-546"/>
    </contour>
  </outline>
</glyph>
<glyph name="uni1992" format="1">
  <advance width="1276"/>
  <unicode hex="1992"/>
  <outline>
    <contour>
      <point x="668" y="-20"/>
      <point x="572" y="205"/>
      <point x="572" y="350" type="curve"/>
      <point x="711" y="350" type="line"/>
      <point x="711" y="262"/>
      <point x="743" y="195"/>
      <point x="830" y="195" type="curve" smooth="yes"/>
      <point x="903" y="195"/>
      <point x="943" y="266"/>
      <point x="943" y="370" type="curve" smooth="yes"/>
      <point x="943" y="556"/>
      <point x="821" y="655"/>
      <point x="633" y="655" type="curve" smooth="yes"/>
      <point x="446" y="655"/>
      <point x="333" y="556"/>
      <point x="333" y="370" type="curve" smooth="yes"/>
      <point x="333" y="266"/>
      <point x="373" y="195"/>
      <point x="446" y="195" type="curve" smooth="yes"/>
      <point x="534" y="195"/>
      <point x="573" y="262"/>
      <point x="573" y="350" type="curve" smooth="yes"/>
      <point x="573" y="360"/>
      <point x="579" y="369"/>
      <point x="589" y="369" type="curve" smooth="yes"/>
      <point x="696" y="369" type="line" smooth="yes"/>
      <point x="705" y="369"/>
      <point x="712" y="360"/>
      <point x="712" y="350" type="curve" smooth="yes"/>
      <point x="712" y="204"/>
      <point x="627" y="-20"/>
      <point x="437" y="-20" type="curve" smooth="yes"/>
      <point x="252" y="-20"/>
      <point x="98" y="131"/>
      <point x="98" y="360" type="curve" smooth="yes"/>
      <point x="98" y="657"/>
      <point x="311" y="870"/>
      <point x="638" y="870" type="curve" smooth="yes"/>
      <point x="965" y="870"/>
      <point x="1178" y="658"/>
      <point x="1178" y="360" type="curve" smooth="yes"/>
      <point x="1178" y="131"/>
      <point x="1024" y="-20"/>
      <point x="839" y="-20" type="curve" smooth="yes"/>
    </contour>
  </outline>
</glyph>
<glyph name="uni1994" format="1">
  <advance width="1465"/>
  <unicode hex="1994"/>
  <outline>
    <contour>
      <point x="859" y="195"/>
      <point x="898" y="423"/>
      <point x="846" y="826" type="curve" smooth="yes"/>
      <point x="804" y="1147"/>
      <point x="820" y="1540"/>
      <point x="1154" y="1540" type="curve" smooth="yes"/>
      <point x="1352" y="1540"/>
      <point x="1407" y="1400"/>
      <point x="1407" y="1255" type="curve" smooth="yes"/>
      <point x="1407" y="1219"/>
      <point x="1404" y="1182"/>
      <point x="1398" y="1147" type="curve" smooth="yes"/>
      <point x="1397" y="1138"/>
      <point x="1392" y="1128"/>
      <point x="1383" y="1128" type="curve" smooth="yes"/>
      <point x="1276" y="1129" type="line" smooth="yes"/>
      <point x="1266" y="1129"/>
      <point x="1259" y="1138"/>
      <point x="1259" y="1147" type="curve" smooth="yes"/>
      <point x="1259" y="1294"/>
      <point x="1234" y="1361"/>
      <point x="1154" y="1361" type="curve" smooth="yes"/>
      <point x="1022" y="1361"/>
      <point x="1053" y="1076"/>
      <point x="1094" y="720" type="curve" smooth="yes"/>
      <point x="1139" y="329"/>
      <point x="1036" y="-20"/>
      <point x="587" y="-20" type="curve" smooth="yes"/>
      <point x="297" y="-20"/>
      <point x="98" y="164"/>
      <point x="98" y="449" type="curve" smooth="yes"/>
      <point x="98" y="642"/>
      <point x="220" y="795"/>
      <point x="348" y="866" type="curve" smooth="yes"/>
      <point x="352" y="868"/>
      <point x="356" y="870"/>
      <point x="359" y="870" type="curve" smooth="yes"/>
      <point x="366" y="870"/>
      <point x="373" y="866"/>
      <point x="378" y="860" type="curve" smooth="yes"/>
      <point x="484" y="720" type="line" smooth="yes"/>
      <point x="491" y="711"/>
      <point x="488" y="698"/>
      <point x="478" y="692" type="curve" smooth="yes"/>
      <point x="388" y="635"/>
      <point x="333" y="569"/>
      <point x="333" y="449" type="curve" smooth="yes"/>
      <point x="333" y="305"/>
      <point x="438" y="195"/>
      <point x="587" y="195" type="curve" smooth="yes"/>
    </contour>
  </outline>
</glyph>
